<?xml version="1.0" encoding="iso-8859-1"?>
<!-- Generator: Adobe Illustrator 16.0.0, SVG Export Plug-In . SVG Version: 6.00 Build 0)  -->
<!DOCTYPE svg PUBLIC "-//W3C//DTD SVG 1.1//EN" "http://www.w3.org/Graphics/SVG/1.1/DTD/svg11.dtd">
<svg version="1.1" id="Capa_1" xmlns="http://www.w3.org/2000/svg" xmlns:xlink="http://www.w3.org/1999/xlink" x="0px" y="0px"
	 width="897.673px" height="897.673px" viewBox="0 0 897.673 897.673" style="enable-background:new 0 0 897.673 897.673;"
	 xml:space="preserve">
<g>
	<path d="M859.877,855.354L606.396,23.221C602.195,9.427,589.469,0,575.049,0H448.836H322.625c-14.42,0-27.146,9.426-31.347,23.221
		L37.795,855.354c-6.413,21.055,9.338,42.318,31.347,42.318h181.071c15.246,0,28.479-10.515,31.922-25.367l38.312-165.216h128.39
		h128.39l38.312,165.216c3.443,14.853,16.676,25.367,31.922,25.367h181.071C850.539,897.673,866.291,876.409,859.877,855.354z
		 M448.836,523.413h-85.578l15.191-62.147c22.096-85.624,44.192-194.726,66.29-284.493h4.097h4.097
		c22.097,89.767,44.193,198.869,66.289,284.493l15.191,62.147H448.836z"/>
</g>
<g>
</g>
<g>
</g>
<g>
</g>
<g>
</g>
<g>
</g>
<g>
</g>
<g>
</g>
<g>
</g>
<g>
</g>
<g>
</g>
<g>
</g>
<g>
</g>
<g>
</g>
<g>
</g>
<g>
</g>
</svg>
