<?xml version="1.0" encoding="UTF-8" standalone="no"?>
<!-- Generator: Adobe Illustrator 18.1.1, SVG Export Plug-In . SVG Version: 6.00 Build 0)  -->

<svg
   xmlns:dc="http://purl.org/dc/elements/1.1/"
   xmlns:cc="http://creativecommons.org/ns#"
   xmlns:rdf="http://www.w3.org/1999/02/22-rdf-syntax-ns#"
   xmlns:svg="http://www.w3.org/2000/svg"
   xmlns="http://www.w3.org/2000/svg"
   xmlns:sodipodi="http://sodipodi.sourceforge.net/DTD/sodipodi-0.dtd"
   xmlns:inkscape="http://www.inkscape.org/namespaces/inkscape"
   version="1.1"
   id="Capa_1"
   x="0px"
   y="0px"
   viewBox="0 0 612 612"
   style="enable-background:new 0 0 612 612;"
   xml:space="preserve"
   sodipodi:docname="difficulty_easy.svg"
   inkscape:version="0.92.1 r15371"><metadata
     id="metadata6182"><rdf:RDF><cc:Work
         rdf:about=""><dc:format>image/svg+xml</dc:format><dc:type
           rdf:resource="http://purl.org/dc/dcmitype/StillImage" /></cc:Work></rdf:RDF></metadata><defs
     id="defs6180" /><sodipodi:namedview
     pagecolor="#ffffff"
     bordercolor="#666666"
     borderopacity="1"
     objecttolerance="10"
     gridtolerance="10"
     guidetolerance="10"
     inkscape:pageopacity="0"
     inkscape:pageshadow="2"
     inkscape:window-width="1920"
     inkscape:window-height="1001"
     id="namedview6178"
     showgrid="false"
     inkscape:zoom="1.3202614"
     inkscape:cx="53.019797"
     inkscape:cy="306"
     inkscape:window-x="-9"
     inkscape:window-y="-9"
     inkscape:window-maximized="1"
     inkscape:current-layer="g6145" /><g
     id="g6145"><path
       inkscape:connector-curvature="0"
       id="path6129"
       d="m 175.205,239.62 c 0.127,-1.965 -0.533,-3.902 -1.833,-5.381 l -58.84,-66.941 c -1.3,-1.479 -3.135,-2.381 -5.102,-2.508 -1.975,-0.126 -3.902,0.533 -5.381,1.833 -27.037,23.766 -49.479,51.794 -66.706,83.305 -0.944,1.729 -1.165,3.762 -0.611,5.651 0.554,1.89 1.836,3.483 3.565,4.427 l 78.205,42.748 c 1.131,0.619 2.352,0.912 3.557,0.912 2.627,0 5.174,-1.398 6.523,-3.866 11.386,-20.828 26.229,-39.359 44.114,-55.08 1.482,-1.298 2.384,-3.133 2.509,-5.1 z"
       style="fill:#aac200;fill-opacity:0.60784316" /><path
       inkscape:connector-curvature="0"
       id="path6131"
       d="m 201.462,214.829 c 1.334,2.515 3.907,3.948 6.568,3.948 1.174,0 2.365,-0.279 3.473,-0.867 20.962,-11.117 43.512,-18.371 67.025,-21.561 4.064,-0.551 6.913,-4.293 6.362,-8.358 L 272.911,99.675 c -0.551,-4.064 -4.304,-6.909 -8.358,-6.362 -35.708,4.843 -69.949,15.857 -101.772,32.736 -3.623,1.922 -5.002,6.416 -3.082,10.041 z"
       style="fill-opacity:0.60784316;fill:#dac200" /><path
       inkscape:connector-curvature="0"
       id="path6133"
       d="M 105.785,334.345 19.768,311.007 c -1.901,-0.514 -3.929,-0.255 -5.638,0.725 -1.709,0.98 -2.958,2.598 -3.475,4.499 C 3.586,342.295 0,369.309 0,396.523 c 0,4.657 0.111,9.329 0.342,14.284 0.185,3.981 3.468,7.083 7.414,7.083 0.116,0 0.234,-0.002 0.35,-0.008 l 89.031,-4.113 c 1.967,-0.09 3.82,-0.96 5.145,-2.415 1.327,-1.455 2.022,-3.38 1.93,-5.347 -0.155,-3.341 -0.23,-6.444 -0.23,-9.484 0,-18.02 2.365,-35.873 7.029,-53.066 1.071,-3.958 -1.268,-8.037 -5.226,-9.112 z"
       style="fill:#00bb00;fill-opacity:1" /><path
       inkscape:connector-curvature="0"
       id="path6135"
       d="M 438.731,120.745 C 406.32,105.12 371.691,95.437 335.806,91.959 c -1.972,-0.198 -3.918,0.408 -5.439,1.659 -1.521,1.252 -2.481,3.056 -2.671,5.018 l -8.593,88.712 c -0.396,4.082 2.594,7.713 6.677,8.108 23.652,2.291 46.463,8.669 67.8,18.954 1.015,0.49 2.118,0.738 3.225,0.738 0.826,0 1.654,-0.139 2.45,-0.416 1.859,-0.649 3.385,-2.012 4.24,-3.786 l 38.7,-80.287 c 1.783,-3.694 0.232,-8.134 -3.464,-9.914 z"
       style="fill:#aa5e00;fill-opacity:0.60784316" /><path
       inkscape:connector-curvature="0"
       id="path6137"
       d="m 569.642,245.337 c 0.48,-1.911 0.184,-3.932 -0.828,-5.624 -18.432,-30.835 -41.933,-57.983 -69.848,-80.686 -1.529,-1.242 -3.48,-1.824 -5.447,-1.627 -1.959,0.203 -3.758,1.174 -5,2.702 l -56.237,69.144 c -1.242,1.529 -1.828,3.488 -1.625,5.447 0.201,1.959 1.173,3.758 2.702,5.002 18.47,15.019 34.015,32.975 46.205,53.369 1.392,2.326 3.855,3.618 6.383,3.618 1.297,0 2.61,-0.34 3.803,-1.054 L 566.251,249.9 c 1.689,-1.011 2.909,-2.652 3.391,-4.563 z"
       style="fill:#aa0000;fill-opacity:0.60784316" /><path
       inkscape:connector-curvature="0"
       id="path6139"
       d="m 598.044,304.939 c -1.228,-3.915 -5.397,-6.096 -9.308,-4.867 l -85.048,26.648 c -3.915,1.226 -6.093,5.393 -4.867,9.306 6.104,19.486 9.199,39.839 9.199,60.494 0,3.041 -0.076,6.144 -0.23,9.484 -0.092,1.967 0.602,3.892 1.93,5.347 1.327,1.456 3.178,2.325 5.145,2.415 l 89.031,4.113 c 0.118,0.005 0.234,0.008 0.35,0.008 3.944,0 7.228,-3.103 7.414,-7.083 0.229,-4.955 0.342,-9.627 0.342,-14.284 -0.002,-31.214 -4.696,-62.026 -13.958,-91.581 z"
       style="fill:#ff0000;fill-opacity:1" /><path
       inkscape:connector-curvature="0"
       id="path6141"
       d="m 365.88588,452.64086 c 0.53599,-1.16348 1.03091,-2.33817 1.50011,-3.5192 l 115.13605,-79.79609 c 2.82049,-1.95195 3.99222,-5.53985 2.87209,-8.77977 -1.11748,-3.2409 -4.25492,-5.34026 -7.67498,-5.1388 l -139.57591,8.16316 c -2.05676,-1.21396 -4.18168,-2.33491 -6.37967,-3.34747 -16.90081,-7.78588 -35.82077,-8.52401 -53.27579,-2.07919 -17.45634,6.4453 -31.35733,19.30248 -39.14321,36.20331 -7.78588,16.90081 -8.5222,35.82161 -2.07828,53.27621 6.4444,17.45592 19.3011,31.35559 36.20191,39.14147 16.90082,7.78588 35.82077,8.52401 53.27579,2.07918 17.45502,-6.44481 31.35642,-19.3029 39.14189,-36.20281 z" /></g><g
     id="g6147" /><g
     id="g6149" /><g
     id="g6151" /><g
     id="g6153" /><g
     id="g6155" /><g
     id="g6157" /><g
     id="g6159" /><g
     id="g6161" /><g
     id="g6163" /><g
     id="g6165" /><g
     id="g6167" /><g
     id="g6169" /><g
     id="g6171" /><g
     id="g6173" /><g
     id="g6175" /></svg>