<?xml version="1.0" encoding="iso-8859-1"?>
<!-- Generator: Adobe Illustrator 19.0.0, SVG Export Plug-In . SVG Version: 6.00 Build 0)  -->
<svg version="1.1" id="Layer_1" xmlns="http://www.w3.org/2000/svg" xmlns:xlink="http://www.w3.org/1999/xlink" x="0px" y="0px"
	 viewBox="0 0 512 512" style="enable-background:new 0 0 512 512;" xml:space="preserve">
<g transform="translate(0 -1)">
	<g>
		<g>
			<path d="M179.2,239.933c-28.237,0-51.2,22.963-51.2,51.2s22.963,51.2,51.2,51.2c28.237,0,51.2-22.963,51.2-51.2
				S207.437,239.933,179.2,239.933z M204.8,299.667h-17.067v17.067c0,4.71-3.814,8.533-8.533,8.533s-8.533-3.823-8.533-8.533
				v-17.067H153.6c-4.719,0-8.533-3.823-8.533-8.533s3.814-8.533,8.533-8.533h17.067v-17.067c0-4.71,3.814-8.533,8.533-8.533
				s8.533,3.823,8.533,8.533V282.6H204.8c4.719,0,8.533,3.823,8.533,8.533S209.519,299.667,204.8,299.667z"/>
			<path d="M401.067,188.733h-76.8v-25.6c0-4.71-3.814-8.533-8.533-8.533h-51.2V68.055c14.686-3.814,25.6-17.067,25.6-32.922
				C290.133,16.309,274.825,1,256,1s-34.133,15.309-34.133,34.133c0,15.855,10.914,29.107,25.6,32.922V154.6h-51.2
				c-4.719,0-8.533,3.823-8.533,8.533v25.6h-76.8c-18.825,0-34.133,15.309-34.133,34.133v119.1l13.764,10.692
				C117.803,374.444,146.756,385,179.2,385h153.6c32.444,0,61.397-10.556,88.533-32.265l13.867-11.87V222.867
				C435.2,204.042,419.891,188.733,401.067,188.733z M179.2,359.4c-37.641,0-68.267-30.626-68.267-68.267
				s30.626-68.267,68.267-68.267c37.641,0,68.267,30.626,68.267,68.267S216.841,359.4,179.2,359.4z M332.8,359.4
				c-37.641,0-68.267-30.626-68.267-68.267s30.626-68.267,68.267-68.267c37.641,0,68.267,30.626,68.267,68.267
				S370.441,359.4,332.8,359.4z"/>
			<path d="M332.8,239.933c-28.237,0-51.2,22.963-51.2,51.2s22.963,51.2,51.2,51.2s51.2-22.963,51.2-51.2
				S361.037,239.933,332.8,239.933z M358.4,299.667h-17.067v17.067c0,4.71-3.814,8.533-8.533,8.533s-8.533-3.823-8.533-8.533
				v-17.067H307.2c-4.719,0-8.533-3.823-8.533-8.533s3.814-8.533,8.533-8.533h17.067v-17.067c0-4.71,3.814-8.533,8.533-8.533
				s8.533,3.823,8.533,8.533V282.6H358.4c4.719,0,8.533,3.823,8.533,8.533S363.119,299.667,358.4,299.667z"/>
			<path d="M332.8,402.067H179.2c-35.968,0-69.342-12.109-99.2-36.002l-3.2-2.492v115.294C76.8,497.691,92.109,513,110.933,513
				h290.133c18.825,0,34.133-15.309,34.133-34.133V363.325l-2.987,2.56C402.142,389.958,368.768,402.067,332.8,402.067z
				 M281.6,478.867h-51.2c-4.719,0-8.533-3.823-8.533-8.533s3.814-8.533,8.533-8.533h51.2c4.719,0,8.533,3.823,8.533,8.533
				S286.319,478.867,281.6,478.867z M281.6,444.733h-51.2c-4.719,0-8.533-3.823-8.533-8.533c0-4.71,3.814-8.533,8.533-8.533h51.2
				c4.719,0,8.533,3.823,8.533,8.533C290.133,440.91,286.319,444.733,281.6,444.733z"/>
		</g>
	</g>
</g>
<g>
</g>
<g>
</g>
<g>
</g>
<g>
</g>
<g>
</g>
<g>
</g>
<g>
</g>
<g>
</g>
<g>
</g>
<g>
</g>
<g>
</g>
<g>
</g>
<g>
</g>
<g>
</g>
<g>
</g>
</svg>
