<?xml version="1.0" encoding="UTF-8" standalone="no"?>
<!-- Generator: Adobe Illustrator 19.2.0, SVG Export Plug-In . SVG Version: 6.00 Build 0)  -->

<svg
   xmlns:dc="http://purl.org/dc/elements/1.1/"
   xmlns:cc="http://creativecommons.org/ns#"
   xmlns:rdf="http://www.w3.org/1999/02/22-rdf-syntax-ns#"
   xmlns:svg="http://www.w3.org/2000/svg"
   xmlns="http://www.w3.org/2000/svg"
   xmlns:sodipodi="http://sodipodi.sourceforge.net/DTD/sodipodi-0.dtd"
   xmlns:inkscape="http://www.inkscape.org/namespaces/inkscape"
   version="1.1"
   id="draw"
   x="0px"
   y="0px"
   viewBox="0 0 427.045 316.059"
   enable-background="new 0 0 427.045 316.059"
   xml:space="preserve"
   sodipodi:docname="VTOLQuadRotorTailSitter.svg"
   inkscape:version="0.92.1 r"><metadata
     id="metadata32255"><rdf:RDF><cc:Work
         rdf:about=""><dc:format>image/svg+xml</dc:format><dc:type
           rdf:resource="http://purl.org/dc/dcmitype/StillImage" /><dc:title>VTOLQuadRotorTailSitter</dc:title></cc:Work></rdf:RDF></metadata><defs
     id="defs32253" /><sodipodi:namedview
     pagecolor="#ffffff"
     bordercolor="#666666"
     borderopacity="1"
     objecttolerance="10"
     gridtolerance="10"
     guidetolerance="10"
     inkscape:pageopacity="0"
     inkscape:pageshadow="2"
     inkscape:window-width="1920"
     inkscape:window-height="1019"
     id="namedview32251"
     showgrid="false"
     inkscape:zoom="1.0559877"
     inkscape:cx="74.206468"
     inkscape:cy="134.26099"
     inkscape:window-x="1920"
     inkscape:window-y="0"
     inkscape:window-maximized="1"
     inkscape:current-layer="draw" /><title
     id="title32210">VTOLQuadRotorTailSitter</title><rect
     x="76.358"
     y="51"
     fill="#FFFFFF"
     stroke="#000000"
     stroke-miterlimit="10"
     width="6.402"
     height="103.979"
     id="rect32212" /><rect
     x="76.358"
     y="161.081"
     fill="#FFFFFF"
     stroke="#000000"
     stroke-miterlimit="10"
     width="6.402"
     height="103.979"
     id="rect32214" /><rect
     x="346.358"
     y="51"
     fill="#FFFFFF"
     stroke="#000000"
     stroke-miterlimit="10"
     width="6.402"
     height="103.979"
     id="rect32216" /><rect
     x="346.358"
     y="161.081"
     fill="#FFFFFF"
     stroke="#000000"
     stroke-miterlimit="10"
     width="6.402"
     height="103.979"
     id="rect32218" /><g
     opacity="0.8"
     id="g32222"><ellipse
       transform="matrix(0.7071 -0.7071 0.7071 0.7071 -12.7531 71.1981)"
       fill="#159E1F"
       cx="79.563"
       cy="50.993"
       rx="50.993"
       ry="51.004"
       id="ellipse32220" /></g><path
     fill="#FFFFFF"
     stroke="#000000"
     stroke-miterlimit="10"
     d="M71.622,58.915c-4.373-4.385-4.363-11.485,0.022-15.858  c4.385-4.373,11.485-4.363,15.858,0.022c4.364,4.376,4.364,11.459,0,15.835c-4.347,4.385-11.426,4.416-15.811,0.069  C71.668,58.961,71.645,58.938,71.622,58.915z"
     id="path32224" /><g
     opacity="0.8"
     id="g32228"><ellipse
       transform="matrix(0.7071 -0.7071 0.7071 0.7071 -164.1211 133.8992)"
       fill="#4EC3E8"
       cx="79.562"
       cy="265.052"
       rx="50.993"
       ry="51.004"
       id="ellipse32226" /></g><path
     fill="#FFFFFF"
     stroke="#000000"
     stroke-miterlimit="10"
     d="M87.497,257.14c4.373,4.385,4.363,11.485-0.022,15.858  c-4.385,4.373-11.485,4.363-15.858-0.022c-4.364-4.376-4.364-11.459,0-15.835c4.347-4.385,11.426-4.416,15.811-0.069  C87.451,257.094,87.474,257.117,87.497,257.14z"
     id="path32230" /><g
     opacity="0.8"
     id="g32234"><ellipse
       transform="matrix(0.7071 -0.7071 0.7071 0.7071 66.3348 262.1229)"
       fill="#4EC3E8"
       cx="349.562"
       cy="50.992"
       rx="50.993"
       ry="51.004"
       id="ellipse32232" /></g><path
     fill="#FFFFFF"
     stroke="#000000"
     stroke-miterlimit="10"
     d="M341.622,58.915c-4.373-4.385-4.363-11.485,0.022-15.858  c4.385-4.373,11.485-4.363,15.858,0.022c4.364,4.376,4.364,11.459,0,15.835c-4.347,4.385-11.426,4.416-15.811,0.069  C341.668,58.961,341.645,58.938,341.622,58.915z"
     id="path32236" /><g
     opacity="0.8"
     id="g32240"><ellipse
       transform="matrix(0.7071 -0.7071 0.7071 0.7071 -85.0329 324.8246)"
       fill="#159E1F"
       cx="349.562"
       cy="265.051"
       rx="50.993"
       ry="51.004"
       id="ellipse32238" /></g><path
     fill="#FFFFFF"
     stroke="#000000"
     stroke-miterlimit="10"
     d="M357.497,257.14c4.373,4.385,4.363,11.485-0.022,15.858  c-4.385,4.373-11.485,4.363-15.858-0.022c-4.364-4.376-4.364-11.459,0-15.835c4.347-4.385,11.426-4.416,15.811-0.069  C357.451,257.094,357.474,257.117,357.497,257.14z"
     id="path32242" /><polygon
     fill="#4EC3E8"
     stroke="#000000"
     stroke-miterlimit="10"
     points="0.5,164.626 0.5,211.162 195.882,166.778 233.752,166.778   426.545,211.162 426.545,164.626 214.476,61.325 "
     id="polygon32244" /><polygon
     fill="#159E1F"
     stroke="#000000"
     stroke-miterlimit="10"
     points="169.83,149.586 20.5,188.244 20.5,206.619 169.83,172.696   "
     id="polygon32246" /><polygon
     fill="#159E1F"
     stroke="#000000"
     stroke-miterlimit="10"
     points="260.758,149.875 410.088,188.533 410.088,207.374   260.758,172.985 "
     id="polygon32248" /><path
     sodipodi:nodetypes="cccc"
     inkscape:connector-curvature="0"
     id="path7676"
     d="m 116.92645,69.937902 c 7.20007,-7.64284 8.44151,-12.486122 9.7217,-18.99975 l -12.18689,-0.125 c 2.57083,4.089977 3.31842,10.989681 2.46519,19.12475 z"
     style="opacity:1;fill:#ffffff;fill-opacity:1;fill-rule:evenodd;stroke:none;stroke-width:1px;stroke-linecap:butt;stroke-linejoin:miter;stroke-opacity:1" /><path
     sodipodi:type="spiral"
     style="opacity:1;fill:none;fill-opacity:1;fill-rule:evenodd;stroke:#ffffec;stroke-width:2.51338577;stroke-linecap:butt;stroke-linejoin:miter;stroke-miterlimit:4;stroke-dasharray:none;stroke-opacity:1"
     id="path7711"
     sodipodi:cx="197.5222"
     sodipodi:cy="17.012539"
     sodipodi:expansion="0"
     sodipodi:revolution="8.0200005"
     sodipodi:radius="34.011444"
     sodipodi:argument="-17.855951"
     sodipodi:t0="0.99130303"
     d="m 223.94673,38.425681 c -3.13084,3.863564 -7.10954,7.019918 -11.58403,9.189766"
     transform="rotate(-64.147051,169.18099,122.42411)" /><path
     style="opacity:1;fill:#ffffff;fill-opacity:1;fill-rule:evenodd;stroke:none;stroke-width:1px;stroke-linecap:butt;stroke-linejoin:miter;stroke-opacity:1"
     d="m 40.744362,32.618545 c -7.20007,7.642839 -8.44151,12.486121 -9.7217,18.999749 l 12.18689,0.125 c -2.57083,-4.089977 -3.31842,-10.989681 -2.46519,-19.124749 z"
     id="path7831"
     inkscape:connector-curvature="0"
     sodipodi:nodetypes="cccc" /><path
     transform="rotate(115.85295,123.41936,-5.3372905)"
     d="m 223.94673,38.425681 c -3.13084,3.863564 -7.10954,7.019918 -11.58403,9.189766"
     sodipodi:t0="0.99130303"
     sodipodi:argument="-17.855951"
     sodipodi:radius="34.011444"
     sodipodi:revolution="8.0200005"
     sodipodi:expansion="0"
     sodipodi:cy="17.012539"
     sodipodi:cx="197.5222"
     id="path7833"
     style="opacity:1;fill:none;fill-opacity:1;fill-rule:evenodd;stroke:#ffffec;stroke-width:2.51338577;stroke-linecap:butt;stroke-linejoin:miter;stroke-miterlimit:4;stroke-dasharray:none;stroke-opacity:1"
     sodipodi:type="spiral" /><text
     xml:space="preserve"
     style="font-style:normal;font-variant:normal;font-weight:normal;font-stretch:normal;font-size:33.33333588px;line-height:125%;font-family:sans-serif;-inkscape-font-specification:sans-serif;letter-spacing:0px;word-spacing:0px;fill:#ffffff;fill-opacity:1;stroke:none;stroke-width:1px;stroke-linecap:butt;stroke-linejoin:miter;stroke-opacity:1"
     x="71.179237"
     y="31.184399"
     id="text7999"><tspan
       sodipodi:role="line"
       id="tspan7997"
       x="71.179237"
       y="31.184399"
       style="font-style:normal;font-variant:normal;font-weight:normal;font-stretch:normal;font-size:33.33333588px;font-family:FreeSans;-inkscape-font-specification:FreeSans;fill:#ffffff;fill-opacity:1">3</tspan></text>
<path
     style="opacity:1;fill:#ffffff;fill-opacity:1;fill-rule:evenodd;stroke:none;stroke-width:1px;stroke-linecap:butt;stroke-linejoin:miter;stroke-opacity:1"
     d="m 116.92645,69.937902 c 7.20007,-7.64284 8.44151,-12.486122 9.7217,-18.99975 l -12.18689,-0.125 c 2.57083,4.089977 3.31842,10.989681 2.46519,19.12475 z"
     id="path14492"
     inkscape:connector-curvature="0"
     sodipodi:nodetypes="cccc" /><path
     transform="rotate(-64.147051,169.18099,122.42411)"
     d="m 223.94673,38.425681 c -3.13084,3.863564 -7.10954,7.019918 -11.58403,9.189766"
     sodipodi:t0="0.99130303"
     sodipodi:argument="-17.855951"
     sodipodi:radius="34.011444"
     sodipodi:revolution="8.0200005"
     sodipodi:expansion="0"
     sodipodi:cy="17.012539"
     sodipodi:cx="197.5222"
     id="path14494"
     style="opacity:1;fill:none;fill-opacity:1;fill-rule:evenodd;stroke:#ffffec;stroke-width:2.51338577;stroke-linecap:butt;stroke-linejoin:miter;stroke-miterlimit:4;stroke-dasharray:none;stroke-opacity:1"
     sodipodi:type="spiral" /><path
     sodipodi:nodetypes="cccc"
     inkscape:connector-curvature="0"
     id="path14496"
     d="m 40.744362,32.618545 c -7.20007,7.642839 -8.44151,12.486121 -9.7217,18.999749 l 12.18689,0.125 c -2.57083,-4.089977 -3.31842,-10.989681 -2.46519,-19.124749 z"
     style="opacity:1;fill:#ffffff;fill-opacity:1;fill-rule:evenodd;stroke:none;stroke-width:1px;stroke-linecap:butt;stroke-linejoin:miter;stroke-opacity:1" /><path
     sodipodi:type="spiral"
     style="opacity:1;fill:none;fill-opacity:1;fill-rule:evenodd;stroke:#ffffec;stroke-width:2.51338577;stroke-linecap:butt;stroke-linejoin:miter;stroke-miterlimit:4;stroke-dasharray:none;stroke-opacity:1"
     id="path14498"
     sodipodi:cx="197.5222"
     sodipodi:cy="17.012539"
     sodipodi:expansion="0"
     sodipodi:revolution="8.0200005"
     sodipodi:radius="34.011444"
     sodipodi:argument="-17.855951"
     sodipodi:t0="0.99130303"
     d="m 223.94673,38.425681 c -3.13084,3.863564 -7.10954,7.019918 -11.58403,9.189766"
     transform="rotate(115.85295,123.41936,-5.3372905)" /><g
     aria-label="3"
     style="font-style:normal;font-variant:normal;font-weight:normal;font-stretch:normal;font-size:33.33333588px;line-height:125%;font-family:sans-serif;-inkscape-font-specification:sans-serif;letter-spacing:0px;word-spacing:0px;fill:#ffffff;fill-opacity:1;stroke:none;stroke-width:1px;stroke-linecap:butt;stroke-linejoin:miter;stroke-opacity:1"
     id="text14502"><path
       d="m 80.179238,10.11773 q -3.8,0 -4.4,3.666667 -0.06667,0.633334 -0.1,1.4 h -2.933334 q 0.133333,-7.0000001 6.333334,-7.6000001 0.533333,-0.033333 1.066667,-0.033333 4.666667,0 6.4,3.1333335 0.8,1.466667 0.8,3.366667 -0.03333,3.6 -3.3,4.9 3.1,1.066667 3.766667,3.600001 0.233333,0.9 0.233333,2.033333 0,4.1 -3.133333,6.100001 -2.033334,1.266666 -4.866667,1.266666 -6.533334,0 -7.633334,-6.133333 -0.1,-0.733334 -0.166667,-1.500001 h 2.933334 q 0.266666,4.400001 3.766667,4.933334 0.566666,0.1 1.2,0.1 3.466667,0 4.533333,-2.633333 0.366667,-0.966667 0.366667,-2.100001 -0.06667,-4.266667 -4.9,-4.3 l -1.233334,0.03333 h -0.366666 v -2.5 q 3.766667,-0.06667 4.9,-1.1 0.9,-0.866667 0.9,-2.6 0,-2.833334 -2.333333,-3.733334 -0.833334,-0.3 -1.833334,-0.3 z"
       style="font-style:normal;font-variant:normal;font-weight:normal;font-stretch:normal;font-size:33.33333588px;font-family:FreeSans;-inkscape-font-specification:FreeSans;fill:#ffffff;fill-opacity:1"
       id="path33062" /></g><path
     sodipodi:nodetypes="cccc"
     inkscape:connector-curvature="0"
     id="path7676-2"
     d="m 387.15958,284.21928 c 7.20007,-7.64284 8.44151,-12.48612 9.7217,-18.99975 l -12.18689,-0.125 c 2.57083,4.08998 3.31842,10.98968 2.46519,19.12475 z"
     style="opacity:1;fill:#ffffff;fill-opacity:1;fill-rule:evenodd;stroke:none;stroke-width:1px;stroke-linecap:butt;stroke-linejoin:miter;stroke-opacity:1" /><path
     sodipodi:type="spiral"
     style="opacity:1;fill:none;fill-opacity:1;fill-rule:evenodd;stroke:#ffffec;stroke-width:2.51338577;stroke-linecap:butt;stroke-linejoin:miter;stroke-miterlimit:4;stroke-dasharray:none;stroke-opacity:1"
     id="path7711-9"
     sodipodi:cx="197.5222"
     sodipodi:cy="17.012539"
     sodipodi:expansion="0"
     sodipodi:revolution="8.0200005"
     sodipodi:radius="34.011444"
     sodipodi:argument="-17.855951"
     sodipodi:t0="0.99130303"
     d="m 223.94673,38.425681 c -3.13084,3.863564 -7.10954,7.019918 -11.58403,9.189766"
     transform="rotate(-64.147051,475.26989,13.949295)" /><path
     style="opacity:1;fill:#ffffff;fill-opacity:1;fill-rule:evenodd;stroke:none;stroke-width:1px;stroke-linecap:butt;stroke-linejoin:miter;stroke-opacity:1"
     d="m 310.9775,246.89992 c -7.20007,7.64284 -8.44151,12.48612 -9.7217,18.99975 l 12.18689,0.125 c -2.57083,-4.08998 -3.31842,-10.98968 -2.46519,-19.12475 z"
     id="path7831-7"
     inkscape:connector-curvature="0"
     sodipodi:nodetypes="cccc" /><path
     transform="rotate(115.85295,191.39567,186.47488)"
     d="m 223.94673,38.425681 c -3.13084,3.863564 -7.10954,7.019918 -11.58403,9.189766"
     sodipodi:t0="0.99130303"
     sodipodi:argument="-17.855951"
     sodipodi:radius="34.011444"
     sodipodi:revolution="8.0200005"
     sodipodi:expansion="0"
     sodipodi:cy="17.012539"
     sodipodi:cx="197.5222"
     id="path7833-9"
     style="opacity:1;fill:none;fill-opacity:1;fill-rule:evenodd;stroke:#ffffec;stroke-width:2.51338577;stroke-linecap:butt;stroke-linejoin:miter;stroke-miterlimit:4;stroke-dasharray:none;stroke-opacity:1"
     sodipodi:type="spiral" /><g
     aria-label="4"
     style="font-style:normal;font-variant:normal;font-weight:normal;font-stretch:normal;font-size:33.33333588px;line-height:125%;font-family:sans-serif;-inkscape-font-specification:sans-serif;letter-spacing:0px;word-spacing:0px;fill:#ffffff;fill-opacity:1;stroke:none;stroke-width:1px;stroke-linecap:butt;stroke-linejoin:miter;stroke-opacity:1"
     id="text7999-0"><path
       d="m 351.87528,304.05321 h -9.96667 v -3.1 l 10.73334,-14.86667 h 2.16667 v 15.33334 h 3.5 v 2.63333 h -3.5 v 5.66667 h -2.93334 z m 0,-2.63333 v -10.33334 l -7.4,10.33334 z"
       style="font-style:normal;font-variant:normal;font-weight:normal;font-stretch:normal;font-size:33.33333588px;font-family:FreeSans;-inkscape-font-specification:FreeSans;fill:#ffffff;fill-opacity:1"
       id="path33056" /></g><path
     style="opacity:1;fill:#ffffff;fill-opacity:1;fill-rule:evenodd;stroke:none;stroke-width:1px;stroke-linecap:butt;stroke-linejoin:miter;stroke-opacity:1"
     d="m 310.19247,69.245268 c -7.20006,-7.64284 -8.4415,-12.48612 -9.72169,-18.99975 l 12.18688,-0.125 c -2.57083,4.08998 -3.31842,10.98968 -2.46519,19.12475 z"
     id="path7870"
     inkscape:connector-curvature="0"
     sodipodi:nodetypes="cccc" /><path
     transform="matrix(-0.43606293,-0.89991617,-0.89991617,0.43606293,441.88296,220.59557)"
     d="m 223.94673,38.425681 c -3.13084,3.863564 -7.10954,7.019918 -11.58403,9.189766"
     sodipodi:t0="0.99130303"
     sodipodi:argument="-17.855951"
     sodipodi:radius="34.011444"
     sodipodi:revolution="8.0200005"
     sodipodi:expansion="0"
     sodipodi:cy="17.012539"
     sodipodi:cx="197.5222"
     id="path7872"
     style="opacity:1;fill:none;fill-opacity:1;fill-rule:evenodd;stroke:#ffffec;stroke-width:2.51338577;stroke-linecap:butt;stroke-linejoin:miter;stroke-miterlimit:4;stroke-dasharray:none;stroke-opacity:1"
     sodipodi:type="spiral" /><path
     sodipodi:nodetypes="cccc"
     inkscape:connector-curvature="0"
     id="path7874"
     d="m 386.37456,31.925908 c 7.20007,7.64284 8.44151,12.48613 9.7217,18.99975 l -12.18689,0.125 c 2.57083,-4.08997 3.31842,-10.98968 2.46519,-19.12475 z"
     style="opacity:1;fill:#ffffff;fill-opacity:1;fill-rule:evenodd;stroke:none;stroke-width:1px;stroke-linecap:butt;stroke-linejoin:miter;stroke-opacity:1" /><path
     sodipodi:type="spiral"
     style="opacity:1;fill:none;fill-opacity:1;fill-rule:evenodd;stroke:#ffffec;stroke-width:2.51338577;stroke-linecap:butt;stroke-linejoin:miter;stroke-miterlimit:4;stroke-dasharray:none;stroke-opacity:1"
     id="path7876"
     sodipodi:cx="197.5222"
     sodipodi:cy="17.012539"
     sodipodi:expansion="0"
     sodipodi:revolution="8.0200005"
     sodipodi:radius="34.011444"
     sodipodi:argument="-17.855951"
     sodipodi:t0="0.99130303"
     d="m 223.94673,38.425681 c -3.13084,3.863564 -7.10954,7.019918 -11.58403,9.189766"
     transform="matrix(0.43606294,0.89991617,0.89991617,-0.43606294,254.68409,-119.4244)" /><g
     aria-label="1"
     style="font-style:normal;font-variant:normal;font-weight:normal;font-stretch:normal;font-size:33.33333588px;line-height:125%;font-family:sans-serif;-inkscape-font-specification:sans-serif;letter-spacing:0px;word-spacing:0px;fill:#ffffff;fill-opacity:1;stroke:none;stroke-width:1px;stroke-linecap:butt;stroke-linejoin:miter;stroke-opacity:1"
     id="text7991"><path
       d="m 350.01749,12.777877 h -5.23333 v -2.1 q 3.4,-0.433333 4.4,-1.2000001 1,-0.7333334 1.7,-3.1000002 0.0667,-0.2 0.13333,-0.4000001 h 1.93333 V 29.611212 h -2.93333 z"
       style="font-style:normal;font-variant:normal;font-weight:normal;font-stretch:normal;font-size:33.33333588px;font-family:FreeSans;-inkscape-font-specification:FreeSans;fill:#ffffff;fill-opacity:1"
       id="path33059" /></g><path
     style="opacity:1;fill:#ffffff;fill-opacity:1;fill-rule:evenodd;stroke:none;stroke-width:1px;stroke-linecap:butt;stroke-linejoin:miter;stroke-opacity:1"
     d="m 40.323721,283.37746 c -7.20008,-7.64284 -8.44152,-12.48612 -9.72171,-18.99975 l 12.1869,-0.125 c -2.57083,4.08998 -3.31842,10.98968 -2.46519,19.12475 z"
     id="path7870-5"
     inkscape:connector-curvature="0"
     sodipodi:nodetypes="cccc" /><path
     transform="matrix(-0.43606293,-0.89991617,-0.89991617,0.43606293,172.01419,434.72777)"
     d="m 223.94673,38.425681 c -3.13084,3.863564 -7.10954,7.019918 -11.58403,9.189766"
     sodipodi:t0="0.99130303"
     sodipodi:argument="-17.855951"
     sodipodi:radius="34.011444"
     sodipodi:revolution="8.0200005"
     sodipodi:expansion="0"
     sodipodi:cy="17.012539"
     sodipodi:cx="197.5222"
     id="path7872-2"
     style="opacity:1;fill:none;fill-opacity:1;fill-rule:evenodd;stroke:#ffffec;stroke-width:2.51338577;stroke-linecap:butt;stroke-linejoin:miter;stroke-miterlimit:4;stroke-dasharray:none;stroke-opacity:1"
     sodipodi:type="spiral" /><path
     sodipodi:nodetypes="cccc"
     inkscape:connector-curvature="0"
     id="path7874-1"
     d="m 116.50581,246.0581 c 7.20007,7.64284 8.44151,12.48613 9.7217,18.99975 l -12.18689,0.125 c 2.57083,-4.08997 3.31842,-10.98968 2.46519,-19.12475 z"
     style="opacity:1;fill:#ffffff;fill-opacity:1;fill-rule:evenodd;stroke:none;stroke-width:1px;stroke-linecap:butt;stroke-linejoin:miter;stroke-opacity:1" /><path
     sodipodi:type="spiral"
     style="opacity:1;fill:none;fill-opacity:1;fill-rule:evenodd;stroke:#ffffec;stroke-width:2.51338577;stroke-linecap:butt;stroke-linejoin:miter;stroke-miterlimit:4;stroke-dasharray:none;stroke-opacity:1"
     id="path7876-6"
     sodipodi:cx="197.5222"
     sodipodi:cy="17.012539"
     sodipodi:expansion="0"
     sodipodi:revolution="8.0200005"
     sodipodi:radius="34.011444"
     sodipodi:argument="-17.855951"
     sodipodi:t0="0.99130303"
     d="m 223.94673,38.425681 c -3.13084,3.863564 -7.10954,7.019918 -11.58403,9.189766"
     transform="matrix(0.43606294,0.89991617,0.89991617,-0.43606294,-15.184669,94.707806)" /><g
     aria-label="2"
     style="font-style:normal;font-variant:normal;font-weight:normal;font-stretch:normal;font-size:33.33333588px;line-height:125%;font-family:sans-serif;-inkscape-font-specification:sans-serif;letter-spacing:0px;word-spacing:0px;fill:#ffffff;fill-opacity:1;stroke:none;stroke-width:1px;stroke-linecap:butt;stroke-linejoin:miter;stroke-opacity:1"
     id="text7991-1"><path
       d="m 72.482684,293.93465 q 0.266667,-8.16667 7.800001,-8.2 4.033333,0 6.166667,2.66666 1.4,1.83334 1.4,4.26667 -0.03333,4.4 -5.000001,7.13333 l -3.333333,1.8 q -3.1,1.66667 -3.9,3.53334 -0.266667,0.6 -0.366667,1.33333 h 12.433334 v 2.9 H 71.949351 q 0.233333,-4.26667 1.9,-6.5 1.433333,-1.86667 4.733333,-3.73333 l 3.066667,-1.73334 q 3.166667,-1.86666 3.200001,-4.66666 0,-2.4 -2.000001,-3.7 -1.166666,-0.73334 -2.666666,-0.73334 -4.366667,0 -4.766667,5.43334 0,0.1 0,0.2 z"
       style="font-style:normal;font-variant:normal;font-weight:normal;font-stretch:normal;font-size:33.33333588px;font-family:FreeSans;-inkscape-font-specification:FreeSans;fill:#ffffff;fill-opacity:1"
       id="path33053" /></g></svg>