<?xml version="1.0" encoding="UTF-8" standalone="no"?>
<!-- Generator: Adobe Illustrator 19.2.0, SVG Export Plug-In . SVG Version: 6.00 Build 0)  -->

<svg
   xmlns:dc="http://purl.org/dc/elements/1.1/"
   xmlns:cc="http://creativecommons.org/ns#"
   xmlns:rdf="http://www.w3.org/1999/02/22-rdf-syntax-ns#"
   xmlns:svg="http://www.w3.org/2000/svg"
   xmlns="http://www.w3.org/2000/svg"
   xmlns:sodipodi="http://sodipodi.sourceforge.net/DTD/sodipodi-0.dtd"
   xmlns:inkscape="http://www.inkscape.org/namespaces/inkscape"
   version="1.1"
   id="draw"
   x="0px"
   y="0px"
   viewBox="0 0 162 331.846"
   enable-background="new 0 0 162 331.846"
   xml:space="preserve"
   sodipodi:docname="HelicopterCoaxial.svg"
   inkscape:version="0.92.1 r"><metadata
     id="metadata11127"><rdf:RDF><cc:Work
         rdf:about=""><dc:format>image/svg+xml</dc:format><dc:type
           rdf:resource="http://purl.org/dc/dcmitype/StillImage" /><dc:title>HelicopterCoaxial</dc:title></cc:Work></rdf:RDF></metadata><defs
     id="defs11125" /><sodipodi:namedview
     pagecolor="#ffffff"
     bordercolor="#666666"
     borderopacity="1"
     objecttolerance="10"
     gridtolerance="10"
     guidetolerance="10"
     inkscape:pageopacity="0"
     inkscape:pageshadow="2"
     inkscape:window-width="1920"
     inkscape:window-height="1019"
     id="namedview11123"
     showgrid="false"
     inkscape:zoom="1.4223465"
     inkscape:cx="2.357704"
     inkscape:cy="257.33602"
     inkscape:window-x="1920"
     inkscape:window-y="0"
     inkscape:window-maximized="1"
     inkscape:current-layer="draw" /><title
     id="title11098">HelicopterCoaxial</title><rect
     x="129.876"
     y="54.897"
     fill="#4EC3E8"
     stroke="#000000"
     stroke-linecap="round"
     stroke-linejoin="round"
     width="7"
     height="89.242"
     id="rect11100" /><rect
     x="22.876"
     y="54.897"
     fill="#4EC3E8"
     stroke="#000000"
     stroke-linecap="round"
     stroke-linejoin="round"
     width="7"
     height="89.242"
     id="rect11102" /><rect
     x="29.876"
     y="63.897"
     fill="#4EC3E8"
     stroke="#000000"
     stroke-linecap="round"
     stroke-linejoin="round"
     width="100"
     height="5"
     id="rect11104" /><rect
     x="29.876"
     y="130.139"
     fill="#4EC3E8"
     stroke="#000000"
     stroke-linecap="round"
     stroke-linejoin="round"
     width="100"
     height="5"
     id="rect11106" /><path
     fill="#4EC3E8"
     stroke="#000000"
     stroke-linecap="round"
     stroke-linejoin="round"
     d="M85,331.344  c4.938,0,4.463-6.183,4.463-6.183v-34.2c0,0,33.037,4,39.287,4c2.055,0.213,3.892-1.281,4.105-3.335  c0.03-0.29,0.026-0.583-0.012-0.872v-14.34c0-3.343-4.093-3.093-4.093-3.093l-39.283-4v-62.562c0-16.083,1.7-16.817,2.977-19.049  c0.843-1.477,27.941-30.738,27.941-30.738V47.759C120.385,0.509,80,0.5,80,0.5S39.615,0.509,39.615,47.759v109.213  c0,0,27.1,29.262,27.941,30.738c1.274,2.232,2.977,2.966,2.977,19.049v62.562l-39.283,4c0,0-4.093-0.249-4.093,3.093v14.345  c-0.269,2.048,1.173,3.926,3.221,4.195c0.289,0.038,0.582,0.042,0.872,0.012c6.25,0,39.287-4,39.287-4v34.2  c0,0-0.475,6.183,4.463,6.183h10V331.344z"
     id="path11108" /><path
     fill="#FFFFFF"
     stroke="#000000"
     stroke-miterlimit="10"
     d="M111.671,37.077c0-28.669-31.67-28.675-31.67-28.675  s-31.67,0.005-31.67,28.675h63.341H111.671z"
     id="path11110" /><g
     id="g11118"
     transform="translate(0,46)"
     style="opacity:0.8"><ellipse
       transform="matrix(0.7091,-0.7051,0.7051,0.7091,-69.5208,95.5225)"
       cx="80.999001"
       cy="132.011"
       rx="80.988998"
       ry="81.005997"
       id="ellipse11116"
       style="fill:#159e1f" /></g><g
     style="opacity:0.8"
     transform="translate(0,-30.402196)"
     id="g11698"><ellipse
       style="fill:#4ec3e8"
       id="ellipse11696"
       ry="81.005997"
       rx="80.988998"
       cy="162.01199"
       cx="80.999001"
       transform="matrix(0.7091,-0.7051,0.7051,0.7091,-90.676,104.2502)" /></g><path
     fill="#FFFFFF"
     stroke="#000000"
     stroke-miterlimit="10"
     d="M87.944,123.116c-4.374-4.384-11.473-4.393-15.858-0.02  c-4.384,4.374-4.393,11.473-0.02,15.857c4.365,4.376,11.447,4.395,15.835,0.042c4.396-4.335,4.446-11.414,0.111-15.811  C87.99,123.162,87.967,123.139,87.944,123.116z"
     id="path11120" /><path
     sodipodi:nodetypes="cccc"
     inkscape:connector-curvature="0"
     id="path7676"
     d="m 106.26636,239.38883 c 16.6811,-0.49761 23.51936,-4.54552 32.2784,-10.42708 l -13.55568,-13.83663 c -1.70727,7.4857 -8.62129,16.08006 -18.72272,24.26371 z"
     style="opacity:1;fill:#ffffff;fill-opacity:1;fill-rule:evenodd;stroke:none;stroke-width:1.58935368px;stroke-linecap:butt;stroke-linejoin:miter;stroke-opacity:1" /><path
     sodipodi:type="spiral"
     style="opacity:1;fill:none;fill-opacity:1;fill-rule:evenodd;stroke:#ffffec;stroke-width:2.51338577;stroke-linecap:butt;stroke-linejoin:miter;stroke-miterlimit:4;stroke-dasharray:none;stroke-opacity:1"
     id="path7711"
     sodipodi:cx="197.5222"
     sodipodi:cy="17.012539"
     sodipodi:expansion="0"
     sodipodi:revolution="8.0200005"
     sodipodi:radius="34.011444"
     sodipodi:argument="-17.855951"
     sodipodi:t0="0.99130303"
     d="m 223.94673,38.425681 c -3.13084,3.863564 -7.10954,7.019918 -11.58403,9.189766"
     transform="matrix(1.5014305,-0.52129812,0.52129812,1.5014305,-211.82696,261.4834)" /><path
     style="opacity:1;fill:#ffffff;fill-opacity:1;fill-rule:evenodd;stroke:none;stroke-width:1.58935368px;stroke-linecap:butt;stroke-linejoin:miter;stroke-opacity:1"
     d="m 15.555147,198.34491 c 0.497606,16.6811 4.545505,23.51936 10.427067,32.27839 l 13.83663,-13.55567 c -7.4857,-1.70728 -16.080049,-8.62128 -24.263697,-18.72272 z"
     id="path7831"
     inkscape:connector-curvature="0"
     sodipodi:nodetypes="cccc" /><path
     transform="matrix(0.5212981,1.5014305,-1.5014305,0.5212981,-6.5394098,-119.74843)"
     d="m 223.94673,38.425681 c -3.13084,3.863564 -7.10954,7.019918 -11.58403,9.189766"
     sodipodi:t0="0.99130303"
     sodipodi:argument="-17.855951"
     sodipodi:radius="34.011444"
     sodipodi:revolution="8.0200005"
     sodipodi:expansion="0"
     sodipodi:cy="17.012539"
     sodipodi:cx="197.5222"
     id="path7833"
     style="opacity:1;fill:none;fill-opacity:1;fill-rule:evenodd;stroke:#ffffec;stroke-width:2.51338577;stroke-linecap:butt;stroke-linejoin:miter;stroke-miterlimit:4;stroke-dasharray:none;stroke-opacity:1"
     sodipodi:type="spiral" /><g
     aria-label="3"
     style="font-style:normal;font-variant:normal;font-weight:normal;font-stretch:normal;font-size:52.97846222px;line-height:125%;font-family:sans-serif;-inkscape-font-specification:sans-serif;letter-spacing:0px;word-spacing:0px;fill:#ffffff;fill-opacity:1;stroke:none;stroke-width:1.58935368px;stroke-linecap:butt;stroke-linejoin:miter;stroke-opacity:1"
     id="text7999"><path
       d="m 82.129792,67.709491 q -6.039545,0 -6.993157,5.827631 -0.105957,1.006591 -0.158935,2.225095 h -4.662105 q 0.211914,-11.125477 10.065908,-12.079089 0.847655,-0.05298 1.695311,-0.05298 7.416984,0 10.171864,4.979975 1.271483,2.331052 1.271483,5.350825 -0.05298,5.721674 -5.244867,7.787834 4.926997,1.69531 5.986566,5.721674 0.370849,1.430418 0.370849,3.231686 0,6.516351 -4.979975,9.695056 -3.231686,2.01318 -7.734856,2.01318 -10.383778,0 -12.132068,-9.748033 -0.158935,-1.165526 -0.264892,-2.384031 h 4.662105 q 0.423827,6.993157 5.986566,7.840812 0.900634,0.158936 1.907225,0.158936 5.50976,0 7.20507,-4.185299 0.582764,-1.536375 0.582764,-3.337643 -0.105957,-6.781243 -7.787834,-6.834221 l -1.960203,0.05298 h -0.582764 v -3.973385 q 5.986567,-0.105957 7.787834,-1.748289 1.430419,-1.37744 1.430419,-4.13232 0,-4.503169 -3.708492,-5.933588 -1.324462,-0.476806 -2.913816,-0.476806 z"
       style="font-style:normal;font-variant:normal;font-weight:normal;font-stretch:normal;font-size:52.97846222px;font-family:FreeSans;-inkscape-font-specification:FreeSans;fill:#ffffff;fill-opacity:1;stroke-width:1.58935368px"
       id="path11775" /></g><g
     aria-label="4"
     style="font-style:normal;font-variant:normal;font-weight:normal;font-stretch:normal;font-size:52.97846222px;line-height:125%;font-family:sans-serif;-inkscape-font-specification:sans-serif;letter-spacing:0px;word-spacing:0px;fill:#ffffff;fill-opacity:1;stroke:none;stroke-width:1.58935368px;stroke-linecap:butt;stroke-linejoin:miter;stroke-opacity:1"
     id="text11694"><path
       d="M 83.040373,244.57987 H 67.199812 v -4.92699 l 17.059065,-23.6284 h 3.4436 v 24.3701 h 5.562739 v 4.18529 h -5.562739 v 9.00634 h -4.662104 z m 0,-4.18529 v -16.42333 l -11.761219,16.42333 z"
       style="font-style:normal;font-variant:normal;font-weight:normal;font-stretch:normal;font-size:52.97846222px;font-family:FreeSans;-inkscape-font-specification:FreeSans;fill:#ffffff;fill-opacity:1;stroke-width:1.58935368px"
       id="path11778" /></g><path
     style="opacity:1;fill:#ffffff;fill-opacity:1;fill-rule:evenodd;stroke:none;stroke-width:1.58935297px;stroke-linecap:butt;stroke-linejoin:miter;stroke-opacity:1"
     d="M 20.489942,164.25383 C 9.0464922,152.10666 7.0734022,144.40898 5.0387322,134.05653 l 19.3692698,-0.19867 c -4.08596,6.50042 -5.27414,17.46648 -3.91806,30.39597 z"
     id="path7870"
     inkscape:connector-curvature="0"
     sodipodi:nodetypes="cccc" /><path
     transform="matrix(-0.69305791,-1.4302844,-1.4302844,0.69305791,229.7926,404.80289)"
     d="m 223.94673,38.425681 c -3.13084,3.863564 -7.10954,7.019918 -11.58403,9.189766"
     sodipodi:t0="0.99130303"
     sodipodi:argument="-17.855951"
     sodipodi:radius="34.011444"
     sodipodi:revolution="8.0200005"
     sodipodi:expansion="0"
     sodipodi:cy="17.012539"
     sodipodi:cx="197.5222"
     id="path7872"
     style="opacity:1;fill:none;fill-opacity:1;fill-rule:evenodd;stroke:#ffffec;stroke-width:2.51338577;stroke-linecap:butt;stroke-linejoin:miter;stroke-miterlimit:4;stroke-dasharray:none;stroke-opacity:1"
     sodipodi:type="spiral" /><path
     sodipodi:nodetypes="cccc"
     inkscape:connector-curvature="0"
     id="path7874"
     d="m 141.57017,104.9402 c 11.44345,12.14717 13.41654,19.84487 15.45121,30.19731 l -19.36927,0.19867 c 4.08596,-6.50041 5.27415,-17.46648 3.91806,-30.39598 z"
     style="opacity:1;fill:#ffffff;fill-opacity:1;fill-rule:evenodd;stroke:none;stroke-width:1.58935297px;stroke-linecap:butt;stroke-linejoin:miter;stroke-opacity:1" /><path
     sodipodi:type="spiral"
     style="opacity:1;fill:none;fill-opacity:1;fill-rule:evenodd;stroke:#ffffec;stroke-width:2.51338577;stroke-linecap:butt;stroke-linejoin:miter;stroke-miterlimit:4;stroke-dasharray:none;stroke-opacity:1"
     id="path7876"
     sodipodi:cx="197.5222"
     sodipodi:cy="17.012539"
     sodipodi:expansion="0"
     sodipodi:revolution="8.0200005"
     sodipodi:radius="34.011444"
     sodipodi:argument="-17.855951"
     sodipodi:t0="0.99130303"
     d="m 223.94673,38.425681 c -3.13084,3.863564 -7.10954,7.019918 -11.58403,9.189766"
     transform="matrix(0.69305792,1.4302844,1.4302844,-0.69305792,-67.732456,-135.60884)" /></svg>