<?xml version="1.0" encoding="UTF-8" standalone="no"?>
<!-- Generator: Adobe Illustrator 19.2.0, SVG Export Plug-In . SVG Version: 6.00 Build 0)  -->

<svg
   xmlns:dc="http://purl.org/dc/elements/1.1/"
   xmlns:cc="http://creativecommons.org/ns#"
   xmlns:rdf="http://www.w3.org/1999/02/22-rdf-syntax-ns#"
   xmlns:svg="http://www.w3.org/2000/svg"
   xmlns="http://www.w3.org/2000/svg"
   xmlns:sodipodi="http://sodipodi.sourceforge.net/DTD/sodipodi-0.dtd"
   xmlns:inkscape="http://www.inkscape.org/namespaces/inkscape"
   version="1.1"
   id="draw"
   x="0px"
   y="0px"
   viewBox="0 0 427.045 211.791"
   enable-background="new 0 0 427.045 211.791"
   xml:space="preserve"
   sodipodi:docname="VTOLDuoRotorTailSitter.svg"
   inkscape:version="0.92.1 r"><metadata
     id="metadata29505"><rdf:RDF><cc:Work
         rdf:about=""><dc:format>image/svg+xml</dc:format><dc:type
           rdf:resource="http://purl.org/dc/dcmitype/StillImage" /><dc:title>VTOLDuoRotorTailSitter</dc:title></cc:Work></rdf:RDF></metadata><defs
     id="defs29503" /><sodipodi:namedview
     pagecolor="#ffffff"
     bordercolor="#666666"
     borderopacity="1"
     objecttolerance="10"
     gridtolerance="10"
     guidetolerance="10"
     inkscape:pageopacity="0"
     inkscape:pageshadow="2"
     inkscape:window-width="1920"
     inkscape:window-height="1019"
     id="namedview29501"
     showgrid="false"
     inkscape:zoom="1.5642379"
     inkscape:cx="149.56672"
     inkscape:cy="155.69333"
     inkscape:window-x="1920"
     inkscape:window-y="0"
     inkscape:window-maximized="1"
     inkscape:current-layer="draw" /><title
     id="title29476">VTOLDuoRotorTailSitter</title><rect
     x="76.358"
     y="51"
     fill="#FFFFFF"
     stroke="#000000"
     stroke-miterlimit="10"
     width="6.402"
     height="103.979"
     id="rect29478" /><rect
     x="346.358"
     y="51"
     fill="#FFFFFF"
     stroke="#000000"
     stroke-miterlimit="10"
     width="6.402"
     height="103.979"
     id="rect29480" /><g
     opacity="0.8"
     id="g29484"><ellipse
       transform="matrix(0.7071 -0.7071 0.7071 0.7071 -12.753 71.1993)"
       fill="#4EC3E8"
       cx="79.564"
       cy="50.993"
       rx="50.993"
       ry="51.004"
       id="ellipse29482" /></g><path
     fill="#FFFFFF"
     stroke="#000000"
     stroke-miterlimit="10"
     d="M71.621,58.918c-4.373-4.385-4.363-11.485,0.022-15.858  c4.385-4.373,11.485-4.363,15.858,0.022c4.364,4.376,4.364,11.459,0,15.835c-4.347,4.385-11.426,4.416-15.811,0.069  C71.667,58.964,71.644,58.941,71.621,58.918z"
     id="path29486" /><g
     opacity="0.8"
     id="g29490"><ellipse
       transform="matrix(0.7071 -0.7071 0.7071 0.7071 66.3349 262.1242)"
       fill="#159E1F"
       cx="349.564"
       cy="50.993"
       rx="50.993"
       ry="51.004"
       id="ellipse29488" /></g><path
     fill="#FFFFFF"
     stroke="#000000"
     stroke-miterlimit="10"
     d="M341.621,58.918c-4.373-4.385-4.363-11.485,0.022-15.858  c4.385-4.373,11.485-4.363,15.858,0.022c4.364,4.376,4.364,11.459,0,15.835c-4.347,4.385-11.426,4.416-15.811,0.069  C341.667,58.964,341.644,58.941,341.621,58.918z"
     id="path29492" /><polygon
     fill="#4EC3E8"
     stroke="#000000"
     stroke-miterlimit="10"
     points="0.5,164.626 0.5,211.162 195.882,166.778 233.752,166.778   426.545,211.162 426.545,164.626 214.476,61.325 "
     id="polygon29494" /><polygon
     fill="#159E1F"
     stroke="#000000"
     stroke-miterlimit="10"
     points="169.83,149.586 20.5,188.244 20.5,206.619 169.83,172.696   "
     id="polygon29496" /><polygon
     fill="#159E1F"
     stroke="#000000"
     stroke-miterlimit="10"
     points="260.758,149.875 410.088,188.533 410.088,207.374   260.758,172.985 "
     id="polygon29498" /><path
     sodipodi:nodetypes="cccc"
     inkscape:connector-curvature="0"
     id="path7676"
     d="m 387.33268,69.734167 c 7.20007,-7.642839 8.44151,-12.486121 9.7217,-18.99975 l -12.18689,-0.125 c 2.57083,4.089978 3.31842,10.989682 2.46519,19.12475 z"
     style="opacity:1;fill:#ffffff;fill-opacity:1;fill-rule:evenodd;stroke:none;stroke-width:1px;stroke-linecap:butt;stroke-linejoin:miter;stroke-opacity:1" /><path
     sodipodi:type="spiral"
     style="opacity:1;fill:none;fill-opacity:1;fill-rule:evenodd;stroke:#ffffec;stroke-width:2.51338577;stroke-linecap:butt;stroke-linejoin:miter;stroke-miterlimit:4;stroke-dasharray:none;stroke-opacity:1"
     id="path7711"
     sodipodi:cx="197.5222"
     sodipodi:cy="17.012539"
     sodipodi:expansion="0"
     sodipodi:revolution="8.0200005"
     sodipodi:radius="34.011444"
     sodipodi:argument="-17.855951"
     sodipodi:t0="0.99130303"
     d="m 223.94673,38.425681 c -3.13084,3.863564 -7.10954,7.019918 -11.58403,9.189766"
     transform="rotate(-64.147051,304.22154,-93.431381)" /><path
     style="opacity:1;fill:#ffffff;fill-opacity:1;fill-rule:evenodd;stroke:none;stroke-width:1px;stroke-linecap:butt;stroke-linejoin:miter;stroke-opacity:1"
     d="m 311.15059,32.41481 c -7.20007,7.642839 -8.44151,12.486121 -9.7217,18.999749 l 12.18689,0.125 c -2.57083,-4.089977 -3.31842,-10.989681 -2.46519,-19.124749 z"
     id="path7831"
     inkscape:connector-curvature="0"
     sodipodi:nodetypes="cccc" /><path
     transform="rotate(115.85295,258.68631,79.286564)"
     d="m 223.94673,38.425681 c -3.13084,3.863564 -7.10954,7.019918 -11.58403,9.189766"
     sodipodi:t0="0.99130303"
     sodipodi:argument="-17.855951"
     sodipodi:radius="34.011444"
     sodipodi:revolution="8.0200005"
     sodipodi:expansion="0"
     sodipodi:cy="17.012539"
     sodipodi:cx="197.5222"
     id="path7833"
     style="opacity:1;fill:none;fill-opacity:1;fill-rule:evenodd;stroke:#ffffec;stroke-width:2.51338577;stroke-linecap:butt;stroke-linejoin:miter;stroke-miterlimit:4;stroke-dasharray:none;stroke-opacity:1"
     sodipodi:type="spiral" /><path
     style="opacity:1;fill:#ffffff;fill-opacity:1;fill-rule:evenodd;stroke:none;stroke-width:1px;stroke-linecap:butt;stroke-linejoin:miter;stroke-opacity:1"
     d="m 387.33268,69.734167 c 7.20007,-7.642839 8.44151,-12.486121 9.7217,-18.99975 l -12.18689,-0.125 c 2.57083,4.089978 3.31842,10.989682 2.46519,19.12475 z"
     id="path14492"
     inkscape:connector-curvature="0"
     sodipodi:nodetypes="cccc" /><path
     transform="rotate(-64.147051,304.22154,-93.431381)"
     d="m 223.94673,38.425681 c -3.13084,3.863564 -7.10954,7.019918 -11.58403,9.189766"
     sodipodi:t0="0.99130303"
     sodipodi:argument="-17.855951"
     sodipodi:radius="34.011444"
     sodipodi:revolution="8.0200005"
     sodipodi:expansion="0"
     sodipodi:cy="17.012539"
     sodipodi:cx="197.5222"
     id="path14494"
     style="opacity:1;fill:none;fill-opacity:1;fill-rule:evenodd;stroke:#ffffec;stroke-width:2.51338577;stroke-linecap:butt;stroke-linejoin:miter;stroke-miterlimit:4;stroke-dasharray:none;stroke-opacity:1"
     sodipodi:type="spiral" /><path
     sodipodi:nodetypes="cccc"
     inkscape:connector-curvature="0"
     id="path14496"
     d="m 311.15059,32.41481 c -7.20007,7.642839 -8.44151,12.486121 -9.7217,18.999749 l 12.18689,0.125 c -2.57083,-4.089977 -3.31842,-10.989681 -2.46519,-19.124749 z"
     style="opacity:1;fill:#ffffff;fill-opacity:1;fill-rule:evenodd;stroke:none;stroke-width:1px;stroke-linecap:butt;stroke-linejoin:miter;stroke-opacity:1" /><path
     sodipodi:type="spiral"
     style="opacity:1;fill:none;fill-opacity:1;fill-rule:evenodd;stroke:#ffffec;stroke-width:2.51338577;stroke-linecap:butt;stroke-linejoin:miter;stroke-miterlimit:4;stroke-dasharray:none;stroke-opacity:1"
     id="path14498"
     sodipodi:cx="197.5222"
     sodipodi:cy="17.012539"
     sodipodi:expansion="0"
     sodipodi:revolution="8.0200005"
     sodipodi:radius="34.011444"
     sodipodi:argument="-17.855951"
     sodipodi:t0="0.99130303"
     d="m 223.94673,38.425681 c -3.13084,3.863564 -7.10954,7.019918 -11.58403,9.189766"
     transform="rotate(115.85295,258.68631,79.286564)" /><g
     aria-label="1"
     style="font-style:normal;font-variant:normal;font-weight:normal;font-stretch:normal;font-size:33.33333588px;line-height:125%;font-family:sans-serif;-inkscape-font-specification:sans-serif;letter-spacing:0px;word-spacing:0px;fill:#ffffff;fill-opacity:1;stroke:none;stroke-width:1px;stroke-linecap:butt;stroke-linejoin:miter;stroke-opacity:1"
     id="text14502"><path
       d="m 350.21881,14.147327 h -5.23333 v -2.1 q 3.4,-0.433334 4.4,-1.2 1,-0.733334 1.7,-3.1000007 0.0667,-0.2 0.13333,-0.4 h 1.93334 V 30.980661 h -2.93334 z"
       style="font-style:normal;font-variant:normal;font-weight:normal;font-stretch:normal;font-size:33.33333588px;font-family:FreeSans;-inkscape-font-specification:FreeSans;fill:#ffffff;fill-opacity:1"
       id="path30195" /></g><path
     style="opacity:1;fill:#ffffff;fill-opacity:1;fill-rule:evenodd;stroke:none;stroke-width:1px;stroke-linecap:butt;stroke-linejoin:miter;stroke-opacity:1"
     d="m 40.274807,69.591999 c -7.20006,-7.64284 -8.4415,-12.48612 -9.72169,-18.99975 l 12.18688,-0.125 c -2.57083,4.08998 -3.31842,10.98968 -2.46519,19.12475 z"
     id="path7870"
     inkscape:connector-curvature="0"
     sodipodi:nodetypes="cccc" /><path
     transform="matrix(-0.43606293,-0.89991617,-0.89991617,0.43606293,171.96529,220.9423)"
     d="m 223.94673,38.425681 c -3.13084,3.863564 -7.10954,7.019918 -11.58403,9.189766"
     sodipodi:t0="0.99130303"
     sodipodi:argument="-17.855951"
     sodipodi:radius="34.011444"
     sodipodi:revolution="8.0200005"
     sodipodi:expansion="0"
     sodipodi:cy="17.012539"
     sodipodi:cx="197.5222"
     id="path7872"
     style="opacity:1;fill:none;fill-opacity:1;fill-rule:evenodd;stroke:#ffffec;stroke-width:2.51338577;stroke-linecap:butt;stroke-linejoin:miter;stroke-miterlimit:4;stroke-dasharray:none;stroke-opacity:1"
     sodipodi:type="spiral" /><path
     sodipodi:nodetypes="cccc"
     inkscape:connector-curvature="0"
     id="path7874"
     d="m 116.45689,32.272639 c 7.20007,7.64284 8.44151,12.48613 9.7217,18.99975 l -12.18689,0.125 c 2.57083,-4.08997 3.31842,-10.98968 2.46519,-19.12475 z"
     style="opacity:1;fill:#ffffff;fill-opacity:1;fill-rule:evenodd;stroke:none;stroke-width:1px;stroke-linecap:butt;stroke-linejoin:miter;stroke-opacity:1" /><path
     sodipodi:type="spiral"
     style="opacity:1;fill:none;fill-opacity:1;fill-rule:evenodd;stroke:#ffffec;stroke-width:2.51338577;stroke-linecap:butt;stroke-linejoin:miter;stroke-miterlimit:4;stroke-dasharray:none;stroke-opacity:1"
     id="path7876"
     sodipodi:cx="197.5222"
     sodipodi:cy="17.012539"
     sodipodi:expansion="0"
     sodipodi:revolution="8.0200005"
     sodipodi:radius="34.011444"
     sodipodi:argument="-17.855951"
     sodipodi:t0="0.99130303"
     d="m 223.94673,38.425681 c -3.13084,3.863564 -7.10954,7.019918 -11.58403,9.189766"
     transform="matrix(0.43606294,0.89991617,0.89991617,-0.43606294,-15.233573,-119.07767)" /><g
     aria-label="2"
     style="font-style:normal;font-variant:normal;font-weight:normal;font-stretch:normal;font-size:33.33333588px;line-height:125%;font-family:sans-serif;-inkscape-font-specification:sans-serif;letter-spacing:0px;word-spacing:0px;fill:#ffffff;fill-opacity:1;stroke:none;stroke-width:1px;stroke-linecap:butt;stroke-linejoin:miter;stroke-opacity:1"
     id="text7991"><path
       d="m 73.133151,14.524605 q 0.266667,-8.1666677 7.8,-8.200001 4.033334,0 6.166668,2.6666669 1.4,1.8333331 1.4,4.2666671 -0.03333,4.4 -5.000001,7.133334 l -3.333333,1.8 q -3.100001,1.666667 -3.900001,3.533333 -0.266666,0.600001 -0.366666,1.333334 h 12.433334 v 2.9 H 72.599817 q 0.233334,-4.266667 1.900001,-6.5 1.433333,-1.866667 4.733333,-3.733334 l 3.066667,-1.733333 q 3.166667,-1.866667 3.2,-4.666667 0,-2.400001 -2,-3.7000007 -1.166666,-0.7333334 -2.666667,-0.7333334 -4.366667,0 -4.766667,5.4333341 0,0.1 0,0.2 z"
       style="font-style:normal;font-variant:normal;font-weight:normal;font-stretch:normal;font-size:33.33333588px;font-family:FreeSans;-inkscape-font-specification:FreeSans;fill:#ffffff;fill-opacity:1"
       id="path30198" /></g></svg>