<?xml version="1.0" encoding="UTF-8" standalone="no"?>
<!-- Generator: Adobe Illustrator 19.2.0, SVG Export Plug-In . SVG Version: 6.00 Build 0)  -->

<svg
   xmlns:dc="http://purl.org/dc/elements/1.1/"
   xmlns:cc="http://creativecommons.org/ns#"
   xmlns:rdf="http://www.w3.org/1999/02/22-rdf-syntax-ns#"
   xmlns:svg="http://www.w3.org/2000/svg"
   xmlns="http://www.w3.org/2000/svg"
   xmlns:sodipodi="http://sodipodi.sourceforge.net/DTD/sodipodi-0.dtd"
   xmlns:inkscape="http://www.inkscape.org/namespaces/inkscape"
   version="1.1"
   id="draw"
   x="0px"
   y="0px"
   viewBox="0 0 343.449 335.834"
   enable-background="new 0 0 343.449 335.834"
   xml:space="preserve"
   sodipodi:docname="Y6A.svg"
   inkscape:version="0.92.1 r"><metadata
     id="metadata39427"><rdf:RDF><cc:Work
         rdf:about=""><dc:format>image/svg+xml</dc:format><dc:type
           rdf:resource="http://purl.org/dc/dcmitype/StillImage" /><dc:title>Y6A</dc:title></cc:Work></rdf:RDF></metadata><defs
     id="defs39425" /><sodipodi:namedview
     pagecolor="#ffffff"
     bordercolor="#666666"
     borderopacity="1"
     objecttolerance="10"
     gridtolerance="10"
     guidetolerance="10"
     inkscape:pageopacity="0"
     inkscape:pageshadow="2"
     inkscape:window-width="1920"
     inkscape:window-height="1019"
     id="namedview39423"
     showgrid="false"
     inkscape:zoom="1.4054562"
     inkscape:cx="134.948"
     inkscape:cy="90.94017"
     inkscape:window-x="1920"
     inkscape:window-y="0"
     inkscape:window-maximized="1"
     inkscape:current-layer="draw" /><title
     id="title39380">Y6A</title><g
     opacity="0.8"
     id="g39384"><ellipse
       transform="matrix(0.7051 -0.7091 0.7091 0.7051 -42.3899 60.0457)"
       fill="#4EC3E8"
       cx="51.003"
       cy="80.992"
       rx="50.993"
       ry="51.004"
       id="ellipse39382" /></g><g
     opacity="0.8"
     id="g39388"><ellipse
       transform="matrix(0.7091 -0.7051 0.7051 0.7091 -151.0087 203.6918)"
       fill="#159E1F"
       cx="171.342"
       cy="284.847"
       rx="50.993"
       ry="51.004"
       id="ellipse39386" /></g><g
     opacity="0.8"
     id="g39392"><ellipse
       transform="matrix(0.7091 -0.7051 0.7051 0.7091 27.568 229.9434)"
       fill="#4EC3E8"
       cx="292.443"
       cy="81.563"
       rx="50.993"
       ry="51.004"
       id="ellipse39390" /></g><rect
     x="168.017"
     y="120.306"
     fill="#FFFFFF"
     stroke="#000000"
     stroke-miterlimit="10"
     width="6.777"
     height="133.572"
     id="rect39394" /><rect
     x="162.944"
     y="83.78"
     transform="matrix(0.8697 -0.4936 0.4936 0.8697 -13.0898 124.7563)"
     fill="#FFFFFF"
     stroke="#000000"
     stroke-miterlimit="10"
     width="133.572"
     height="6.777"
     id="rect39396" /><rect
     x="110.338"
     y="20.065"
     transform="matrix(0.4969 -0.8678 0.8678 0.4969 -18.2055 142.4201)"
     fill="#FFFFFF"
     stroke="#000000"
     stroke-miterlimit="10"
     width="6.777"
     height="133.692"
     id="rect39398" /><path
     fill="#FFFFFF"
     stroke="#000000"
     stroke-miterlimit="10"
     d="M214.837,127.08l-36.195,36.195  c-3.869,3.869-10.141,3.869-14.009,0l-36.195-36.195c-3.869-3.869-3.869-10.141,0-14.009l36.195-36.195  c3.869-3.869,10.141-3.869,14.009,0l36.195,36.195C218.706,116.939,218.706,123.211,214.837,127.08z"
     id="path39400" /><polygon
     fill="#FF442B"
     stroke="#000000"
     stroke-miterlimit="10"
     points="153.46,142.074 171.637,91.074 189.815,142.074 "
     id="polygon39402" /><g
     opacity="0.8"
     id="g39406"><ellipse
       transform="matrix(0.7091 -0.7051 0.7051 0.7091 48.7224 221.216)"
       fill="#159E1F"
       cx="292.444"
       cy="51.563"
       rx="50.993"
       ry="51.004"
       id="ellipse39404" /></g><path
     fill="#FFFFFF"
     stroke="#000000"
     stroke-miterlimit="10"
     d="M300.321,42.677c-4.374-4.384-11.473-4.393-15.858-0.02  s-4.393,11.473-0.02,15.857c4.365,4.376,11.447,4.395,15.835,0.042c4.397-4.335,4.446-11.414,0.111-15.811  C300.367,42.723,300.344,42.7,300.321,42.677z"
     id="path39408" /><g
     opacity="0.8"
     id="g39412"><ellipse
       transform="matrix(0.7051 -0.7091 0.7091 0.7051 -21.1177 51.1998)"
       fill="#159E1F"
       cx="51.003"
       cy="50.992"
       rx="50.993"
       ry="51.004"
       id="ellipse39410" /></g><path
     fill="#FFFFFF"
     stroke="#000000"
     stroke-miterlimit="10"
     d="M58.914,43.061c4.384,4.374,4.393,11.473,0.019,15.858  c-4.374,4.384-11.473,4.393-15.858,0.019c-4.376-4.365-4.394-11.447-0.042-15.835c4.335-4.397,11.414-4.446,15.811-0.111  C58.868,43.015,58.891,43.038,58.914,43.061z"
     id="path39414" /><g
     opacity="0.8"
     id="g39418"><ellipse
       transform="matrix(0.7091 -0.7051 0.7051 0.7091 -129.8542 194.9643)"
       fill="#4EC3E8"
       cx="171.342"
       cy="254.847"
       rx="50.993"
       ry="51.004"
       id="ellipse39416" /></g><path
     fill="#FFFFFF"
     stroke="#000000"
     stroke-miterlimit="10"
     d="M179.221,245.961c-4.374-4.384-11.473-4.393-15.858-0.02  c-4.384,4.374-4.393,11.473-0.02,15.857c4.365,4.376,11.447,4.395,15.835,0.042c4.397-4.335,4.446-11.414,0.111-15.811  C179.267,246.007,179.244,245.984,179.221,245.961z"
     id="path39420" /><path
     style="opacity:1;fill:#ffffff;fill-opacity:1;fill-rule:evenodd;stroke:none;stroke-width:1.00172007px;stroke-linecap:butt;stroke-linejoin:miter;stroke-opacity:1"
     d="m 333.22837,94.01011 c -0.31363,10.51358 -2.86489,14.82352 -6.57185,20.34406 l -8.72082,-8.54371 c 4.71802,-1.07604 10.13477,-5.43372 15.29267,-11.80035 z"
     id="path7831-5"
     inkscape:connector-curvature="0"
     sodipodi:nodetypes="cccc" /><path
     sodipodi:nodetypes="cccc"
     inkscape:connector-curvature="0"
     id="path7676-20"
     d="m 276.0559,119.87882 c -10.51357,-0.31363 -14.82351,-2.8649 -20.34406,-6.57187 l 8.54372,-8.7208 c 1.07604,4.71801 5.43373,10.13477 11.80034,15.29267 z"
     style="opacity:1;fill:#ffffff;fill-opacity:1;fill-rule:evenodd;stroke:none;stroke-width:1.00172007px;stroke-linecap:butt;stroke-linejoin:miter;stroke-opacity:1" /><path
     sodipodi:type="spiral"
     style="opacity:1;fill:none;fill-opacity:1;fill-rule:evenodd;stroke:#ffffec;stroke-width:2.51338577;stroke-linecap:butt;stroke-linejoin:miter;stroke-miterlimit:4;stroke-dasharray:none;stroke-opacity:1"
     id="path7711-8"
     sodipodi:cx="197.5222"
     sodipodi:cy="17.012539"
     sodipodi:expansion="0"
     sodipodi:revolution="8.0200005"
     sodipodi:radius="34.011444"
     sodipodi:argument="-17.855951"
     sodipodi:t0="0.99130303"
     d="m 223.94673,38.425681 c -3.13084,3.863564 -7.10954,7.019918 -11.58403,9.189766"
     transform="matrix(-0.9463049,-0.32855798,-0.32855798,0.9463049,476.54023,133.80433)" /><path
     transform="matrix(-0.32855797,0.9463049,0.9463049,0.32855797,347.15388,-106.47424)"
     d="m 223.94673,38.425681 c -3.13084,3.863564 -7.10954,7.019918 -11.58403,9.189766"
     sodipodi:t0="0.99130303"
     sodipodi:argument="-17.855951"
     sodipodi:radius="34.011444"
     sodipodi:revolution="8.0200005"
     sodipodi:expansion="0"
     sodipodi:cy="17.012539"
     sodipodi:cx="197.5222"
     id="path7833-2"
     style="opacity:1;fill:none;fill-opacity:1;fill-rule:evenodd;stroke:#ffffec;stroke-width:2.51338577;stroke-linecap:butt;stroke-linejoin:miter;stroke-miterlimit:4;stroke-dasharray:none;stroke-opacity:1"
     sodipodi:type="spiral" /><g
     aria-label="2"
     style="font-style:normal;font-variant:normal;font-weight:normal;font-stretch:normal;font-size:33.39067459px;line-height:125%;font-family:sans-serif;-inkscape-font-specification:sans-serif;letter-spacing:0px;word-spacing:0px;fill:#ffffff;fill-opacity:1;stroke:none;stroke-width:1.00172007px;stroke-linecap:butt;stroke-linejoin:miter;stroke-opacity:1"
     id="text11694"><path
       d="m 284.09397,113.36704 q 0.26713,-8.18072 7.81342,-8.21411 4.04027,0 6.17727,2.67126 1.40241,1.83648 1.40241,4.274 -0.0334,4.40757 -5.0086,7.14561 l -3.33907,1.80309 q -3.10533,1.66954 -3.9067,3.53941 -0.26713,0.60104 -0.3673,1.33563 h 12.45472 v 2.90499 h -15.7604 q 0.23374,-4.27401 1.90327,-6.51118 1.4358,-1.86988 4.74148,-3.73976 l 3.07194,-1.73631 q 3.17211,-1.86988 3.2055,-4.6747 0,-2.40413 -2.00344,-3.70636 -1.16867,-0.7346 -2.67125,-0.7346 -4.37418,0 -4.77487,5.44268 0,0.10018 0,0.20035 z"
       style="font-style:normal;font-variant:normal;font-weight:normal;font-stretch:normal;font-size:33.39067459px;font-family:FreeSans;-inkscape-font-specification:FreeSans;fill:#ffffff;fill-opacity:1;stroke-width:1.00172007px"
       id="path40153" /></g><path
     style="opacity:1;fill:#ffffff;fill-opacity:1;fill-rule:evenodd;stroke:none;stroke-width:1px;stroke-linecap:butt;stroke-linejoin:miter;stroke-opacity:1"
     d="m 131.66599,272.72054 c -7.20006,-7.64284 -8.4415,-12.48612 -9.72169,-18.99975 l 12.18688,-0.125 c -2.57083,4.08998 -3.31842,10.98968 -2.46519,19.12475 z"
     id="path7870-5"
     inkscape:connector-curvature="0"
     sodipodi:nodetypes="cccc" /><path
     transform="matrix(-0.43606294,-0.89991617,-0.89991617,0.43606294,263.3565,424.07086)"
     d="m 223.94673,38.425681 c -3.13084,3.863564 -7.10954,7.019918 -11.58403,9.189766"
     sodipodi:t0="0.99130303"
     sodipodi:argument="-17.855951"
     sodipodi:radius="34.011444"
     sodipodi:revolution="8.0200005"
     sodipodi:expansion="0"
     sodipodi:cy="17.012539"
     sodipodi:cx="197.5222"
     id="path7872-2"
     style="opacity:1;fill:none;fill-opacity:1;fill-rule:evenodd;stroke:#ffffec;stroke-width:2.51338577;stroke-linecap:butt;stroke-linejoin:miter;stroke-miterlimit:4;stroke-dasharray:none;stroke-opacity:1"
     sodipodi:type="spiral" /><path
     sodipodi:nodetypes="cccc"
     inkscape:connector-curvature="0"
     id="path7874-1"
     d="m 207.84809,235.40118 c 7.20007,7.64284 8.44151,12.48613 9.7217,18.99975 l -12.18689,0.125 c 2.57083,-4.08997 3.31842,-10.98968 2.46519,-19.12475 z"
     style="opacity:1;fill:#ffffff;fill-opacity:1;fill-rule:evenodd;stroke:none;stroke-width:1px;stroke-linecap:butt;stroke-linejoin:miter;stroke-opacity:1" /><path
     sodipodi:type="spiral"
     style="opacity:1;fill:none;fill-opacity:1;fill-rule:evenodd;stroke:#ffffec;stroke-width:2.51338577;stroke-linecap:butt;stroke-linejoin:miter;stroke-miterlimit:4;stroke-dasharray:none;stroke-opacity:1"
     id="path7876-6"
     sodipodi:cx="197.5222"
     sodipodi:cy="17.012539"
     sodipodi:expansion="0"
     sodipodi:revolution="8.0200005"
     sodipodi:radius="34.011444"
     sodipodi:argument="-17.855951"
     sodipodi:t0="0.99130303"
     d="m 223.94673,38.425681 c -3.13084,3.863564 -7.10954,7.019918 -11.58403,9.189766"
     transform="matrix(0.43606294,0.89991617,0.89991617,-0.43606294,76.157618,84.050903)" /><g
     aria-label="3"
     style="font-style:normal;font-variant:normal;font-weight:normal;font-stretch:normal;font-size:33.33333588px;line-height:125%;font-family:sans-serif;-inkscape-font-specification:sans-serif;letter-spacing:0px;word-spacing:0px;fill:#ffffff;fill-opacity:1;stroke:none;stroke-width:1px;stroke-linecap:butt;stroke-linejoin:miter;stroke-opacity:1"
     id="text7991-1"><path
       d="m 171.15833,277.64439 q -3.8,0 -4.4,3.66667 -0.0667,0.63333 -0.1,1.4 h -2.93334 q 0.13334,-7 6.33334,-7.6 0.53333,-0.0333 1.06666,-0.0333 4.66667,0 6.4,3.13334 0.8,1.46666 0.8,3.36666 -0.0333,3.60001 -3.3,4.90001 3.1,1.06666 3.76667,3.6 0.23333,0.9 0.23333,2.03333 0,4.1 -3.13333,6.1 -2.03333,1.26667 -4.86667,1.26667 -6.53333,0 -7.63333,-6.13334 -0.1,-0.73333 -0.16667,-1.5 h 2.93334 q 0.26666,4.4 3.76666,4.93334 0.56667,0.1 1.2,0.1 3.46667,0 4.53334,-2.63334 0.36666,-0.96666 0.36666,-2.1 -0.0667,-4.26666 -4.9,-4.3 l -1.23333,0.0333 h -0.36667 v -2.5 q 3.76667,-0.0667 4.9,-1.1 0.9,-0.86667 0.9,-2.60001 0,-2.83333 -2.33333,-3.73333 -0.83333,-0.3 -1.83333,-0.3 z"
       style="font-style:normal;font-variant:normal;font-weight:normal;font-stretch:normal;font-size:33.33333588px;font-family:FreeSans;-inkscape-font-specification:FreeSans;fill:#ffffff;fill-opacity:1"
       id="path40150" /></g><path
     style="opacity:1;fill:#ffffff;fill-opacity:1;fill-rule:evenodd;stroke:none;stroke-width:1px;stroke-linecap:butt;stroke-linejoin:miter;stroke-opacity:1"
     d="m 253.40141,32.59051 c -7.20006,7.64284 -8.4415,12.48612 -9.72169,18.99975 l 12.18688,0.125 c -2.57083,-4.08998 -3.31842,-10.98968 -2.46519,-19.12475 z"
     id="path7870"
     inkscape:connector-curvature="0"
     sodipodi:nodetypes="cccc" /><path
     transform="rotate(115.85295,229.75668,61.280008)"
     d="m 223.94673,38.425681 c -3.13084,3.863564 -7.10954,7.019918 -11.58403,9.189766"
     sodipodi:t0="0.99130303"
     sodipodi:argument="-17.855951"
     sodipodi:radius="34.011444"
     sodipodi:revolution="8.0200005"
     sodipodi:expansion="0"
     sodipodi:cy="17.012539"
     sodipodi:cx="197.5222"
     id="path7872"
     style="opacity:1;fill:none;fill-opacity:1;fill-rule:evenodd;stroke:#ffffec;stroke-width:2.51338577;stroke-linecap:butt;stroke-linejoin:miter;stroke-miterlimit:4;stroke-dasharray:none;stroke-opacity:1"
     sodipodi:type="spiral" /><path
     sodipodi:nodetypes="cccc"
     inkscape:connector-curvature="0"
     id="path7874"
     d="m 329.58351,69.90987 c 7.20007,-7.64284 8.44151,-12.48613 9.7217,-18.99975 l -12.18689,-0.125 c 2.57083,4.08997 3.31842,10.98968 2.46519,19.12475 z"
     style="opacity:1;fill:#ffffff;fill-opacity:1;fill-rule:evenodd;stroke:none;stroke-width:1px;stroke-linecap:butt;stroke-linejoin:miter;stroke-opacity:1" /><path
     sodipodi:type="spiral"
     style="opacity:1;fill:none;fill-opacity:1;fill-rule:evenodd;stroke:#ffffec;stroke-width:2.51338577;stroke-linecap:butt;stroke-linejoin:miter;stroke-miterlimit:4;stroke-dasharray:none;stroke-opacity:1"
     id="path7876"
     sodipodi:cx="197.5222"
     sodipodi:cy="17.012539"
     sodipodi:expansion="0"
     sodipodi:revolution="8.0200005"
     sodipodi:radius="34.011444"
     sodipodi:argument="-17.855951"
     sodipodi:t0="0.99130303"
     d="m 223.94673,38.425681 c -3.13084,3.863564 -7.10954,7.019918 -11.58403,9.189766"
     transform="rotate(-64.14705,275.48716,-47.266202)" /><g
     aria-label="1"
     style="font-style:normal;font-variant:normal;font-weight:normal;font-stretch:normal;font-size:33.33333588px;line-height:125%;font-family:sans-serif;-inkscape-font-specification:sans-serif;letter-spacing:0px;word-spacing:0px;fill:#ffffff;fill-opacity:1;stroke:none;stroke-width:1px;stroke-linecap:butt;stroke-linejoin:miter;stroke-opacity:1"
     id="text7991"><path
       d="m 292.80649,13.442476 h -5.23333 v -2.100001 q 3.4,-0.433333 4.4,-1.2 1,-0.733333 1.7,-3.0999999 0.0667,-0.2 0.13333,-0.4 h 1.93333 V 30.27581 h -2.93333 z"
       style="font-style:normal;font-variant:normal;font-weight:normal;font-stretch:normal;font-size:33.33333588px;font-family:FreeSans;-inkscape-font-specification:FreeSans;fill:#ffffff;fill-opacity:1"
       id="path40156" /></g><path
     sodipodi:nodetypes="cccc"
     inkscape:connector-curvature="0"
     id="path35761"
     d="M 11.735917,31.76102 C 4.5358563,39.40387 3.2944163,44.24715 2.0142263,50.76078 l 12.1868807,0.125 C 11.630277,46.7958 10.882687,39.8961 11.735917,31.76102 Z"
     style="opacity:1;fill:#ffffff;fill-opacity:1;fill-rule:evenodd;stroke:none;stroke-width:1px;stroke-linecap:butt;stroke-linejoin:miter;stroke-opacity:1" /><path
     sodipodi:type="spiral"
     style="opacity:1;fill:none;fill-opacity:1;fill-rule:evenodd;stroke:#ffffec;stroke-width:2.51338577;stroke-linecap:butt;stroke-linejoin:miter;stroke-miterlimit:4;stroke-dasharray:none;stroke-opacity:1"
     id="path35763"
     sodipodi:cx="197.5222"
     sodipodi:cy="17.012539"
     sodipodi:expansion="0"
     sodipodi:revolution="8.0200005"
     sodipodi:radius="34.011444"
     sodipodi:argument="-17.855951"
     sodipodi:t0="0.99130303"
     d="m 223.94673,38.425681 c -3.13084,3.863564 -7.10954,7.019918 -11.58403,9.189766"
     transform="rotate(115.85295,109.18382,-14.855192)" /><path
     style="opacity:1;fill:#ffffff;fill-opacity:1;fill-rule:evenodd;stroke:none;stroke-width:1px;stroke-linecap:butt;stroke-linejoin:miter;stroke-opacity:1"
     d="m 87.918007,69.08039 c 7.20007,-7.64284 8.44151,-12.48613 9.721697,-18.99975 l -12.186887,-0.125 c 2.57083,4.08997 3.31842,10.98968 2.46519,19.12475 z"
     id="path35765"
     inkscape:connector-curvature="0"
     sodipodi:nodetypes="cccc" /><path
     transform="rotate(-64.14705,153.99256,145.14082)"
     d="m 223.94673,38.425681 c -3.13084,3.863564 -7.10954,7.019918 -11.58403,9.189766"
     sodipodi:t0="0.99130303"
     sodipodi:argument="-17.855951"
     sodipodi:radius="34.011444"
     sodipodi:revolution="8.0200005"
     sodipodi:expansion="0"
     sodipodi:cy="17.012539"
     sodipodi:cx="197.5222"
     id="path35767"
     style="opacity:1;fill:none;fill-opacity:1;fill-rule:evenodd;stroke:#ffffec;stroke-width:2.51338577;stroke-linecap:butt;stroke-linejoin:miter;stroke-miterlimit:4;stroke-dasharray:none;stroke-opacity:1"
     sodipodi:type="spiral" /><g
     aria-label="5"
     style="font-style:normal;font-variant:normal;font-weight:normal;font-stretch:normal;font-size:33.33333588px;line-height:125%;font-family:sans-serif;-inkscape-font-specification:sans-serif;letter-spacing:0px;word-spacing:0px;fill:#ffffff;fill-opacity:1;stroke:none;stroke-width:1px;stroke-linecap:butt;stroke-linejoin:miter;stroke-opacity:1"
     id="text35771"><path
       d="m 57.556785,5.8129921 v 2.9000002 h -9.833334 l -0.933334,6.6000007 q 2,-1.433334 4.366667,-1.433334 4.000001,0 6.133334,2.900001 1.5,2.066666 1.5,4.966667 0,4.3 -2.9,6.7 -2.166667,1.766667 -5.2,1.766667 -6.533334,0 -7.766668,-6.266667 -0.03333,-0.1 -0.06667,-0.3 h 2.933333 q 1.1,3.933333 4.833334,3.966667 3.366667,0 4.633334,-2.7 0.533333,-1.233334 0.533333,-2.766667 0,-3.633334 -2.533334,-5.033334 -1.166666,-0.633333 -2.633333,-0.633333 -2.133334,0 -3.633334,1.433333 -0.333333,0.366667 -0.7,0.766667 h -2.7 L 45.356784,5.8129921 Z"
       style="font-style:normal;font-variant:normal;font-weight:normal;font-stretch:normal;font-size:33.33333588px;font-family:FreeSans;-inkscape-font-specification:FreeSans;fill:#ffffff;fill-opacity:1"
       id="path40162" /></g><path
     sodipodi:nodetypes="cccc"
     inkscape:connector-curvature="0"
     id="path35781"
     d="m 91.972627,93.77209 c -0.31363,10.51359 -2.86489,14.82353 -6.57185,20.34407 l -8.72081,-8.54371 c 4.71801,-1.07604 10.13476,-5.43373 15.29266,-11.80036 z"
     style="opacity:1;fill:#ffffff;fill-opacity:1;fill-rule:evenodd;stroke:none;stroke-width:1.00172007px;stroke-linecap:butt;stroke-linejoin:miter;stroke-opacity:1" /><path
     style="opacity:1;fill:#ffffff;fill-opacity:1;fill-rule:evenodd;stroke:none;stroke-width:1.00172007px;stroke-linecap:butt;stroke-linejoin:miter;stroke-opacity:1"
     d="m 34.800167,119.64081 c -10.51357,-0.31363 -14.82351,-2.8649 -20.34406,-6.57187 l 8.54372,-8.7208 c 1.07604,4.71801 5.43373,10.13477 11.80034,15.29267 z"
     id="path35783"
     inkscape:connector-curvature="0"
     sodipodi:nodetypes="cccc" /><path
     transform="matrix(-0.9463049,-0.32855798,-0.32855798,0.9463049,235.28448,133.56632)"
     d="m 223.94673,38.425681 c -3.13084,3.863564 -7.10954,7.019918 -11.58403,9.189766"
     sodipodi:t0="0.99130303"
     sodipodi:argument="-17.855951"
     sodipodi:radius="34.011444"
     sodipodi:revolution="8.0200005"
     sodipodi:expansion="0"
     sodipodi:cy="17.012539"
     sodipodi:cx="197.5222"
     id="path35785"
     style="opacity:1;fill:none;fill-opacity:1;fill-rule:evenodd;stroke:#ffffec;stroke-width:2.51338577;stroke-linecap:butt;stroke-linejoin:miter;stroke-miterlimit:4;stroke-dasharray:none;stroke-opacity:1"
     sodipodi:type="spiral" /><path
     sodipodi:type="spiral"
     style="opacity:1;fill:none;fill-opacity:1;fill-rule:evenodd;stroke:#ffffec;stroke-width:2.51338577;stroke-linecap:butt;stroke-linejoin:miter;stroke-miterlimit:4;stroke-dasharray:none;stroke-opacity:1"
     id="path35787"
     sodipodi:cx="197.5222"
     sodipodi:cy="17.012539"
     sodipodi:expansion="0"
     sodipodi:revolution="8.0200005"
     sodipodi:radius="34.011444"
     sodipodi:argument="-17.855951"
     sodipodi:t0="0.99130303"
     d="m 223.94673,38.425681 c -3.13084,3.863564 -7.10954,7.019918 -11.58403,9.189766"
     transform="matrix(-0.32855797,0.9463049,0.9463049,0.32855797,105.89813,-106.71226)" /><g
     aria-label="6"
     style="font-style:normal;font-variant:normal;font-weight:normal;font-stretch:normal;font-size:33.39067459px;line-height:125%;font-family:sans-serif;-inkscape-font-specification:sans-serif;letter-spacing:0px;word-spacing:0px;fill:#ffffff;fill-opacity:1;stroke:none;stroke-width:1.00172007px;stroke-linecap:butt;stroke-linejoin:miter;stroke-opacity:1"
     id="text35791"><path
       d="m 42.604523,117.80374 q 0,-10.31772 5.709805,-12.42133 1.302237,-0.46747 2.771426,-0.46747 3.839928,0 5.676415,3.10533 0.767986,1.33563 1.035111,3.07194 h -2.938379 q -0.601033,-2.93837 -3.038552,-3.47263 -0.467469,-0.10017 -0.934939,-0.10017 -3.706365,0 -4.841647,4.80826 -0.400689,1.83649 -0.434079,4.17383 1.97005,-2.63786 5.44268,-2.63786 3.706365,0 5.776586,2.77143 1.46919,2.00344 1.46919,4.74147 0,3.97349 -2.738035,6.24406 -2.103613,1.73631 -5.008601,1.73631 -7.91359,-0.0668 -7.946981,-11.55317 z m 8.080543,-1.33563 q -2.838207,0 -4.173834,2.20379 -0.734595,1.20206 -0.734595,2.77142 0,2.8716 2.036831,4.40757 1.202065,0.90155 2.771426,0.90155 2.537692,0 3.873319,-2.10361 0.834766,-1.33563 0.834766,-3.03855 0,-3.40585 -2.370737,-4.64131 -1.001721,-0.50086 -2.237176,-0.50086 z"
       style="font-style:normal;font-variant:normal;font-weight:normal;font-stretch:normal;font-size:33.39067459px;font-family:FreeSans;-inkscape-font-specification:FreeSans;fill:#ffffff;fill-opacity:1;stroke-width:1.00172007px"
       id="path40159" /></g><path
     style="opacity:1;fill:#ffffff;fill-opacity:1;fill-rule:evenodd;stroke:none;stroke-width:1.00172007px;stroke-linecap:butt;stroke-linejoin:miter;stroke-opacity:1"
     d="m 129.84569,297.42076 c 0.31363,10.51359 2.86489,14.82353 6.57185,20.34407 l 8.72081,-8.54371 c -4.71801,-1.07604 -10.13476,-5.43373 -15.29266,-11.80036 z"
     id="path35797"
     inkscape:connector-curvature="0"
     sodipodi:nodetypes="cccc" /><path
     sodipodi:nodetypes="cccc"
     inkscape:connector-curvature="0"
     id="path35799"
     d="m 187.01815,323.28948 c 10.51357,-0.31363 14.82351,-2.8649 20.34406,-6.57187 l -8.54372,-8.7208 c -1.07604,4.71801 -5.43373,10.13477 -11.80034,15.29267 z"
     style="opacity:1;fill:#ffffff;fill-opacity:1;fill-rule:evenodd;stroke:none;stroke-width:1.00172007px;stroke-linecap:butt;stroke-linejoin:miter;stroke-opacity:1" /><path
     sodipodi:type="spiral"
     style="opacity:1;fill:none;fill-opacity:1;fill-rule:evenodd;stroke:#ffffec;stroke-width:2.51338577;stroke-linecap:butt;stroke-linejoin:miter;stroke-miterlimit:4;stroke-dasharray:none;stroke-opacity:1"
     id="path35801"
     sodipodi:cx="197.5222"
     sodipodi:cy="17.012539"
     sodipodi:expansion="0"
     sodipodi:revolution="8.0200005"
     sodipodi:radius="34.011444"
     sodipodi:argument="-17.855951"
     sodipodi:t0="0.99130303"
     d="m 223.94673,38.425681 c -3.13084,3.863564 -7.10954,7.019918 -11.58403,9.189766"
     transform="matrix(0.9463049,-0.32855798,0.32855798,0.9463049,-13.466173,337.21499)" /><path
     transform="matrix(0.32855797,0.9463049,-0.9463049,0.32855797,115.92018,96.93645)"
     d="m 223.94673,38.425681 c -3.13084,3.863564 -7.10954,7.019918 -11.58403,9.189766"
     sodipodi:t0="0.99130303"
     sodipodi:argument="-17.855951"
     sodipodi:radius="34.011444"
     sodipodi:revolution="8.0200005"
     sodipodi:expansion="0"
     sodipodi:cy="17.012539"
     sodipodi:cx="197.5222"
     id="path35803"
     style="opacity:1;fill:none;fill-opacity:1;fill-rule:evenodd;stroke:#ffffec;stroke-width:2.51338577;stroke-linecap:butt;stroke-linejoin:miter;stroke-miterlimit:4;stroke-dasharray:none;stroke-opacity:1"
     sodipodi:type="spiral" /><g
     aria-label="4"
     style="font-style:normal;font-variant:normal;font-weight:normal;font-stretch:normal;font-size:33.39067459px;line-height:125%;font-family:sans-serif;-inkscape-font-specification:sans-serif;letter-spacing:0px;word-spacing:0px;fill:#ffffff;fill-opacity:1;stroke:none;stroke-width:1.00172007px;stroke-linecap:butt;stroke-linejoin:miter;stroke-opacity:1"
     id="text35807"><path
       d="m 172.37957,326.56116 h -9.98382 v -3.10533 l 10.7518,-14.89224 h 2.1704 v 15.35971 h 3.50602 v 2.63786 h -3.50602 v 5.67642 h -2.93838 z m 0,-2.63786 v -10.35111 l -7.41273,10.35111 z"
       style="font-style:normal;font-variant:normal;font-weight:normal;font-stretch:normal;font-size:33.39067459px;font-family:FreeSans;-inkscape-font-specification:FreeSans;fill:#ffffff;fill-opacity:1;stroke-width:1.00172007px"
       id="path40147" /></g></svg>