<?xml version="1.0" encoding="utf-8"?>
<!-- Generator: Adobe Illustrator 26.2.1, SVG Export Plug-In . SVG Version: 6.00 Build 0)  -->
<svg version="1.1"
	 id="draw" xmlns:cc="http://creativecommons.org/ns#" xmlns:dc="http://purl.org/dc/elements/1.1/" xmlns:inkscape="http://www.inkscape.org/namespaces/inkscape" xmlns:rdf="http://www.w3.org/1999/02/22-rdf-syntax-ns#" xmlns:sodipodi="http://sodipodi.sourceforge.net/DTD/sodipodi-0.dtd" xmlns:svg="http://www.w3.org/2000/svg"
	 xmlns="http://www.w3.org/2000/svg" xmlns:xlink="http://www.w3.org/1999/xlink" x="0px" y="0px" viewBox="0 0 292.9 321.8"
	 style="enable-background:new 0 0 292.9 321.8;" xml:space="preserve">
<style type="text/css">
	.st0{fill:#FFFFFF;stroke:#000000;stroke-miterlimit:9.9999;}
	.st1{opacity:0.8;}
	.st2{fill:#159E1F;}
	.st3{fill:#4EC3E8;}
	.st4{fill:#FFFFFF;stroke:#000000;stroke-miterlimit:10;}
	.st5{fill:none;stroke:#FFFFEC;stroke-width:2.5134;}
	.st6{fill-rule:evenodd;clip-rule:evenodd;fill:#FFFFFF;}
	.st7{fill:#FFFFFF;}
	.st8{fill:none;stroke:#FFFFEC;stroke-width:2.5177;stroke-miterlimit:4.0069;}
	.st9{fill:#4EC3E8;stroke:#000000;stroke-miterlimit:10;}
	.st10{fill:#159E1F;stroke:#000000;stroke-miterlimit:10;}
	.st11{fill:#FF442B;stroke:#000000;stroke-miterlimit:10;}
</style>
<rect id="rect13164_00000016775711050653148870000016150153960893651350_" x="67" y="264.2" class="st0" width="160" height="5"/>
<rect id="rect13164_00000144298133465782451800000015819238047519378101_" x="32" y="106.2" class="st0" width="230" height="5"/>
<rect id="rect13164_00000029031440606840967230000010716699067194374072_" x="32" y="187.2" class="st0" width="230" height="5"/>
<rect id="rect13164_00000172437758771273694920000015414756274132692659_" x="66.4" y="28.9" class="st0" width="160" height="5"/>
<sodipodi:namedview  bordercolor="#666666" borderopacity="1" gridtolerance="10" guidetolerance="10" id="namedview13195" inkscape:current-layer="draw" inkscape:cx="108.47754" inkscape:cy="174.51965" inkscape:pageopacity="0" inkscape:pageshadow="2" inkscape:window-height="1019" inkscape:window-maximized="1" inkscape:window-width="1920" inkscape:window-x="1920" inkscape:window-y="0" inkscape:zoom="2.0744905" objecttolerance="10" pagecolor="#ffffff" showgrid="false">
	</sodipodi:namedview>
<g id="g13160" class="st1">
	<ellipse id="ellipse13158" class="st2" cx="230" cy="46.2" rx="30.5" ry="30.5"/>
</g>
<g id="g13172" class="st1">
	<ellipse id="ellipse13170" class="st3" cx="230" cy="31.8" rx="30.5" ry="30.5"/>
</g>
<path id="path13174" class="st4" d="M234.1,27.9c-2.1-2.2-5.7-2.2-7.9,0s-2.2,5.7,0,7.9c2.1,2.2,5.7,2.2,7.9,0
	C236.3,33.6,236.3,30,234.1,27.9C234.2,27.9,234.2,27.9,234.1,27.9z"/>
<path id="path7872" sodipodi:argument="-17.855951" sodipodi:cx="197.5222" sodipodi:cy="17.012539" sodipodi:expansion="0" sodipodi:radius="34.011444" sodipodi:revolution="8.0200005" sodipodi:t0="0.99130303" sodipodi:type="spiral" class="st5" d="
	M209.2,23.8c-2.2,2.8-3.3,5.8-3.3,9"/>
<path id="path7870" inkscape:connector-curvature="0" sodipodi:nodetypes="cccc" class="st6" d="M208.9,42.5c-3.9-4-4.7-6.6-5.3-10
	l6.7-0.1C208.9,34.5,208.4,38.2,208.9,42.5L208.9,42.5z"/>
<path id="path7874" inkscape:connector-curvature="0" sodipodi:nodetypes="cccc" class="st6" d="M251.3,24c3.9,4,4.7,6.6,5.3,10
	l-6.7,0.1C251.3,31.9,251.7,28.2,251.3,24z"/>
<path id="path7876" sodipodi:argument="-17.855951" sodipodi:cx="197.5222" sodipodi:cy="17.012539" sodipodi:expansion="0" sodipodi:radius="34.011444" sodipodi:revolution="8.0200005" sodipodi:t0="0.99130303" sodipodi:type="spiral" class="st5" d="
	M250.5,41.9c2.2-2.8,3.3-5.8,3.3-9"/>
<g id="text7991">
	<path id="path17156" class="st7" d="M230.1,9.4h-5.8V8c2.6-0.2,4.1-0.5,4.9-0.8c0.8-0.3,1.3-0.9,1.9-2c0-0.1,0.1-0.1,0.1-0.2h2.1
		v15h-3.2V9.4z"/>
</g>
<path id="path17071" inkscape:connector-curvature="0" sodipodi:nodetypes="cccc" class="st6" d="M239.6,67.7
	c5.8-0.1,8.1-1.5,11.1-3.4l-4.7-4.5C245.5,62.2,243.2,65,239.6,67.7z"/>
<path id="path17073" sodipodi:argument="-17.855951" sodipodi:cx="197.5222" sodipodi:cy="17.012539" sodipodi:expansion="0" sodipodi:radius="34.011444" sodipodi:revolution="8.0200005" sodipodi:t0="0.99130303" sodipodi:type="spiral" class="st8" d="
	M252.5,56.2c-1,2.4-2.4,4.4-4.4,6.2"/>
<path id="path17075" inkscape:connector-curvature="0" sodipodi:nodetypes="cccc" class="st6" d="M204.8,52.8
	c0.1,5.3,1.4,7.4,3.3,10.1l4.4-4.3C210.1,58.2,207.3,56.1,204.8,52.8z"/>
<path id="path17077" sodipodi:argument="-17.855951" sodipodi:cx="197.5222" sodipodi:cy="17.012539" sodipodi:expansion="0" sodipodi:radius="34.011444" sodipodi:revolution="8.0200005" sodipodi:t0="0.99130303" sodipodi:type="spiral" class="st8" d="
	M215.9,66c-2.4-1.3-4.8-3.5-6.7-6.2"/>
<g id="g13172_00000041977440568404910250000012265111573981924238_" class="st1">
	
		<ellipse id="ellipse13170_00000117659389414668979730000001833071945521060736_" class="st3" cx="261" cy="122.5" rx="30.5" ry="30.5"/>
</g>
<g id="g13160_00000005264152441456500820000015398451167349387449_" class="st1">
	
		<ellipse id="ellipse13158_00000062157988671478734170000012241513239944163726_" class="st2" cx="261" cy="107.5" rx="30.5" ry="30.5"/>
</g>
<g id="text14502">
	<path id="path17162" class="st7" d="M252.8,85.8c0.2-3.5,3.1-5.2,8.7-5.2c3,0,5.3,0.6,6.9,1.7c1,0.8,1.6,1.7,1.6,2.7
		c0,1.9-1.9,3.4-5.6,4.5l-3.7,1.1c-2.3,0.7-3.8,1.5-4.3,2.2c-0.2,0.3-0.3,0.5-0.4,0.8h13.9v1.8h-17.5c0.2-1.8,0.9-3.2,2.1-4.1
		c1.1-0.8,2.8-1.6,5.3-2.4L263,88c2.4-0.8,3.5-1.8,3.6-3c0-1-0.7-1.8-2.2-2.3c-0.9-0.3-1.9-0.5-3-0.5c-3.2,0-5,1.1-5.3,3.4
		c0,0,0,0.1,0,0.1L252.8,85.8z"/>
</g>
<path id="path14496_00000182507974673260787220000012910322054965354681_" inkscape:connector-curvature="0" sodipodi:nodetypes="cccc" class="st6" d="
	M238,97.7c-4,4.7-4.7,7.6-5.4,11.6l6.8,0.1C238,106.8,237.6,102.6,238,97.7z"/>
<path id="path14498_00000163054913652371127650000002854022745459667589_" sodipodi:argument="-17.855951" sodipodi:cx="197.5222" sodipodi:cy="17.012539" sodipodi:expansion="0" sodipodi:radius="34.011444" sodipodi:revolution="8.0200005" sodipodi:t0="0.99130303" sodipodi:type="spiral" class="st5" d="
	M237.9,117.8c-1.2-2.7-1.8-5.8-1.8-8.8"/>
<path id="path7711_00000152973957109292536380000002916728288043590808_" sodipodi:argument="-17.855951" sodipodi:cx="197.5222" sodipodi:cy="17.012539" sodipodi:expansion="0" sodipodi:radius="34.011444" sodipodi:revolution="8.0200005" sodipodi:t0="0.99130303" sodipodi:type="spiral" class="st5" d="
	M284.1,99.1c1.2,2.7,1.8,5.8,1.8,8.8"/>
<path id="path14492_00000025443923127402325010000001034698103202246822_" inkscape:connector-curvature="0" sodipodi:nodetypes="cccc" class="st6" d="
	M283.9,118.8c4-4.7,4.7-7.6,5.4-11.6l-6.8-0.1C283.9,109.6,284.4,113.9,283.9,118.8z"/>
<path id="path17109_00000072265639455907115540000014781365593206823100_" sodipodi:argument="-17.855951" sodipodi:cx="197.5222" sodipodi:cy="17.012539" sodipodi:expansion="0" sodipodi:radius="34.011444" sodipodi:revolution="8.0200005" sodipodi:t0="0.99130303" sodipodi:type="spiral" class="st8" d="
	M238.1,132.3c0.9,2.9,2.5,5.5,4.4,7.6"/>
<path id="path17107_00000044866785575669541340000007798084587209641633_" inkscape:connector-curvature="0" sodipodi:nodetypes="cccc" class="st6" d="
	M251.6,144.8c-5.9-0.2-8.3-1.7-11.4-4l4.8-5.3C245.6,138.3,248.1,141.7,251.6,144.8z"/>
<path id="path17111_00000071531237357382411660000004907348317945642897_" inkscape:connector-curvature="0" sodipodi:nodetypes="cccc" class="st6" d="
	M285.2,129.9c-0.2,6.4-1.6,9-3.7,12.4l-4.9-5.2C279.3,136.4,282.3,133.8,285.2,129.9z"/>
<path id="path17113_00000143593187285825645390000001908483154700322487_" sodipodi:argument="-17.855951" sodipodi:cx="197.5222" sodipodi:cy="17.012539" sodipodi:expansion="0" sodipodi:radius="34.011444" sodipodi:revolution="8.0200005" sodipodi:t0="0.99130303" sodipodi:type="spiral" class="st8" d="
	M273,143.7c2.6-1,5-2.7,7-4.8"/>
<g id="g13172_00000179647378669641359230000002037176741453783186_" class="st1">
	
		<ellipse id="ellipse13170_00000093866521393991802300000003233066719722716075_" class="st3" cx="230" cy="281.8" rx="30.5" ry="30.5"/>
</g>
<g id="g13160_00000046299276063112408240000015574310831519389360_" class="st1">
	
		<ellipse id="ellipse13158_00000034780614538435368580000008076313834747986088_" class="st2" cx="230" cy="266.8" rx="30.5" ry="30.5"/>
</g>
<path id="path14496_00000081626319050071206530000012698480540473563301_" inkscape:connector-curvature="0" sodipodi:nodetypes="cccc" class="st6" d="
	M207,257c-4,4.7-4.7,7.6-5.4,11.6l6.8,0.1C207,266.1,206.5,261.9,207,257z"/>
<path id="path14498_00000114036805535086238820000018079414446701278640_" sodipodi:argument="-17.855951" sodipodi:cx="197.5222" sodipodi:cy="17.012539" sodipodi:expansion="0" sodipodi:radius="34.011444" sodipodi:revolution="8.0200005" sodipodi:t0="0.99130303" sodipodi:type="spiral" class="st5" d="
	M206.9,276.7c-1.2-2.7-1.8-5.8-1.8-8.8"/>
<path id="path7711_00000173118713301993986130000011844845759906836403_" sodipodi:argument="-17.855951" sodipodi:cx="197.5222" sodipodi:cy="17.012539" sodipodi:expansion="0" sodipodi:radius="34.011444" sodipodi:revolution="8.0200005" sodipodi:t0="0.99130303" sodipodi:type="spiral" class="st5" d="
	M253.1,258.4c1.2,2.7,1.8,5.8,1.8,8.8"/>
<path id="path14492_00000156564066568941440910000016388172291913908611_" inkscape:connector-curvature="0" sodipodi:nodetypes="cccc" class="st6" d="
	M252.9,278.1c4-4.7,4.7-7.6,5.4-11.6l-6.8-0.1C252.9,268.9,253.4,273.2,252.9,278.1z"/>
<path id="path17109_00000023992901686562768160000014515616310455992985_" sodipodi:argument="-17.855951" sodipodi:cx="197.5222" sodipodi:cy="17.012539" sodipodi:expansion="0" sodipodi:radius="34.011444" sodipodi:revolution="8.0200005" sodipodi:t0="0.99130303" sodipodi:type="spiral" class="st8" d="
	M207.1,291.6c0.9,2.9,2.5,5.5,4.4,7.6"/>
<path id="path17107_00000179611609488119091810000007600554367348835991_" inkscape:connector-curvature="0" sodipodi:nodetypes="cccc" class="st6" d="
	M220.6,304.1c-5.9-0.2-8.3-1.7-11.4-4l4.8-5.3C214.6,297.6,217,301,220.6,304.1z"/>
<path id="path17111_00000109740152542366519960000009177327142884247968_" inkscape:connector-curvature="0" sodipodi:nodetypes="cccc" class="st6" d="
	M254.2,289.2c-0.2,6.4-1.6,9-3.7,12.4l-4.9-5.2C248.3,295.7,251.3,293.1,254.2,289.2z"/>
<path id="path17113_00000177448461433773838190000015988078780799640498_" sodipodi:argument="-17.855951" sodipodi:cx="197.5222" sodipodi:cy="17.012539" sodipodi:expansion="0" sodipodi:radius="34.011444" sodipodi:revolution="8.0200005" sodipodi:t0="0.99130303" sodipodi:type="spiral" class="st8" d="
	M241.9,303c2.6-1,5-2.7,7-4.8"/>
<g id="text7999-0_00000095324600518114508000000003236440785896548003_">
	<path id="path17147_00000168838276554444224320000005418625189817177486_" class="st7" d="M231.8,252.8h-10.3v-2l11.1-9.4h2.2v9.7
		h3.6v1.7h-3.6v3.6h-3L231.8,252.8z M231.8,251.2v-6.6l-7.7,6.6H231.8z"/>
</g>
<path id="path13174_00000126313285779878773750000007397399529131436468_" class="st4" d="M264.9,104.4c-2.1-2.2-5.7-2.2-7.9,0
	c-2.2,2.2-2.2,5.7,0,7.9c2.1,2.2,5.7,2.2,7.9,0C267.2,110.1,267.2,106.5,264.9,104.4C265,104.4,265,104.4,264.9,104.4z"/>
<g id="g13160_00000014602574651150873670000012120315082209780405_" class="st1">
	
		<ellipse id="ellipse13158_00000051377848997115308200000005098496144463457470_" class="st2" cx="261.2" cy="205.2" rx="30.5" ry="30.5"/>
</g>
<g id="g13172_00000083060992463607484690000006559726085903068069_" class="st1">
	
		<ellipse id="ellipse13170_00000052803869905975926400000013956951706873045385_" class="st3" cx="261.1" cy="190.8" rx="30.5" ry="30.5"/>
</g>
<path id="path13174_00000183949300244229386000000009479861633680404913_" class="st4" d="M265.2,186.9c-2.1-2.2-5.7-2.2-7.9,0
	c-2.2,2.2-2.2,5.7,0,7.9c2.1,2.2,5.7,2.2,7.9,0C267.4,192.6,267.4,189,265.2,186.9C265.3,186.9,265.3,186.9,265.2,186.9z"/>
<path id="path7872_00000026847127952362628220000005683195766799751074_" sodipodi:argument="-17.855951" sodipodi:cx="197.5222" sodipodi:cy="17.012539" sodipodi:expansion="0" sodipodi:radius="34.011444" sodipodi:revolution="8.0200005" sodipodi:t0="0.99130303" sodipodi:type="spiral" class="st5" d="
	M240.4,183c-2.2,2.8-3.3,5.8-3.3,9"/>
<path id="path7870_00000164504421183773672520000018216198012959378562_" inkscape:connector-curvature="0" sodipodi:nodetypes="cccc" class="st6" d="
	M240,201.7c-3.9-4-4.7-6.6-5.3-10l6.7-0.1C240,193.7,239.6,197.4,240,201.7L240,201.7z"/>
<path id="path7874_00000139278345665315964950000001845965647026918018_" inkscape:connector-curvature="0" sodipodi:nodetypes="cccc" class="st6" d="
	M282.4,183c3.9,4,4.7,6.6,5.3,10l-6.7,0.1C282.4,190.9,282.9,187.2,282.4,183z"/>
<path id="path7876_00000021087409435542991900000015985560558448808855_" sodipodi:argument="-17.855951" sodipodi:cx="197.5222" sodipodi:cy="17.012539" sodipodi:expansion="0" sodipodi:radius="34.011444" sodipodi:revolution="8.0200005" sodipodi:t0="0.99130303" sodipodi:type="spiral" class="st5" d="
	M281.7,200.9c2.2-2.8,3.3-5.8,3.3-9"/>
<path id="path17071_00000054958404396597013660000001474551374096728230_" inkscape:connector-curvature="0" sodipodi:nodetypes="cccc" class="st6" d="
	M270.8,226.7c5.8-0.1,8.1-1.5,11.1-3.4l-4.7-4.5C276.7,221.2,274.3,224,270.8,226.7z"/>
<path id="path17073_00000033331685105771180110000008675395119864591252_" sodipodi:argument="-17.855951" sodipodi:cx="197.5222" sodipodi:cy="17.012539" sodipodi:expansion="0" sodipodi:radius="34.011444" sodipodi:revolution="8.0200005" sodipodi:t0="0.99130303" sodipodi:type="spiral" class="st8" d="
	M283.7,215.2c-1,2.4-2.4,4.4-4.4,6.2"/>
<path id="path17075_00000157310231951392362930000013881600915818146198_" inkscape:connector-curvature="0" sodipodi:nodetypes="cccc" class="st6" d="
	M235.9,212c0.1,5.3,1.4,7.4,3.3,10.1l4.4-4.3C241.3,217.4,238.5,215.3,235.9,212z"/>
<path id="path17077_00000042716556965435495700000011987204947910850971_" sodipodi:argument="-17.855951" sodipodi:cx="197.5222" sodipodi:cy="17.012539" sodipodi:expansion="0" sodipodi:radius="34.011444" sodipodi:revolution="8.0200005" sodipodi:t0="0.99130303" sodipodi:type="spiral" class="st8" d="
	M247,225c-2.4-1.3-4.8-3.5-6.7-6.2"/>
<g id="text7991-1_00000060032961956042693780000006071625078469170610_">
	<path id="path17144_00000122695959178526669250000002811905473885095055_" class="st7" d="M261.3,164.3c-2.7,0-4.3,0.8-4.7,2.3
		c0,0.3-0.1,0.5-0.1,0.9h-3.2c0.1-2.9,2.4-4.4,6.8-4.7c0.4,0,0.8,0,1.1,0c3.3,0,5.6,0.6,6.9,1.9c0.6,0.6,0.9,1.3,0.9,2.1
		c0,1.5-1.2,2.5-3.6,3c2.2,0.4,3.6,1.2,4.1,2.2c0.2,0.4,0.3,0.8,0.3,1.2c0,1.7-1.1,2.9-3.4,3.8c-1.5,0.5-3.2,0.8-5.2,0.8
		c-4.7,0-7.4-1.3-8.2-3.8c-0.1-0.3-0.1-0.6-0.2-0.9h3.2c0.2,1.8,1.5,2.8,4.1,3c0.4,0,0.8,0.1,1.3,0.1c2.5,0,4.1-0.5,4.9-1.6
		c0.3-0.4,0.4-0.8,0.4-1.3c0-1.7-1.8-2.6-5.3-2.6l-1.3,0h-0.4V169c2.7,0,4.5-0.3,5.3-0.7c0.6-0.4,1-0.9,1-1.6c0-1.2-0.8-1.9-2.5-2.3
		C262.6,164.3,262,164.3,261.3,164.3L261.3,164.3z"/>
</g>
<path id="path13174_00000011725323686096205240000011112464220045992341_" class="st4" d="M234.6,262.2c-2.1-2.2-5.7-2.2-7.9,0
	c-2.2,2.2-2.2,5.7,0,7.9c2.1,2.2,5.7,2.2,7.9,0C236.9,267.9,236.9,264.4,234.6,262.2C234.7,262.2,234.7,262.2,234.6,262.2z"/>
<g id="g13172_00000064318565005845528520000010063842224788028819_" class="st1">
	
		<ellipse id="ellipse13170_00000040568549671991314770000004994631646533756059_" class="st3" cx="61.7" cy="46.5" rx="30.5" ry="30.5"/>
</g>
<g id="g13160_00000181809994952634983960000006847284079911684483_" class="st1">
	
		<ellipse id="ellipse13158_00000011736805701008744140000017923677679734660503_" class="st2" cx="61.6" cy="31.5" rx="30.5" ry="30.5"/>
</g>
<path id="path14496_00000163036170562713751080000009474330965909718705_" inkscape:connector-curvature="0" sodipodi:nodetypes="cccc" class="st6" d="
	M38.7,21.7c-4,4.7-4.7,7.6-5.4,11.6l6.8,0.1C38.6,30.8,38.2,26.6,38.7,21.7z"/>
<path id="path14498_00000065761678346566876500000003534048111943576761_" sodipodi:argument="-17.855951" sodipodi:cx="197.5222" sodipodi:cy="17.012539" sodipodi:expansion="0" sodipodi:radius="34.011444" sodipodi:revolution="8.0200005" sodipodi:t0="0.99130303" sodipodi:type="spiral" class="st5" d="
	M38.6,41.4c-1.2-2.7-1.8-5.8-1.8-8.8"/>
<path id="path7711_00000113346273545443726650000004685726495342712971_" sodipodi:argument="-17.855951" sodipodi:cx="197.5222" sodipodi:cy="17.012539" sodipodi:expansion="0" sodipodi:radius="34.011444" sodipodi:revolution="8.0200005" sodipodi:t0="0.99130303" sodipodi:type="spiral" class="st5" d="
	M84.8,23.1c1.2,2.7,1.8,5.8,1.8,8.8"/>
<path id="path14492_00000011016458357794101320000001420467527446030234_" inkscape:connector-curvature="0" sodipodi:nodetypes="cccc" class="st6" d="
	M84.5,42.8c4-4.7,4.7-7.6,5.4-11.6l-6.8-0.1C84.6,33.6,85,37.9,84.5,42.8z"/>
<path id="path17109_00000183231438195920901530000017640227525333299351_" sodipodi:argument="-17.855951" sodipodi:cx="197.5222" sodipodi:cy="17.012539" sodipodi:expansion="0" sodipodi:radius="34.011444" sodipodi:revolution="8.0200005" sodipodi:t0="0.99130303" sodipodi:type="spiral" class="st8" d="
	M38.8,56.3c0.9,2.9,2.5,5.5,4.4,7.6"/>
<path id="path17107_00000098194437167962949830000002322560954846938799_" inkscape:connector-curvature="0" sodipodi:nodetypes="cccc" class="st6" d="
	M52.3,68.8c-5.9-0.2-8.3-1.7-11.4-4l4.8-5.3C46.3,62.3,48.7,65.7,52.3,68.8z"/>
<path id="path17111_00000101818738926608610940000003781611725215723195_" inkscape:connector-curvature="0" sodipodi:nodetypes="cccc" class="st6" d="
	M85.8,53.9c-0.2,6.4-1.6,9-3.7,12.4l-4.9-5.2C79.9,60.4,83,57.8,85.8,53.9z"/>
<path id="path17113_00000156550266519132148880000000741407990125460103_" sodipodi:argument="-17.855951" sodipodi:cx="197.5222" sodipodi:cy="17.012539" sodipodi:expansion="0" sodipodi:radius="34.011444" sodipodi:revolution="8.0200005" sodipodi:t0="0.99130303" sodipodi:type="spiral" class="st8" d="
	M73.6,67.7c2.6-1,5-2.7,7-4.8"/>
<path id="path13174_00000162323048757477924740000010556290855743874440_" class="st4" d="M65.6,27c-2.1-2.2-5.7-2.2-7.9,0
	c-2.2,2.2-2.2,5.7,0,7.9c2.1,2.2,5.7,2.2,7.9,0C67.8,32.7,67.8,29.1,65.6,27C65.7,27,65.7,27,65.6,27z"/>
<g id="g13160_00000009560857699474575050000012025903892973615775_" class="st1">
	
		<ellipse id="ellipse13158_00000168801701739012993110000012881289995327991187_" class="st2" cx="32.4" cy="122.2" rx="30.5" ry="30.5"/>
</g>
<g id="g13172_00000136395898752958165940000000516854998853009561_" class="st1">
	
		<ellipse id="ellipse13170_00000000216319524251898610000002824599429914899644_" class="st3" cx="33.3" cy="107.8" rx="30.5" ry="30.5"/>
</g>
<path id="path13174_00000148651992833652681160000001727129300314694546_" class="st4" d="M36.4,103.9c-2.1-2.2-5.7-2.2-7.9,0
	s-2.2,5.7,0,7.9c2.1,2.2,5.7,2.2,7.9,0C38.6,109.6,38.6,106,36.4,103.9C36.5,103.9,36.5,103.9,36.4,103.9z"/>
<path id="path7872_00000000910483360440744020000011249493106442223790_" sodipodi:argument="-17.855951" sodipodi:cx="197.5222" sodipodi:cy="17.012539" sodipodi:expansion="0" sodipodi:radius="34.011444" sodipodi:revolution="8.0200005" sodipodi:t0="0.99130303" sodipodi:type="spiral" class="st5" d="
	M11.6,99.8c-2.2,2.8-3.3,5.8-3.3,9"/>
<path id="path7870_00000062173536140501427660000004723147996293559192_" inkscape:connector-curvature="0" sodipodi:nodetypes="cccc" class="st6" d="
	M11.2,118.5c-3.9-4-4.7-6.6-5.3-10l6.7-0.1C11.2,110.5,10.8,114.2,11.2,118.5L11.2,118.5z"/>
<path id="path7874_00000123409336585210454520000001001066501091766458_" inkscape:connector-curvature="0" sodipodi:nodetypes="cccc" class="st6" d="
	M53.6,100c3.9,4,4.7,6.6,5.3,10l-6.7,0.1C53.6,107.9,54.1,104.2,53.6,100z"/>
<path id="path7876_00000042013045352991414670000007321110984595693203_" sodipodi:argument="-17.855951" sodipodi:cx="197.5222" sodipodi:cy="17.012539" sodipodi:expansion="0" sodipodi:radius="34.011444" sodipodi:revolution="8.0200005" sodipodi:t0="0.99130303" sodipodi:type="spiral" class="st5" d="
	M52.9,117.9c2.2-2.8,3.3-5.8,3.3-9"/>
<path id="path17071_00000158014251059114957050000009687569048848877221_" inkscape:connector-curvature="0" sodipodi:nodetypes="cccc" class="st6" d="
	M42,143.7c5.8-0.1,8.1-1.5,11.1-3.4l-4.7-4.5C47.9,138.2,45.5,141,42,143.7z"/>
<path id="path17073_00000119819983483798498640000017216715336433005734_" sodipodi:argument="-17.855951" sodipodi:cx="197.5222" sodipodi:cy="17.012539" sodipodi:expansion="0" sodipodi:radius="34.011444" sodipodi:revolution="8.0200005" sodipodi:t0="0.99130303" sodipodi:type="spiral" class="st8" d="
	M54.9,132.2c-1,2.4-2.4,4.4-4.4,6.2"/>
<path id="path17075_00000140705351608139577480000007811120604245360814_" inkscape:connector-curvature="0" sodipodi:nodetypes="cccc" class="st6" d="
	M7.1,128.8c0.1,5.3,1.4,7.4,3.3,10.1l4.4-4.3C12.5,134.2,9.7,132.1,7.1,128.8z"/>
<path id="path17077_00000042710673643891483890000002770263472877151373_" sodipodi:argument="-17.855951" sodipodi:cx="197.5222" sodipodi:cy="17.012539" sodipodi:expansion="0" sodipodi:radius="34.011444" sodipodi:revolution="8.0200005" sodipodi:t0="0.99130303" sodipodi:type="spiral" class="st8" d="
	M18.2,142c-2.4-1.3-4.8-3.5-6.7-6.2"/>
<g id="g13172_00000082337692127598523160000000832035560669945507_" class="st1">
	
		<ellipse id="ellipse13170_00000087385698855790167650000018020862245343490480_" class="st3" cx="32.1" cy="205.5" rx="30.5" ry="30.5"/>
</g>
<g id="g13160_00000111187964399418084340000011162007131509972883_" class="st1">
	
		<ellipse id="ellipse13158_00000174599238018414052690000005070151851523687848_" class="st2" cx="32.1" cy="190.5" rx="30.5" ry="30.5"/>
</g>
<path id="path14496_00000106836670948922518920000016825769334112914606_" inkscape:connector-curvature="0" sodipodi:nodetypes="cccc" class="st6" d="
	M9.1,180.7c-4,4.7-4.7,7.6-5.4,11.6l6.8,0.1C9.1,189.8,8.6,185.6,9.1,180.7z"/>
<path id="path14498_00000060026680353665281120000018145938331239744131_" sodipodi:argument="-17.855951" sodipodi:cx="197.5222" sodipodi:cy="17.012539" sodipodi:expansion="0" sodipodi:radius="34.011444" sodipodi:revolution="8.0200005" sodipodi:t0="0.99130303" sodipodi:type="spiral" class="st5" d="
	M9,200.4c-1.2-2.7-1.8-5.8-1.8-8.8"/>
<path id="path7711_00000057841998475136876090000006324769934788203415_" sodipodi:argument="-17.855951" sodipodi:cx="197.5222" sodipodi:cy="17.012539" sodipodi:expansion="0" sodipodi:radius="34.011444" sodipodi:revolution="8.0200005" sodipodi:t0="0.99130303" sodipodi:type="spiral" class="st5" d="
	M55.2,182.1c1.2,2.7,1.8,5.8,1.8,8.8"/>
<path id="path14492_00000091721653444014741600000009626754201396963513_" inkscape:connector-curvature="0" sodipodi:nodetypes="cccc" class="st6" d="
	M55,201.8c4-4.7,4.7-7.6,5.4-11.6l-6.8-0.1C55,192.6,55.4,196.9,55,201.8z"/>
<path id="path17109_00000095314604581022994370000012584346336201397397_" sodipodi:argument="-17.855951" sodipodi:cx="197.5222" sodipodi:cy="17.012539" sodipodi:expansion="0" sodipodi:radius="34.011444" sodipodi:revolution="8.0200005" sodipodi:t0="0.99130303" sodipodi:type="spiral" class="st8" d="
	M9.2,215.3c0.9,2.9,2.5,5.5,4.4,7.6"/>
<path id="path17107_00000008126417395606088970000003793402422447133119_" inkscape:connector-curvature="0" sodipodi:nodetypes="cccc" class="st6" d="
	M22.7,227.8c-5.9-0.2-8.3-1.7-11.4-4l4.8-5.3C16.7,221.3,19.1,224.7,22.7,227.8z"/>
<path id="path17111_00000075127272944826050220000017702634847731873426_" inkscape:connector-curvature="0" sodipodi:nodetypes="cccc" class="st6" d="
	M56.3,212.9c-0.2,6.4-1.6,9-3.7,12.4l-4.9-5.2C50.4,219.4,53.4,216.8,56.3,212.9z"/>
<path id="path17113_00000178894987787972148710000014352573188983564929_" sodipodi:argument="-17.855951" sodipodi:cx="197.5222" sodipodi:cy="17.012539" sodipodi:expansion="0" sodipodi:radius="34.011444" sodipodi:revolution="8.0200005" sodipodi:t0="0.99130303" sodipodi:type="spiral" class="st8" d="
	M44,226.7c2.6-1,5-2.7,7-4.8"/>
<path id="path13174_00000037683186162849156740000011232978139658385281_" class="st4" d="M36,186c-2.1-2.2-5.7-2.2-7.9,0
	s-2.2,5.7,0,7.9c2.1,2.2,5.7,2.2,7.9,0C38.2,191.7,38.2,188.1,36,186C36.1,186,36.1,186,36,186z"/>
<g id="g13160_00000104706297342454814180000008372743216125698467_" class="st1">
	
		<ellipse id="ellipse13158_00000144300909685873545000000016462707137190627490_" class="st2" cx="61.7" cy="281.1" rx="30.5" ry="30.5"/>
</g>
<g id="g13172_00000128482375078458080050000003635146676499641534_" class="st1">
	
		<ellipse id="ellipse13170_00000134946694693183476210000001161949993977368232_" class="st3" cx="61.6" cy="266.8" rx="30.5" ry="30.5"/>
</g>
<path id="path13174_00000026129508035631226940000010201063456095903381_" class="st4" d="M65.7,262.8c-2.1-2.2-5.7-2.2-7.9,0
	c-2.2,2.2-2.2,5.7,0,7.9c2.1,2.2,5.7,2.2,7.9,0C68,268.5,68,265,65.7,262.8C65.8,262.8,65.8,262.8,65.7,262.8z"/>
<path id="path7872_00000169521514852241627470000015386424837129782941_" sodipodi:argument="-17.855951" sodipodi:cx="197.5222" sodipodi:cy="17.012539" sodipodi:expansion="0" sodipodi:radius="34.011444" sodipodi:revolution="8.0200005" sodipodi:t0="0.99130303" sodipodi:type="spiral" class="st5" d="
	M40.9,258.7c-2.2,2.8-3.3,5.8-3.3,9"/>
<path id="path7870_00000006697173975563669260000003810730134920961215_" inkscape:connector-curvature="0" sodipodi:nodetypes="cccc" class="st6" d="
	M40.5,277.4c-3.9-4-4.7-6.6-5.3-10l6.7-0.1C40.5,269.5,40.1,273.2,40.5,277.4L40.5,277.4z"/>
<path id="path7874_00000106118840416226540640000005079424889917223839_" inkscape:connector-curvature="0" sodipodi:nodetypes="cccc" class="st6" d="
	M82.9,258.9c3.9,4,4.7,6.6,5.3,10l-6.7,0.1C82.9,266.9,83.4,263.2,82.9,258.9z"/>
<path id="path7876_00000102517127732253371110000009585470966119256454_" sodipodi:argument="-17.855951" sodipodi:cx="197.5222" sodipodi:cy="17.012539" sodipodi:expansion="0" sodipodi:radius="34.011444" sodipodi:revolution="8.0200005" sodipodi:t0="0.99130303" sodipodi:type="spiral" class="st5" d="
	M82.2,276.9c2.2-2.8,3.3-5.8,3.3-9"/>
<path id="path17071_00000069386893867185118060000004667496540764511661_" inkscape:connector-curvature="0" sodipodi:nodetypes="cccc" class="st6" d="
	M71.3,302.7c5.8-0.1,8.1-1.5,11.1-3.4l-4.7-4.5C77.2,297.2,74.8,300,71.3,302.7z"/>
<path id="path17073_00000016066836366381909280000014846234276756910245_" sodipodi:argument="-17.855951" sodipodi:cx="197.5222" sodipodi:cy="17.012539" sodipodi:expansion="0" sodipodi:radius="34.011444" sodipodi:revolution="8.0200005" sodipodi:t0="0.99130303" sodipodi:type="spiral" class="st8" d="
	M84.2,291.1c-1,2.4-2.4,4.4-4.4,6.2"/>
<path id="path17075_00000075148963524883868560000015457786093146562947_" inkscape:connector-curvature="0" sodipodi:nodetypes="cccc" class="st6" d="
	M36.4,287.8c0.1,5.3,1.4,7.4,3.3,10.1l4.4-4.3C41.8,293.1,39,291,36.4,287.8z"/>
<path id="path17077_00000147198429350864313030000006277844459570895240_" sodipodi:argument="-17.855951" sodipodi:cx="197.5222" sodipodi:cy="17.012539" sodipodi:expansion="0" sodipodi:radius="34.011444" sodipodi:revolution="8.0200005" sodipodi:t0="0.99130303" sodipodi:type="spiral" class="st8" d="
	M47.5,301c-2.4-1.3-4.8-3.5-6.7-6.2"/>
<g id="text17117">
	<path id="path17159" class="st7" d="M68.8,241.4v1.8H58.4l-1,4.1c1.4-0.6,3-0.9,4.7-0.9c2.8,0,5,0.6,6.5,1.8
		c1.1,0.8,1.6,1.9,1.6,3.1c0,1.8-1,3.1-3.1,4.1c-1.5,0.7-3.4,1.1-5.5,1.1c-4.6,0-7.4-1.3-8.3-3.9c0,0,0-0.1-0.1-0.2h3.1
		c0.8,1.6,2.5,2.4,5.2,2.4c2.4,0,4-0.6,4.9-1.7c0.4-0.5,0.6-1.1,0.6-1.7c0-1.5-0.9-2.5-2.7-3.1c-0.8-0.3-1.8-0.4-2.8-0.4
		c-1.5,0-2.8,0.3-3.9,0.9c-0.2,0.2-0.5,0.3-0.7,0.5h-2.9l1.9-7.9H68.8z"/>
</g>
<g id="text11694">
	<path id="path17153" class="st7" d="M24.3,171.7c0-4.2,2.1-6.8,6.2-7.6c0.9-0.2,1.9-0.3,3-0.3c2.8,0,4.8,0.6,6.1,1.9
		c0.6,0.5,0.9,1.2,1.1,1.9h-3.2c-0.4-1.2-1.5-1.9-3.3-2.1c-0.3,0-0.7-0.1-1-0.1c-2.7,0-4.4,1-5.2,3c-0.3,0.8-0.4,1.6-0.5,2.6
		c1.4-1.1,3.4-1.6,5.9-1.6c2.7,0,4.8,0.6,6.3,1.7c1.1,0.8,1.6,1.8,1.6,2.9c0,1.6-1,2.9-3,3.8c-1.5,0.7-3.3,1.1-5.4,1.1
		C27.2,178.8,24.3,176.4,24.3,171.7L24.3,171.7z M33.1,170.9c-2,0-3.6,0.5-4.5,1.4c-0.5,0.5-0.8,1.1-0.8,1.7c0,1.2,0.7,2.1,2.2,2.7
		c0.9,0.4,1.9,0.6,3,0.6c1.8,0,3.2-0.4,4.2-1.3c0.6-0.5,0.9-1.2,0.9-1.9c0-1.4-0.9-2.3-2.6-2.8C34.8,171,34,170.9,33.1,170.9z"/>
</g>
<g id="text17133">
	<path id="path17150" class="st7" d="M41.9,82.1v1.6c-4.8,3.8-8,7.6-9.6,11.4c-0.3,0.7-0.5,1.3-0.7,2h-3.4c1.2-3.1,2.9-5.8,5.1-8.2
		c1.3-1.4,3.1-3.1,5.3-4.9H24.9v-1.8L41.9,82.1z"/>
</g>
<g id="text17081">
	<path id="path17141" class="st7" d="M66.6,11c2.9,0.8,4.3,2,4.4,3.6c0,1.5-1,2.7-3.1,3.5c-1.5,0.6-3.3,0.9-5.4,0.9
		c-3,0-5.2-0.6-6.8-1.7c-1.1-0.8-1.7-1.7-1.7-2.8c0-1.6,1.5-2.8,4.3-3.6c-1.7-0.6-2.8-1.3-3.1-1.9c-0.2-0.3-0.3-0.7-0.3-1.1
		c0-1.4,1-2.4,2.9-3.1c1.3-0.5,2.9-0.8,4.7-0.8c2.8,0,4.8,0.5,6.2,1.6C69.6,6.3,70,7.1,70,8c0,0.9-0.5,1.7-1.6,2.2
		C67.9,10.5,67.3,10.7,66.6,11z M62.4,5.7c-1.9,0-3.2,0.4-4,1.2C58.2,7.2,58,7.6,58,8c0,1,0.7,1.6,2.2,2c0.7,0.2,1.4,0.3,2.2,0.3
		c1.9,0,3.2-0.4,3.9-1.2c0.3-0.3,0.5-0.7,0.5-1.1c0-1-0.8-1.7-2.3-2.1C63.9,5.8,63.2,5.7,62.4,5.7z M62.4,11.8
		c-2.1,0-3.6,0.4-4.6,1.3c-0.5,0.5-0.7,1-0.7,1.5c0,1.1,0.8,1.9,2.4,2.5c0.8,0.3,1.8,0.4,2.9,0.4c2.2,0,3.7-0.4,4.6-1.3
		c0.5-0.5,0.7-1,0.7-1.5c0-1.1-0.8-1.9-2.4-2.5C64.5,11.9,63.5,11.8,62.4,11.8L62.4,11.8z"/>
</g>
<path class="st9" d="M172.5,292.9H153l0.5-13H172c5.5,0,9.9-16.2,9.9-36.3V56.2c0-20-4.4-36.3-9.9-36.3l-51.2,0
	c-5.5,0-9.9,16.2-9.9,36.3v187.4c0,20,4.4,36.3,9.9,36.3h18.6l0.5,13h-19.5c0,0-13.3,0.7-24,26h100
	C185.7,293.6,172.5,292.9,172.5,292.9z"/>
<polygon class="st10" points="107.8,318.8 107.8,305.8 185.9,305.8 185.9,318.8 "/>
<polygon class="st10" points="149.3,318.6 144.4,318.6 142.4,292.9 151.3,292.9 "/>
<polygon id="polygon13168" class="st11" points="128.3,161.8 146.4,110.8 164.6,161.8 "/>
</svg>
