<?xml version="1.0" encoding="UTF-8" standalone="no"?>
<!-- Generator: Adobe Illustrator 19.2.0, SVG Export Plug-In . SVG Version: 6.00 Build 0)  -->

<svg
   xmlns:dc="http://purl.org/dc/elements/1.1/"
   xmlns:cc="http://creativecommons.org/ns#"
   xmlns:rdf="http://www.w3.org/1999/02/22-rdf-syntax-ns#"
   xmlns:svg="http://www.w3.org/2000/svg"
   xmlns="http://www.w3.org/2000/svg"
   xmlns:sodipodi="http://sodipodi.sourceforge.net/DTD/sodipodi-0.dtd"
   xmlns:inkscape="http://www.inkscape.org/namespaces/inkscape"
   version="1.1"
   id="draw"
   x="0px"
   y="0px"
   viewBox="0 0 292.891 321.77"
   enable-background="new 0 0 292.891 321.77"
   xml:space="preserve"
   sodipodi:docname="VTOLPlaneOcto.svg"
   inkscape:version="0.92.4 (unknown)"><metadata
     id="metadata13199"><rdf:RDF><cc:Work
         rdf:about=""><dc:format>image/svg+xml</dc:format><dc:type
           rdf:resource="http://purl.org/dc/dcmitype/StillImage" /><dc:title>OctoRotorXCoaxial</dc:title></cc:Work></rdf:RDF></metadata><defs
     id="defs13197" /><sodipodi:namedview
     pagecolor="#ffffff"
     bordercolor="#666666"
     borderopacity="1"
     objecttolerance="10"
     gridtolerance="10"
     guidetolerance="10"
     inkscape:pageopacity="0"
     inkscape:pageshadow="2"
     inkscape:window-width="1920"
     inkscape:window-height="1052"
     id="namedview13195"
     showgrid="false"
     inkscape:zoom="2.9337726"
     inkscape:cx="104.04248"
     inkscape:cy="162.86264"
     inkscape:window-x="0"
     inkscape:window-y="696"
     inkscape:window-maximized="1"
     inkscape:current-layer="draw" /><title
     id="title13144">OctoRotorXCoaxial</title><g
     id="g13148"
     transform="matrix(0.76316236,0,0,0.76316236,34.150314,23.129525)"
     style="opacity:0.8"><ellipse
       transform="matrix(0.7051,-0.7091,0.7091,0.7051,-42.389,60.0411)"
       cx="50.998001"
       cy="80.987999"
       rx="50.993"
       ry="51.004002"
       id="ellipse13146"
       style="fill:#4ec3e8" /></g><g
     id="g13152"
     transform="matrix(0.76316236,0,0,0.76316236,34.150314,49.034737)"
     style="opacity:0.8"><ellipse
       transform="matrix(0.7091,-0.7051,0.7051,0.7091,-175.5156,116.1654)"
       cx="53.018002"
       cy="270.78299"
       rx="50.993"
       ry="51.004002"
       id="ellipse13150"
       style="fill:#159e1f" /></g><g
     id="g13156"
     transform="matrix(0.76316236,0,0,0.76316236,34.150314,49.034737)"
     style="opacity:0.8"><ellipse
       transform="matrix(0.7051,-0.7091,0.7091,0.7051,-120.5748,251.2775)"
       cx="241.845"
       cy="270.616"
       rx="50.993"
       ry="51.004002"
       id="ellipse13154"
       style="fill:#4ec3e8" /></g><rect
     x="72.226921"
     y="61.161083"
     stroke-miterlimit="10"
     width="4.7898145"
     height="173.86984"
     id="rect31063"
     style="fill:#ffffff;stroke:#000000;stroke-width:0.82967287;stroke-miterlimit:10" /><g
     id="g13160"
     transform="matrix(0.76316236,0,0,0.76316236,34.150314,23.129525)"
     style="opacity:0.8"><ellipse
       transform="matrix(0.7091,-0.7051,0.7051,0.7091,12.8117,194.3173)"
       cx="241.89101"
       cy="81.633003"
       rx="50.993"
       ry="51.004002"
       id="ellipse13158"
       style="fill:#159e1f" /></g><rect
     x="215.87645"
     y="62.943363"
     stroke-miterlimit="10"
     width="4.7898145"
     height="172.08757"
     id="rect31065"
     style="fill:#ffffff;stroke:#000000;stroke-width:0.82540953;stroke-miterlimit:10" /><path
     style="opacity:1;fill:#ffffff;fill-opacity:1;fill-rule:evenodd;stroke:none;stroke-width:0.76447505px;stroke-linecap:butt;stroke-linejoin:miter;stroke-opacity:1"
     d="m 190.51259,101.47758 c 1.85956,7.80878 4.43244,10.63542 8.05618,14.18814 l 5.19676,-7.73314 c -3.6923,-0.0749 -8.41408,-2.49425 -13.25294,-6.455 z"
     id="path7831-5"
     inkscape:connector-curvature="0"
     sodipodi:nodetypes="cccc"
     inkscape:transform-center-x="21.356759"
     inkscape:transform-center-y="26.713495" /><path
     sodipodi:nodetypes="cccc"
     inkscape:connector-curvature="0"
     id="path17111"
     d="m 101.2624,101.67213 c -2.112632,7.74414 -4.776128,10.48557 -8.513524,13.91852 l -4.94242,-7.89812 c 3.692788,0.0453 8.490776,-2.21918 13.455944,-6.0204 z"
     style="opacity:1;fill:#ffffff;fill-opacity:1;fill-rule:evenodd;stroke:none;stroke-width:0.76447505px;stroke-linecap:butt;stroke-linejoin:miter;stroke-opacity:1"
     inkscape:transform-center-x="-20.441325"
     inkscape:transform-center-y="23.311644" /><g
     id="g13172"
     transform="matrix(0.76316236,0,0,0.76316236,34.150314,23.129525)"
     style="opacity:0.8"><ellipse
       transform="matrix(0.7091,-0.7051,0.7051,0.7091,33.9659,185.5891)"
       cx="241.89101"
       cy="51.632999"
       rx="50.993"
       ry="51.004002"
       id="ellipse13170"
       style="fill:#4ec3e8" /></g><path
     stroke-miterlimit="10"
     d="m 224.81269,56.482778 c -3.33807,-3.34571 -8.75576,-3.35258 -12.10223,-0.0145 -3.3457,3.33808 -3.35257,8.75577 -0.0145,12.10223 3.33121,3.33884 8.73592,3.35334 12.08468,0.0321 3.35563,-3.30831 3.39302,-8.71074 0.0847,-12.06636 -0.0175,-0.0183 -0.0351,-0.0359 -0.0527,-0.0534 z"
     id="path13174"
     inkscape:connector-curvature="0"
     style="fill:#ffffff;stroke:#000000;stroke-width:0.76316237;stroke-miterlimit:10" /><g
     id="g13178"
     transform="matrix(0.76316236,0,0,0.76316236,34.150314,49.034737)"
     style="opacity:0.8"><ellipse
       transform="matrix(0.7091,-0.7051,0.7051,0.7091,-154.3615,107.4372)"
       cx="53.018002"
       cy="240.783"
       rx="50.993"
       ry="51.004002"
       id="ellipse13176"
       style="fill:#4ec3e8" /></g><path
     stroke-miterlimit="10"
     d="m 68.553673,238.82557 c 3.338072,3.34571 8.755762,3.35258 12.102229,0.0145 3.345704,-3.33807 3.352572,-8.75576 0.0145,-12.10222 -3.331204,-3.33884 -8.73592,-3.35334 -12.084676,-0.0321 -3.355625,3.30831 -3.39302,8.71074 -0.08471,12.06636 0.01755,0.0183 0.03511,0.0359 0.05266,0.0534 z"
     id="path13180"
     inkscape:connector-curvature="0"
     style="fill:#ffffff;stroke:#000000;stroke-width:0.76316237;stroke-miterlimit:10" /><g
     id="g13184"
     transform="matrix(0.76316236,0,0,0.76316236,34.150314,23.129525)"
     style="opacity:0.8"><ellipse
       transform="matrix(0.7051,-0.7091,0.7091,0.7051,-20.6859,52.2355)"
       cx="52.464001"
       cy="50.990002"
       rx="50.993"
       ry="51.004002"
       id="ellipse13182"
       style="fill:#159e1f" /></g><path
     stroke-miterlimit="10"
     d="m 80.231584,55.990538 c 3.345703,3.33807 3.352572,8.75576 0.0145,12.10222 -3.338073,3.34571 -8.755762,3.35258 -12.102229,0.0145 -3.338835,-3.3312 -3.353335,-8.73592 -0.03205,-12.08467 3.308309,-3.35563 8.710735,-3.39302 12.06636,-0.0847 0.01832,0.0175 0.03587,0.0351 0.05342,0.0527 z"
     id="path13186"
     inkscape:connector-curvature="0"
     style="fill:#ffffff;stroke:#000000;stroke-width:0.76316237;stroke-miterlimit:10" /><g
     id="g13190"
     transform="matrix(0.76316236,0,0,0.76316236,34.150314,49.034737)"
     style="opacity:0.8"><ellipse
       transform="matrix(0.7051,-0.7091,0.7091,0.7051,-99.3026,242.4316)"
       cx="241.845"
       cy="240.616"
       rx="50.993"
       ry="51.004002"
       id="ellipse13188"
       style="fill:#159e1f" /></g><path
     stroke-miterlimit="10"
     d="m 212.6746,238.73018 c -3.34571,-3.33807 -3.35258,-8.75576 -0.0145,-12.10223 3.33807,-3.3457 8.75576,-3.35257 12.10222,-0.0145 3.33884,3.3312 3.35334,8.73592 0.0321,12.08468 -3.30831,3.35562 -8.71074,3.39302 -12.06636,0.0847 -0.0183,-0.0176 -0.0359,-0.0351 -0.0534,-0.0527 z"
     id="path13192"
     inkscape:connector-curvature="0"
     style="fill:#ffffff;stroke:#000000;stroke-width:0.76316237;stroke-miterlimit:10" /><path
     sodipodi:nodetypes="cccc"
     inkscape:connector-curvature="0"
     id="path7676"
     d="m 102.98389,76.281738 c 5.49483,-5.83273 6.44225,-9.52894 7.41924,-14.49989 l -9.30058,-0.0954 c 1.96196,3.12132 2.5325,8.38691 1.88134,14.59529 z"
     style="opacity:1;fill:#ffffff;fill-opacity:1;fill-rule:evenodd;stroke:none;stroke-width:0.76316237px;stroke-linecap:butt;stroke-linejoin:miter;stroke-opacity:1" /><path
     sodipodi:type="spiral"
     style="opacity:1;fill:none;fill-opacity:1;fill-rule:evenodd;stroke:#ffffec;stroke-width:2.51338577;stroke-linecap:butt;stroke-linejoin:miter;stroke-miterlimit:4;stroke-dasharray:none;stroke-opacity:1"
     id="path7711"
     sodipodi:cx="197.5222"
     sodipodi:cy="17.012539"
     sodipodi:expansion="0"
     sodipodi:revolution="8.0200005"
     sodipodi:radius="34.011444"
     sodipodi:argument="-17.855951"
     sodipodi:t0="0.99130303"
     d="m 223.94673,38.425681 c -3.13084,3.863564 -7.10954,7.019918 -11.58403,9.189766"
     transform="matrix(0.33278681,-0.68678215,0.68678215,0.33278681,2.4826868,191.78659)" /><path
     style="opacity:1;fill:#ffffff;fill-opacity:1;fill-rule:evenodd;stroke:none;stroke-width:0.76316237px;stroke-linecap:butt;stroke-linejoin:miter;stroke-opacity:1"
     d="m 44.844589,47.801008 c -5.494822,5.83273 -6.442243,9.52894 -7.419235,14.49989 l 9.300575,0.0954 c -1.961961,-3.12132 -2.532493,-8.38691 -1.88134,-14.59529 z"
     id="path7831"
     inkscape:connector-curvature="0"
     sodipodi:nodetypes="cccc" /><path
     transform="matrix(-0.33278682,0.68678214,-0.68678214,-0.33278682,145.34581,-67.703842)"
     d="m 223.94673,38.425681 c -3.13084,3.863564 -7.10954,7.019918 -11.58403,9.189766"
     sodipodi:t0="0.99130303"
     sodipodi:argument="-17.855951"
     sodipodi:radius="34.011444"
     sodipodi:revolution="8.0200005"
     sodipodi:expansion="0"
     sodipodi:cy="17.012539"
     sodipodi:cx="197.5222"
     id="path7833"
     style="opacity:1;fill:none;fill-opacity:1;fill-rule:evenodd;stroke:#ffffec;stroke-width:2.51338577;stroke-linecap:butt;stroke-linejoin:miter;stroke-miterlimit:4;stroke-dasharray:none;stroke-opacity:1"
     sodipodi:type="spiral" /><path
     style="opacity:1;fill:#ffffff;fill-opacity:1;fill-rule:evenodd;stroke:none;stroke-width:0.76316237px;stroke-linecap:butt;stroke-linejoin:miter;stroke-opacity:1"
     d="m 102.98389,76.281738 c 5.49483,-5.83273 6.44225,-9.52894 7.41924,-14.49989 l -9.30058,-0.0954 c 1.96196,3.12132 2.5325,8.38691 1.88134,14.59529 z"
     id="path14492"
     inkscape:connector-curvature="0"
     sodipodi:nodetypes="cccc" /><path
     transform="matrix(0.33278681,-0.68678215,0.68678215,0.33278681,2.4826868,191.78659)"
     d="m 223.94673,38.425681 c -3.13084,3.863564 -7.10954,7.019918 -11.58403,9.189766"
     sodipodi:t0="0.99130303"
     sodipodi:argument="-17.855951"
     sodipodi:radius="34.011444"
     sodipodi:revolution="8.0200005"
     sodipodi:expansion="0"
     sodipodi:cy="17.012539"
     sodipodi:cx="197.5222"
     id="path14494"
     style="opacity:1;fill:none;fill-opacity:1;fill-rule:evenodd;stroke:#ffffec;stroke-width:2.51338577;stroke-linecap:butt;stroke-linejoin:miter;stroke-miterlimit:4;stroke-dasharray:none;stroke-opacity:1"
     sodipodi:type="spiral" /><path
     sodipodi:nodetypes="cccc"
     inkscape:connector-curvature="0"
     id="path14496"
     d="m 44.844589,47.801008 c -5.494822,5.83273 -6.442243,9.52894 -7.419235,14.49989 l 9.300575,0.0954 c -1.961961,-3.12132 -2.532493,-8.38691 -1.88134,-14.59529 z"
     style="opacity:1;fill:#ffffff;fill-opacity:1;fill-rule:evenodd;stroke:none;stroke-width:0.76316237px;stroke-linecap:butt;stroke-linejoin:miter;stroke-opacity:1" /><path
     sodipodi:type="spiral"
     style="opacity:1;fill:none;fill-opacity:1;fill-rule:evenodd;stroke:#ffffec;stroke-width:2.51338577;stroke-linecap:butt;stroke-linejoin:miter;stroke-miterlimit:4;stroke-dasharray:none;stroke-opacity:1"
     id="path14498"
     sodipodi:cx="197.5222"
     sodipodi:cy="17.012539"
     sodipodi:expansion="0"
     sodipodi:revolution="8.0200005"
     sodipodi:radius="34.011444"
     sodipodi:argument="-17.855951"
     sodipodi:t0="0.99130303"
     d="m 223.94673,38.425681 c -3.13084,3.863564 -7.10954,7.019918 -11.58403,9.189766"
     transform="matrix(-0.33278682,0.68678214,-0.68678214,-0.33278682,145.34581,-67.703842)" /><g
     aria-label="2"
     style="font-style:normal;font-variant:normal;font-weight:normal;font-stretch:normal;font-size:33.33333588px;line-height:125%;font-family:sans-serif;-inkscape-font-specification:sans-serif;letter-spacing:0px;word-spacing:0px;fill:#ffffff;fill-opacity:1;stroke:none;stroke-width:1px;stroke-linecap:butt;stroke-linejoin:miter;stroke-opacity:1"
     id="text14502"
     transform="matrix(0.76316236,0,0,0.76316236,34.150314,23.129525)"><path
       d="m 46.114657,15.460476 q 0.266667,-8.1666675 7.800001,-8.2000009 4.033333,0 6.166667,2.6666669 1.4,1.833333 1.4,4.266667 -0.03333,4.4 -5,7.133334 l -3.333334,1.8 q -3.1,1.666667 -3.9,3.533334 -0.266667,0.6 -0.366667,1.333333 h 12.433334 v 2.9 H 45.581324 q 0.233333,-4.266667 1.9,-6.5 1.433333,-1.866667 4.733334,-3.733334 l 3.066667,-1.733333 q 3.166666,-1.866667 3.2,-4.666667 0,-2.400001 -2,-3.700001 -1.166667,-0.733333 -2.666667,-0.733333 -4.366667,0 -4.766667,5.433334 0,0.1 0,0.2 z"
       style="font-style:normal;font-variant:normal;font-weight:normal;font-stretch:normal;font-size:33.33333588px;font-family:FreeSans;-inkscape-font-specification:FreeSans;fill:#ffffff;fill-opacity:1"
       id="path17162"
       inkscape:connector-curvature="0" /></g><path
     sodipodi:nodetypes="cccc"
     inkscape:connector-curvature="0"
     id="path7676-2"
     d="m 247.37391,246.9982 c 5.49482,-5.83272 6.44224,-9.52893 7.41923,-14.49989 l -9.30057,-0.0954 c 1.96196,3.12132 2.53249,8.38691 1.88134,14.59529 z"
     style="opacity:1;fill:#ffffff;fill-opacity:1;fill-rule:evenodd;stroke:none;stroke-width:0.76316237px;stroke-linecap:butt;stroke-linejoin:miter;stroke-opacity:1" /><path
     sodipodi:type="spiral"
     style="opacity:1;fill:none;fill-opacity:1;fill-rule:evenodd;stroke:#ffffec;stroke-width:2.51338577;stroke-linecap:butt;stroke-linejoin:miter;stroke-miterlimit:4;stroke-dasharray:none;stroke-opacity:1"
     id="path7711-9"
     sodipodi:cx="197.5222"
     sodipodi:cy="17.012539"
     sodipodi:expansion="0"
     sodipodi:revolution="8.0200005"
     sodipodi:radius="34.011444"
     sodipodi:argument="-17.855951"
     sodipodi:t0="0.99130303"
     d="m 223.94673,38.425681 c -3.13084,3.863564 -7.10954,7.019918 -11.58403,9.189766"
     transform="matrix(0.33278681,-0.68678215,0.68678215,0.33278681,146.8727,362.50305)" /><path
     style="opacity:1;fill:#ffffff;fill-opacity:1;fill-rule:evenodd;stroke:none;stroke-width:0.76316237px;stroke-linecap:butt;stroke-linejoin:miter;stroke-opacity:1"
     d="m 189.23461,218.51747 c -5.49483,5.83273 -6.44225,9.52894 -7.41924,14.4999 l 9.30058,0.0954 c -1.96196,-3.12132 -2.5325,-8.38691 -1.88134,-14.59529 z"
     id="path7831-7"
     inkscape:connector-curvature="0"
     sodipodi:nodetypes="cccc" /><path
     transform="matrix(-0.33278682,0.68678214,-0.68678214,-0.33278682,289.73582,103.01261)"
     d="m 223.94673,38.425681 c -3.13084,3.863564 -7.10954,7.019918 -11.58403,9.189766"
     sodipodi:t0="0.99130303"
     sodipodi:argument="-17.855951"
     sodipodi:radius="34.011444"
     sodipodi:revolution="8.0200005"
     sodipodi:expansion="0"
     sodipodi:cy="17.012539"
     sodipodi:cx="197.5222"
     id="path7833-9"
     style="opacity:1;fill:none;fill-opacity:1;fill-rule:evenodd;stroke:#ffffec;stroke-width:2.51338577;stroke-linecap:butt;stroke-linejoin:miter;stroke-miterlimit:4;stroke-dasharray:none;stroke-opacity:1"
     sodipodi:type="spiral" /><g
     aria-label="4"
     style="font-style:normal;font-variant:normal;font-weight:normal;font-stretch:normal;font-size:33.33333588px;line-height:125%;font-family:sans-serif;-inkscape-font-specification:sans-serif;letter-spacing:0px;word-spacing:0px;fill:#ffffff;fill-opacity:1;stroke:none;stroke-width:1px;stroke-linecap:butt;stroke-linejoin:miter;stroke-opacity:1"
     id="text7999-0"
     transform="matrix(0.76316236,0,0,0.76316236,34.150314,49.034737)"><path
       d="m 244.11048,279.23281 h -9.96667 v -3.1 l 10.73334,-14.86667 h 2.16666 v 15.33333 h 3.5 v 2.63334 h -3.5 v 5.66667 h -2.93333 z m 0,-2.63334 v -10.33333 l -7.4,10.33333 z"
       style="font-style:normal;font-variant:normal;font-weight:normal;font-stretch:normal;font-size:33.33333588px;font-family:FreeSans;-inkscape-font-specification:FreeSans;fill:#ffffff;fill-opacity:1"
       id="path17147"
       inkscape:connector-curvature="0" /></g><path
     style="opacity:1;fill:#ffffff;fill-opacity:1;fill-rule:evenodd;stroke:none;stroke-width:0.76316237px;stroke-linecap:butt;stroke-linejoin:miter;stroke-opacity:1"
     d="m 188.93751,76.663588 c -5.49481,-5.83273 -6.44223,-9.52894 -7.41922,-14.4999 l 9.30056,-0.0954 c -1.96196,3.12132 -2.53249,8.38691 -1.88134,14.59529 z"
     id="path7870"
     inkscape:connector-curvature="0"
     sodipodi:nodetypes="cccc" /><path
     transform="matrix(-0.33278681,-0.68678215,-0.68678215,0.33278681,289.43874,192.16844)"
     d="m 223.94673,38.425681 c -3.13084,3.863564 -7.10954,7.019918 -11.58403,9.189766"
     sodipodi:t0="0.99130303"
     sodipodi:argument="-17.855951"
     sodipodi:radius="34.011444"
     sodipodi:revolution="8.0200005"
     sodipodi:expansion="0"
     sodipodi:cy="17.012539"
     sodipodi:cx="197.5222"
     id="path7872"
     style="opacity:1;fill:none;fill-opacity:1;fill-rule:evenodd;stroke:#ffffec;stroke-width:2.51338577;stroke-linecap:butt;stroke-linejoin:miter;stroke-miterlimit:4;stroke-dasharray:none;stroke-opacity:1"
     sodipodi:type="spiral" /><path
     sodipodi:nodetypes="cccc"
     inkscape:connector-curvature="0"
     id="path7874"
     d="m 247.07682,48.182858 c 5.49482,5.83272 6.44224,9.52894 7.41923,14.49989 l -9.30057,0.0954 c 1.96196,-3.12131 2.53249,-8.38691 1.88134,-14.59529 z"
     style="opacity:1;fill:#ffffff;fill-opacity:1;fill-rule:evenodd;stroke:none;stroke-width:0.76316237px;stroke-linecap:butt;stroke-linejoin:miter;stroke-opacity:1" /><path
     sodipodi:type="spiral"
     style="opacity:1;fill:none;fill-opacity:1;fill-rule:evenodd;stroke:#ffffec;stroke-width:2.51338577;stroke-linecap:butt;stroke-linejoin:miter;stroke-miterlimit:4;stroke-dasharray:none;stroke-opacity:1"
     id="path7876"
     sodipodi:cx="197.5222"
     sodipodi:cy="17.012539"
     sodipodi:expansion="0"
     sodipodi:revolution="8.0200005"
     sodipodi:radius="34.011444"
     sodipodi:argument="-17.855951"
     sodipodi:t0="0.99130303"
     d="m 223.94673,38.425681 c -3.13084,3.863564 -7.10954,7.019918 -11.58403,9.189766"
     transform="matrix(0.33278682,0.68678215,0.68678215,-0.33278682,146.57561,-67.321996)" /><g
     aria-label="1"
     style="font-style:normal;font-variant:normal;font-weight:normal;font-stretch:normal;font-size:33.33333588px;line-height:125%;font-family:sans-serif;-inkscape-font-specification:sans-serif;letter-spacing:0px;word-spacing:0px;fill:#ffffff;fill-opacity:1;stroke:none;stroke-width:1px;stroke-linecap:butt;stroke-linejoin:miter;stroke-opacity:1"
     id="text7991"
     transform="matrix(0.76316236,0,0,0.76316236,34.150314,23.129525)"><path
       d="m 242.64841,13.680272 h -5.23333 v -2.1 q 3.4,-0.433333 4.4,-1.2 1,-0.7333332 1.7,-3.1000001 0.0667,-0.2 0.13333,-0.4 h 1.93333 V 30.513607 h -2.93333 z"
       style="font-style:normal;font-variant:normal;font-weight:normal;font-stretch:normal;font-size:33.33333588px;font-family:FreeSans;-inkscape-font-specification:FreeSans;fill:#ffffff;fill-opacity:1"
       id="path17156"
       inkscape:connector-curvature="0" /></g><path
     style="opacity:1;fill:#ffffff;fill-opacity:1;fill-rule:evenodd;stroke:none;stroke-width:0.76316237px;stroke-linecap:butt;stroke-linejoin:miter;stroke-opacity:1"
     d="m 44.523565,246.8278 c -5.494822,-5.83273 -6.442242,-9.52894 -7.419235,-14.4999 l 9.300576,-0.0954 c -1.961961,3.12132 -2.532494,8.38691 -1.881341,14.59529 z"
     id="path7870-5"
     inkscape:connector-curvature="0"
     sodipodi:nodetypes="cccc" /><path
     transform="matrix(-0.33278681,-0.68678215,-0.68678215,0.33278681,145.02479,362.33266)"
     d="m 223.94673,38.425681 c -3.13084,3.863564 -7.10954,7.019918 -11.58403,9.189766"
     sodipodi:t0="0.99130303"
     sodipodi:argument="-17.855951"
     sodipodi:radius="34.011444"
     sodipodi:revolution="8.0200005"
     sodipodi:expansion="0"
     sodipodi:cy="17.012539"
     sodipodi:cx="197.5222"
     id="path7872-2"
     style="opacity:1;fill:none;fill-opacity:1;fill-rule:evenodd;stroke:#ffffec;stroke-width:2.51338577;stroke-linecap:butt;stroke-linejoin:miter;stroke-miterlimit:4;stroke-dasharray:none;stroke-opacity:1"
     sodipodi:type="spiral" /><path
     sodipodi:nodetypes="cccc"
     inkscape:connector-curvature="0"
     id="path7874-1"
     d="m 102.66287,218.34707 c 5.49482,5.83272 6.44224,9.52894 7.41923,14.49989 l -9.30057,0.0954 c 1.96196,-3.12132 2.53249,-8.38691 1.88134,-14.59529 z"
     style="opacity:1;fill:#ffffff;fill-opacity:1;fill-rule:evenodd;stroke:none;stroke-width:0.76316237px;stroke-linecap:butt;stroke-linejoin:miter;stroke-opacity:1" /><path
     sodipodi:type="spiral"
     style="opacity:1;fill:none;fill-opacity:1;fill-rule:evenodd;stroke:#ffffec;stroke-width:2.51338577;stroke-linecap:butt;stroke-linejoin:miter;stroke-miterlimit:4;stroke-dasharray:none;stroke-opacity:1"
     id="path7876-6"
     sodipodi:cx="197.5222"
     sodipodi:cy="17.012539"
     sodipodi:expansion="0"
     sodipodi:revolution="8.0200005"
     sodipodi:radius="34.011444"
     sodipodi:argument="-17.855951"
     sodipodi:t0="0.99130303"
     d="m 223.94673,38.425681 c -3.13084,3.863564 -7.10954,7.019918 -11.58403,9.189766"
     transform="matrix(0.33278682,0.68678215,0.68678215,-0.33278682,2.1616588,102.84223)" /><g
     aria-label="3"
     style="font-style:normal;font-variant:normal;font-weight:normal;font-stretch:normal;font-size:33.33333588px;line-height:125%;font-family:sans-serif;-inkscape-font-specification:sans-serif;letter-spacing:0px;word-spacing:0px;fill:#ffffff;fill-opacity:1;stroke:none;stroke-width:1px;stroke-linecap:butt;stroke-linejoin:miter;stroke-opacity:1"
     id="text7991-1"
     transform="matrix(0.76316236,0,0,0.76316236,34.150314,49.034737)"><path
       d="m 53.084771,264.09944 q -3.8,0 -4.4,3.66667 -0.06667,0.63333 -0.1,1.4 h -2.933334 q 0.133333,-7 6.333334,-7.6 0.533333,-0.0333 1.066667,-0.0333 4.666667,0 6.4,3.13334 0.8,1.46666 0.8,3.36666 -0.03333,3.6 -3.3,4.9 3.1,1.06667 3.766667,3.6 0.233333,0.9 0.233333,2.03334 0,4.1 -3.133333,6.1 -2.033334,1.26666 -4.866667,1.26666 -6.533334,0 -7.633334,-6.13333 -0.1,-0.73333 -0.166667,-1.5 h 2.933334 q 0.266666,4.4 3.766666,4.93333 0.566667,0.1 1.200001,0.1 3.466666,0 4.533333,-2.63333 0.366667,-0.96667 0.366667,-2.1 -0.06667,-4.26667 -4.9,-4.3 l -1.233334,0.0333 h -0.366667 v -2.5 q 3.766667,-0.0667 4.900001,-1.1 0.9,-0.86666 0.9,-2.6 0,-2.83333 -2.333334,-3.73333 -0.833333,-0.3 -1.833333,-0.3 z"
       style="font-style:normal;font-variant:normal;font-weight:normal;font-stretch:normal;font-size:33.33333588px;font-family:FreeSans;-inkscape-font-specification:FreeSans;fill:#ffffff;fill-opacity:1"
       id="path17144"
       inkscape:connector-curvature="0" /></g><path
     sodipodi:nodetypes="cccc"
     inkscape:connector-curvature="0"
     id="path7676-20"
     d="m 238.0487,109.32609 c 7.80201,-1.88774 10.61933,-4.47082 14.15895,-8.10737 l -7.75185,-5.168802 c -0.0616,3.692555 -2.46385,8.423042 -6.4071,13.276172 z"
     style="opacity:1;fill:#ffffff;fill-opacity:1;fill-rule:evenodd;stroke:none;stroke-width:0.76447505px;stroke-linecap:butt;stroke-linejoin:miter;stroke-opacity:1"
     inkscape:transform-center-x="2.2099404"
     inkscape:transform-center-y="1.9738662" /><path
     sodipodi:type="spiral"
     style="opacity:1;fill:none;fill-opacity:1;fill-rule:evenodd;stroke:#ffffec;stroke-width:2.51338577;stroke-linecap:butt;stroke-linejoin:miter;stroke-miterlimit:4;stroke-dasharray:none;stroke-opacity:1"
     id="path7711-8"
     sodipodi:cx="197.5222"
     sodipodi:cy="17.012539"
     sodipodi:expansion="0"
     sodipodi:revolution="8.0200005"
     sodipodi:radius="34.011444"
     sodipodi:argument="-17.855951"
     sodipodi:t0="0.99130303"
     d="m 223.94673,38.425681 c -3.13084,3.863564 -7.10954,7.019918 -11.58403,9.189766"
     transform="matrix(0.65500793,-0.39419139,0.39419139,0.65500793,90.521054,151.2567)"
     inkscape:transform-center-x="-3.0343423"
     inkscape:transform-center-y="-7.2733375" /><path
     transform="matrix(0.39182407,0.65642678,-0.65642678,0.39182407,149.11487,-46.200477)"
     d="m 223.94673,38.425681 c -3.13084,3.863564 -7.10954,7.019918 -11.58403,9.189766"
     sodipodi:t0="0.99130303"
     sodipodi:argument="-17.855951"
     sodipodi:radius="34.011444"
     sodipodi:revolution="8.0200005"
     sodipodi:expansion="0"
     sodipodi:cy="17.012539"
     sodipodi:cx="197.5222"
     id="path7833-2"
     style="opacity:1;fill:none;fill-opacity:1;fill-rule:evenodd;stroke:#ffffec;stroke-width:2.51338577;stroke-linecap:butt;stroke-linejoin:miter;stroke-miterlimit:4;stroke-dasharray:none;stroke-opacity:1"
     sodipodi:type="spiral"
     inkscape:transform-center-x="12.142531"
     inkscape:transform-center-y="32.000457" /><g
     aria-label="6"
     style="font-style:normal;font-variant:normal;font-weight:normal;font-stretch:normal;font-size:33.39067459px;line-height:125%;font-family:sans-serif;-inkscape-font-specification:sans-serif;letter-spacing:0px;word-spacing:0px;fill:#ffffff;fill-opacity:1;stroke:none;stroke-width:1.00172007px;stroke-linecap:butt;stroke-linejoin:miter;stroke-opacity:1"
     id="text11694"
     transform="matrix(0.76316236,0,0,0.76316236,44.887343,21.766093)"><path
       d="m 233.49104,118.73418 q 0,-10.31772 5.7098,-12.42134 1.30224,-0.46746 2.77143,-0.46746 3.83992,0 5.67641,3.10533 0.76799,1.33562 1.03511,3.07194 h -2.93838 q -0.60103,-2.93838 -3.03855,-3.47263 -0.46747,-0.10017 -0.93494,-0.10017 -3.70636,0 -4.84164,4.80825 -0.40069,1.83649 -0.43408,4.17384 1.97005,-2.63786 5.44268,-2.63786 3.70636,0 5.77658,2.77142 1.46919,2.00344 1.46919,4.74148 0,3.97349 -2.73803,6.24405 -2.10361,1.73632 -5.0086,1.73632 -7.91359,-0.0668 -7.94698,-11.55317 z m 8.08054,-1.33563 q -2.83821,0 -4.17384,2.20378 -0.73459,1.20207 -0.73459,2.77143 0,2.8716 2.03683,4.40757 1.20207,0.90155 2.77143,0.90155 2.53769,0 3.87332,-2.10362 0.83476,-1.33562 0.83476,-3.03855 0,-3.40585 -2.37074,-4.6413 -1.00172,-0.50086 -2.23717,-0.50086 z"
       style="font-style:normal;font-variant:normal;font-weight:normal;font-stretch:normal;font-size:33.39067459px;font-family:FreeSans;-inkscape-font-specification:FreeSans;fill:#ffffff;fill-opacity:1;stroke-width:1.00172007px"
       id="path17153"
       inkscape:connector-curvature="0" /></g><path
     style="opacity:1;fill:#ffffff;fill-opacity:1;fill-rule:evenodd;stroke:none;stroke-width:0.76447505px;stroke-linecap:butt;stroke-linejoin:miter;stroke-opacity:1"
     d="m 86.759261,285.23655 c 8.023561,-0.23935 11.312745,-2.18638 15.525819,-5.0154 l -6.520243,-6.65539 c -0.821193,3.60061 -4.146818,7.73448 -9.005576,11.67079 z"
     id="path17071"
     inkscape:connector-curvature="0"
     sodipodi:nodetypes="cccc" /><path
     transform="matrix(0.72218428,-0.25074308,0.25074308,0.72218428,-66.242831,295.86399)"
     d="m 223.94673,38.425681 c -3.13084,3.863564 -7.10954,7.019918 -11.58403,9.189766"
     sodipodi:t0="0.99130303"
     sodipodi:argument="-17.855951"
     sodipodi:radius="34.011444"
     sodipodi:revolution="8.0200005"
     sodipodi:expansion="0"
     sodipodi:cy="17.012539"
     sodipodi:cx="197.5222"
     id="path17073"
     style="opacity:1;fill:none;fill-opacity:1;fill-rule:evenodd;stroke:#ffffec;stroke-width:2.51338577;stroke-linecap:butt;stroke-linejoin:miter;stroke-miterlimit:4;stroke-dasharray:none;stroke-opacity:1"
     sodipodi:type="spiral" /><path
     sodipodi:nodetypes="cccc"
     inkscape:connector-curvature="0"
     id="path17075"
     d="m 43.127392,265.49453 c 0.23935,8.02357 2.186376,11.31275 5.015388,15.52582 l 6.655395,-6.52024 c -3.600608,-0.82119 -7.734468,-4.14682 -11.670783,-9.00558 z"
     style="opacity:1;fill:#ffffff;fill-opacity:1;fill-rule:evenodd;stroke:none;stroke-width:0.76447505px;stroke-linecap:butt;stroke-linejoin:miter;stroke-opacity:1" /><path
     sodipodi:type="spiral"
     style="opacity:1;fill:none;fill-opacity:1;fill-rule:evenodd;stroke:#ffffec;stroke-width:2.51338577;stroke-linecap:butt;stroke-linejoin:miter;stroke-miterlimit:4;stroke-dasharray:none;stroke-opacity:1"
     id="path17077"
     sodipodi:cx="197.5222"
     sodipodi:cy="17.012539"
     sodipodi:expansion="0"
     sodipodi:revolution="8.0200005"
     sodipodi:radius="34.011444"
     sodipodi:argument="-17.855951"
     sodipodi:t0="0.99130303"
     d="m 223.94673,38.425681 c -3.13084,3.863564 -7.10954,7.019918 -11.58403,9.189766"
     transform="matrix(0.25074307,0.72218428,-0.72218428,0.25074307,32.499966,112.49244)" /><g
     aria-label="8"
     style="font-style:normal;font-variant:normal;font-weight:normal;font-stretch:normal;font-size:33.39067459px;line-height:125%;font-family:sans-serif;-inkscape-font-specification:sans-serif;letter-spacing:0px;word-spacing:0px;fill:#ffffff;fill-opacity:1;stroke:none;stroke-width:1.00172007px;stroke-linecap:butt;stroke-linejoin:miter;stroke-opacity:1"
     id="text17081"
     transform="matrix(0.76316236,0,0,0.76316236,34.150314,49.034737)"><path
       d="m 56.433817,305.99746 q 4.040272,1.97005 4.073662,5.91015 0,3.73975 -2.871598,5.77658 -2.103612,1.53597 -5.075382,1.53597 -4.140444,0 -6.377619,-2.73803 -1.569362,-1.93666 -1.569362,-4.60791 0.03339,-3.9401 4.040272,-5.87676 -2.404129,-1.50258 -2.93838,-3.10534 -0.267125,-0.76798 -0.267125,-1.80309 0,-3.30568 2.704645,-5.07538 1.869877,-1.23546 4.407569,-1.23546 3.873318,0 5.843368,2.53769 1.268845,1.63614 1.268845,3.77315 0,2.27056 -1.50258,3.63958 -0.667813,0.63442 -1.736315,1.26885 z m -3.873318,-8.6148 q -2.704645,0 -3.706365,1.97005 -0.400688,0.80138 -0.400688,1.76971 0,2.33735 2.036831,3.27228 0.934939,0.43408 2.070222,0.43408 2.671254,0 3.672974,-1.90326 0.434079,-0.80138 0.434079,-1.76971 0,-2.5043 -2.170394,-3.40585 -0.868158,-0.3673 -1.936659,-0.3673 z m 0,9.91703 q -2.97177,0 -4.274007,2.13701 -0.667813,1.10189 -0.667813,2.5043 0,2.73803 2.203784,4.00688 1.168674,0.66781 2.671254,0.66781 3.038552,0 4.340788,-2.17039 0.667814,-1.10189 0.667814,-2.5043 0,-2.73804 -2.237176,-4.00688 -1.202064,-0.63443 -2.704644,-0.63443 z"
       style="font-style:normal;font-variant:normal;font-weight:normal;font-stretch:normal;font-size:33.39067459px;font-family:FreeSans;-inkscape-font-specification:FreeSans;fill:#ffffff;fill-opacity:1;stroke-width:1.00172007px"
       id="path17141"
       inkscape:connector-curvature="0" /></g><path
     style="opacity:1;fill:#ffffff;fill-opacity:1;fill-rule:evenodd;stroke:none;stroke-width:0.76447505px;stroke-linecap:butt;stroke-linejoin:miter;stroke-opacity:1"
     d="m 54.219471,110.64152 c -7.744135,-2.11263 -10.485565,-4.77613 -13.918515,-8.51353 l 7.898123,-4.942416 c -0.0453,3.692786 2.219174,8.490796 6.020392,13.455946 z"
     id="path17107"
     inkscape:connector-curvature="0"
     sodipodi:nodetypes="cccc"
     inkscape:transform-center-x="26.832891"
     inkscape:transform-center-y="18.593801" /><path
     transform="matrix(-0.64333142,-0.41297326,-0.41297326,0.64333142,200.47249,156.82199)"
     d="m 223.94673,38.425681 c -3.13084,3.863564 -7.10954,7.019918 -11.58403,9.189766"
     sodipodi:t0="0.99130303"
     sodipodi:argument="-17.855951"
     sodipodi:radius="34.011444"
     sodipodi:revolution="8.0200005"
     sodipodi:expansion="0"
     sodipodi:cy="17.012539"
     sodipodi:cx="197.5222"
     id="path17109"
     style="opacity:1;fill:none;fill-opacity:1;fill-rule:evenodd;stroke:#ffffec;stroke-width:2.51338577;stroke-linecap:butt;stroke-linejoin:miter;stroke-miterlimit:4;stroke-dasharray:none;stroke-opacity:1"
     sodipodi:type="spiral"
     inkscape:transform-center-x="31.73274"
     inkscape:transform-center-y="9.0866606" /><path
     sodipodi:type="spiral"
     style="opacity:1;fill:none;fill-opacity:1;fill-rule:evenodd;stroke:#ffffec;stroke-width:2.51338577;stroke-linecap:butt;stroke-linejoin:miter;stroke-miterlimit:4;stroke-dasharray:none;stroke-opacity:1"
     id="path17113"
     sodipodi:cx="197.5222"
     sodipodi:cy="17.012539"
     sodipodi:expansion="0"
     sodipodi:revolution="8.0200005"
     sodipodi:radius="34.011444"
     sodipodi:argument="-17.855951"
     sodipodi:t0="0.99130303"
     d="m 223.94673,38.425681 c -3.13084,3.863564 -7.10954,7.019918 -11.58403,9.189766"
     transform="matrix(-0.41297325,0.64333142,0.64333142,0.41297325,147.44284,-44.580897)"
     inkscape:transform-center-x="-10.934156"
     inkscape:transform-center-y="28.211481" /><g
     aria-label="5"
     style="font-style:normal;font-variant:normal;font-weight:normal;font-stretch:normal;font-size:33.39067459px;line-height:125%;font-family:sans-serif;-inkscape-font-specification:sans-serif;letter-spacing:0px;word-spacing:0px;fill:#ffffff;fill-opacity:1;stroke:none;stroke-width:1.00172007px;stroke-linecap:butt;stroke-linejoin:miter;stroke-opacity:1"
     id="text17117"
     transform="matrix(0.76316236,0,0,0.76316236,25.11195,21.562875)"><path
       d="m 57.058958,105.12231 v 2.90499 h -9.850249 l -0.934939,6.61135 q 2.003441,-1.4358 4.374179,-1.4358 4.006881,0 6.143884,2.90499 1.50258,2.07022 1.50258,4.97521 0,4.3074 -2.904989,6.71152 -2.170393,1.76971 -5.208945,1.76971 -6.544572,0 -7.780027,-6.27745 -0.03339,-0.10017 -0.06678,-0.30051 h 2.938379 q 1.101892,3.9401 4.841648,3.97349 3.372458,0 4.641304,-2.70465 0.53425,-1.23545 0.53425,-2.77142 0,-3.63959 -2.537691,-5.04199 -1.168673,-0.63443 -2.637863,-0.63443 -2.137003,0 -3.639584,1.4358 -0.333906,0.3673 -0.701204,0.76799 h -2.704644 l 1.769705,-12.8888 z"
       style="font-style:normal;font-variant:normal;font-weight:normal;font-stretch:normal;font-size:33.39067459px;font-family:FreeSans;-inkscape-font-specification:FreeSans;fill:#ffffff;fill-opacity:1;stroke-width:1.00172007px"
       id="path17159"
       inkscape:connector-curvature="0" /></g><path
     sodipodi:nodetypes="cccc"
     inkscape:connector-curvature="0"
     id="path17123"
     d="m 206.4435,284.87049 c -8.02356,-0.23935 -11.31275,-2.18639 -15.52582,-5.01541 l 6.52024,-6.65538 c 0.8212,3.6006 4.14682,7.73447 9.00558,11.67079 z"
     style="opacity:1;fill:#ffffff;fill-opacity:1;fill-rule:evenodd;stroke:none;stroke-width:0.76447505px;stroke-linecap:butt;stroke-linejoin:miter;stroke-opacity:1" /><path
     sodipodi:type="spiral"
     style="opacity:1;fill:none;fill-opacity:1;fill-rule:evenodd;stroke:#ffffec;stroke-width:2.51338577;stroke-linecap:butt;stroke-linejoin:miter;stroke-miterlimit:4;stroke-dasharray:none;stroke-opacity:1"
     id="path17125"
     sodipodi:cx="197.5222"
     sodipodi:cy="17.012539"
     sodipodi:expansion="0"
     sodipodi:revolution="8.0200005"
     sodipodi:radius="34.011444"
     sodipodi:argument="-17.855951"
     sodipodi:t0="0.99130303"
     d="m 223.94673,38.425681 c -3.13084,3.863564 -7.10954,7.019918 -11.58403,9.189766"
     transform="matrix(-0.72218428,-0.25074308,-0.25074308,0.72218428,359.44558,295.49792)" /><path
     style="opacity:1;fill:#ffffff;fill-opacity:1;fill-rule:evenodd;stroke:none;stroke-width:0.76447505px;stroke-linecap:butt;stroke-linejoin:miter;stroke-opacity:1"
     d="m 250.07537,265.12846 c -0.23935,8.02357 -2.18638,11.31275 -5.01539,15.52582 l -6.6554,-6.52024 c 3.60061,-0.82119 7.73447,-4.14681 11.67079,-9.00558 z"
     id="path17127"
     inkscape:connector-curvature="0"
     sodipodi:nodetypes="cccc" /><path
     transform="matrix(-0.25074307,0.72218428,0.72218428,0.25074307,260.70278,112.12637)"
     d="m 223.94673,38.425681 c -3.13084,3.863564 -7.10954,7.019918 -11.58403,9.189766"
     sodipodi:t0="0.99130303"
     sodipodi:argument="-17.855951"
     sodipodi:radius="34.011444"
     sodipodi:revolution="8.0200005"
     sodipodi:expansion="0"
     sodipodi:cy="17.012539"
     sodipodi:cx="197.5222"
     id="path17129"
     style="opacity:1;fill:none;fill-opacity:1;fill-rule:evenodd;stroke:#ffffec;stroke-width:2.51338577;stroke-linecap:butt;stroke-linejoin:miter;stroke-miterlimit:4;stroke-dasharray:none;stroke-opacity:1"
     sodipodi:type="spiral" /><g
     aria-label="7"
     style="font-style:normal;font-variant:normal;font-weight:normal;font-stretch:normal;font-size:33.39067459px;line-height:125%;font-family:sans-serif;-inkscape-font-specification:sans-serif;letter-spacing:0px;word-spacing:0px;fill:#ffffff;fill-opacity:1;stroke:none;stroke-width:1.00172007px;stroke-linecap:butt;stroke-linejoin:miter;stroke-opacity:1"
     id="text17133"
     transform="matrix(0.76316236,0,0,0.76316236,34.150314,49.034737)"><path
       d="m 249.49387,294.29852 v 2.47091 q -6.74491,8.98209 -8.9487,18.03096 -0.40069,1.56936 -0.66781,3.17211 h -3.13872 q 1.66953,-7.27916 4.77486,-12.98897 1.86988,-3.40585 4.94182,-7.78003 h -12.78863 v -2.90498 z"
       style="font-style:normal;font-variant:normal;font-weight:normal;font-stretch:normal;font-size:33.39067459px;font-family:FreeSans;-inkscape-font-specification:FreeSans;fill:#ffffff;fill-opacity:1;stroke-width:1.00172007px"
       id="path17150"
       inkscape:connector-curvature="0" /></g><path
     stroke-miterlimit="10"
     d="m 146.27527,297.67222 h 44.18346 c -9.47712,-18.84059 -21.19804,-19.33741 -21.19804,-19.33741 h -17.20577 l 3.99002,-92.72062 c 0,0 106.989,-4.58669 134.67146,-5.45389 -12.71898,-31.36156 -52.87127,-32.60064 -52.87127,-32.60064 h -78.43564 v -27.76627 c 0,0 0.49604,-23.562622 -11.34757,-23.428012 h -3.57328 c -11.8294,0.17553 -11.34758,23.428012 -11.34758,23.428012 v 27.76627 h -78.4334 c 0,0 -40.152292,1.23982 -52.8712632,32.60064 27.6824662,0.86795 134.6714632,5.45389 134.6714632,5.45389 l 3.99001,92.72062 h -17.20802 c 0,0 -11.72165,0.49756 -21.19804,19.33741 h 44.18346"
     id="path31091"
     inkscape:connector-curvature="0"
     style="fill:#4ec3e8;stroke:#000000;stroke-width:0.74595726;stroke-miterlimit:10" /><path
     stroke-miterlimit="10"
     d="m 39.560864,181.57714 c 28.976808,1.15874 64.874976,2.67227 83.816526,3.477 l 0.17957,-8.37606 -83.795586,-3.71874 c 0,0 -0.127938,5.3111 -0.20051,8.6178 z"
     id="path31093"
     inkscape:connector-curvature="0"
     style="fill:#159e1f;stroke:#000000;stroke-width:0.74595726;stroke-miterlimit:10" /><path
     stroke-miterlimit="10"
     d="m 252.92609,181.65671 c -28.97682,1.15877 -64.87498,2.67228 -83.81652,3.47701 l -0.17956,-8.37606 83.79557,-3.71874 c 0,0 0.12793,5.31109 0.20051,8.61779 z"
     id="path31095"
     inkscape:connector-curvature="0"
     style="fill:#159e1f;stroke:#000000;stroke-width:0.74595726;stroke-miterlimit:10" /><polygon
     stroke-miterlimit="10"
     points="154.731,324.204 154.731,311.188 232.841,311.188 232.841,324.188 "
     id="polygon31097"
     transform="matrix(0.74817473,0,0,0.74374635,1.2894818,56.547434)"
     style="fill:#159e1f;stroke:#000000;stroke-miterlimit:10" /><polygon
     stroke-miterlimit="10"
     points="196.228,324.022 191.395,324.022 189.395,298.355 198.228,298.355 "
     id="polygon31099"
     transform="matrix(0.74817473,0,0,0.74374635,1.2894818,56.547434)"
     style="fill:#159e1f;stroke:#000000;stroke-miterlimit:10" /></svg>