<?xml version="1.0" encoding="UTF-8" standalone="no"?>
<!-- Generator: Adobe Illustrator 19.2.0, SVG Export Plug-In . SVG Version: 6.00 Build 0)  -->

<svg
   xmlns:dc="http://purl.org/dc/elements/1.1/"
   xmlns:cc="http://creativecommons.org/ns#"
   xmlns:rdf="http://www.w3.org/1999/02/22-rdf-syntax-ns#"
   xmlns:svg="http://www.w3.org/2000/svg"
   xmlns="http://www.w3.org/2000/svg"
   xmlns:sodipodi="http://sodipodi.sourceforge.net/DTD/sodipodi-0.dtd"
   xmlns:inkscape="http://www.inkscape.org/namespaces/inkscape"
   version="1.1"
   id="draw"
   x="0px"
   y="0px"
   viewBox="0 0 343.449 305.834"
   enable-background="new 0 0 343.449 305.834"
   xml:space="preserve"
   sodipodi:docname="YMinus.svg"
   inkscape:version="0.92.1 r"><metadata
     id="metadata40613"><rdf:RDF><cc:Work
         rdf:about=""><dc:format>image/svg+xml</dc:format><dc:type
           rdf:resource="http://purl.org/dc/dcmitype/StillImage" /><dc:title>YMinus</dc:title></cc:Work></rdf:RDF></metadata><defs
     id="defs40611" /><sodipodi:namedview
     pagecolor="#ffffff"
     bordercolor="#666666"
     borderopacity="1"
     objecttolerance="10"
     gridtolerance="10"
     guidetolerance="10"
     inkscape:pageopacity="0"
     inkscape:pageshadow="2"
     inkscape:window-width="1920"
     inkscape:window-height="1019"
     id="namedview40609"
     showgrid="false"
     inkscape:zoom="1.5433208"
     inkscape:cx="127.29772"
     inkscape:cy="203.20674"
     inkscape:window-x="1920"
     inkscape:window-y="0"
     inkscape:window-maximized="1"
     inkscape:current-layer="draw" /><title
     id="title40578">YMinus</title><rect
     x="168.017"
     y="120.306"
     fill="#FFFFFF"
     stroke="#000000"
     stroke-miterlimit="10"
     width="6.777"
     height="133.572"
     id="rect40580" /><rect
     x="162.955"
     y="83.772"
     transform="matrix(0.8697 -0.4936 0.4936 0.8697 -13.0842 124.7602)"
     fill="#FFFFFF"
     stroke="#000000"
     stroke-miterlimit="10"
     width="133.572"
     height="6.777"
     id="rect40582" /><rect
     x="110.334"
     y="20.064"
     transform="matrix(0.4969 -0.8678 0.8678 0.4969 -18.2066 142.4161)"
     fill="#FFFFFF"
     stroke="#000000"
     stroke-miterlimit="10"
     width="6.777"
     height="133.692"
     id="rect40584" /><path
     fill="#FFFFFF"
     stroke="#000000"
     stroke-miterlimit="10"
     d="M214.838,127.079l-36.195,36.195  c-3.869,3.869-10.141,3.869-14.009,0l-36.195-36.195c-3.869-3.869-3.869-10.141,0-14.009l36.195-36.195  c3.869-3.869,10.141-3.869,14.009,0l36.195,36.195C218.706,116.938,218.706,123.21,214.838,127.079z"
     id="path40586" /><polygon
     fill="#FF442B"
     stroke="#000000"
     stroke-miterlimit="10"
     points="153.46,142.074 171.637,91.074 189.815,142.074 "
     id="polygon40588" /><g
     opacity="0.8"
     id="g40592"><ellipse
       transform="matrix(0.7091 -0.7051 0.7051 0.7091 48.7212 221.2241)"
       fill="#159E1F"
       cx="292.453"
       cy="51.569"
       rx="50.993"
       ry="51.004"
       id="ellipse40590" /></g><path
     fill="#FFFFFF"
     stroke="#000000"
     stroke-miterlimit="10"
     d="M300.324,42.677c-4.374-4.384-11.473-4.393-15.858-0.019  c-4.384,4.374-4.393,11.473-0.019,15.858c4.365,4.375,11.447,4.394,15.835,0.042c4.397-4.335,4.446-11.414,0.111-15.811  C300.37,42.723,300.347,42.7,300.324,42.677z"
     id="path40594" /><g
     opacity="0.8"
     id="g40598"><ellipse
       transform="matrix(0.7051 -0.7091 0.7091 0.7051 -21.1165 51.1916)"
       fill="#159E1F"
       cx="50.994"
       cy="50.986"
       rx="50.993"
       ry="51.004"
       id="ellipse40596" /></g><path
     fill="#FFFFFF"
     stroke="#000000"
     stroke-miterlimit="10"
     d="M58.914,43.059c4.384,4.374,4.393,11.473,0.02,15.858  c-4.374,4.384-11.473,4.393-15.857,0.02c-4.376-4.365-4.395-11.447-0.042-15.835c4.335-4.397,11.414-4.446,15.811-0.111  C58.868,43.013,58.891,43.036,58.914,43.059z"
     id="path40600" /><g
     opacity="0.8"
     id="g40604"><ellipse
       transform="matrix(0.7091 -0.7051 0.7051 0.7091 -129.8555 194.9725)"
       fill="#159E1F"
       cx="171.352"
       cy="254.853"
       rx="50.993"
       ry="51.004"
       id="ellipse40602" /></g><path
     fill="#FFFFFF"
     stroke="#000000"
     stroke-miterlimit="10"
     d="M179.224,245.961c-4.374-4.384-11.473-4.393-15.858-0.019  c-4.384,4.374-4.393,11.473-0.019,15.858c4.365,4.375,11.447,4.394,15.835,0.042c4.397-4.335,4.446-11.414,0.111-15.811  C179.27,246.007,179.247,245.984,179.224,245.961z"
     id="path40606" /><path
     style="opacity:1;fill:#ffffff;fill-opacity:1;fill-rule:evenodd;stroke:none;stroke-width:1px;stroke-linecap:butt;stroke-linejoin:miter;stroke-opacity:1"
     d="m 131.95624,235.57093 c -7.20006,7.64284 -8.4415,12.48612 -9.72169,18.99975 l 12.18688,0.125 c -2.57083,-4.08998 -3.31842,-10.98968 -2.46519,-19.12475 z"
     id="path7870-5"
     inkscape:connector-curvature="0"
     sodipodi:nodetypes="cccc" /><path
     transform="rotate(115.85295,105.43473,124.71809)"
     d="m 223.94673,38.425681 c -3.13084,3.863564 -7.10954,7.019918 -11.58403,9.189766"
     sodipodi:t0="0.99130303"
     sodipodi:argument="-17.855951"
     sodipodi:radius="34.011444"
     sodipodi:revolution="8.0200005"
     sodipodi:expansion="0"
     sodipodi:cy="17.012539"
     sodipodi:cx="197.5222"
     id="path7872-2"
     style="opacity:1;fill:none;fill-opacity:1;fill-rule:evenodd;stroke:#ffffec;stroke-width:2.51338577;stroke-linecap:butt;stroke-linejoin:miter;stroke-miterlimit:4;stroke-dasharray:none;stroke-opacity:1"
     sodipodi:type="spiral" /><path
     sodipodi:nodetypes="cccc"
     inkscape:connector-curvature="0"
     id="path7874-1"
     d="m 208.13834,272.89029 c 7.20007,-7.64284 8.44151,-12.48613 9.7217,-18.99975 l -12.18689,-0.125 c 2.57083,4.08997 3.31842,10.98968 2.46519,19.12475 z"
     style="opacity:1;fill:#ffffff;fill-opacity:1;fill-rule:evenodd;stroke:none;stroke-width:1px;stroke-linecap:butt;stroke-linejoin:miter;stroke-opacity:1" /><path
     sodipodi:type="spiral"
     style="opacity:1;fill:none;fill-opacity:1;fill-rule:evenodd;stroke:#ffffec;stroke-width:2.51338577;stroke-linecap:butt;stroke-linejoin:miter;stroke-miterlimit:4;stroke-dasharray:none;stroke-opacity:1"
     id="path7876-6"
     sodipodi:cx="197.5222"
     sodipodi:cy="17.012539"
     sodipodi:expansion="0"
     sodipodi:revolution="8.0200005"
     sodipodi:radius="34.011444"
     sodipodi:argument="-17.855951"
     sodipodi:t0="0.99130303"
     d="m 223.94673,38.425681 c -3.13084,3.863564 -7.10954,7.019918 -11.58403,9.189766"
     transform="rotate(-64.14705,376.71998,151.12352)" /><g
     aria-label="3"
     style="font-style:normal;font-variant:normal;font-weight:normal;font-stretch:normal;font-size:33.33333588px;line-height:125%;font-family:sans-serif;-inkscape-font-specification:sans-serif;letter-spacing:0px;word-spacing:0px;fill:#ffffff;fill-opacity:1;stroke:none;stroke-width:1px;stroke-linecap:butt;stroke-linejoin:miter;stroke-opacity:1"
     id="text7991-1"><path
       d="m 171.44858,277.81413 q -3.8,0 -4.4,3.66667 -0.0667,0.63333 -0.1,1.4 h -2.93334 q 0.13334,-7 6.33334,-7.6 0.53333,-0.0333 1.06667,-0.0333 4.66666,0 6.4,3.13334 0.8,1.46666 0.8,3.36666 -0.0333,3.6 -3.3,4.9 3.1,1.06667 3.76666,3.6 0.23334,0.9 0.23334,2.03334 0,4.1 -3.13334,6.1 -2.03333,1.26667 -4.86666,1.26667 -6.53334,0 -7.63334,-6.13334 -0.1,-0.73333 -0.16667,-1.5 h 2.93334 q 0.26666,4.4 3.76667,4.93333 0.56666,0.1 1.2,0.1 3.46666,0 4.53333,-2.63333 0.36667,-0.96667 0.36667,-2.1 -0.0667,-4.26667 -4.9,-4.3 l -1.23334,0.0333 h -0.36666 v -2.5 q 3.76666,-0.0667 4.9,-1.1 0.9,-0.86666 0.9,-2.6 0,-2.83333 -2.33334,-3.73333 -0.83333,-0.3 -1.83333,-0.3 z"
       style="font-style:normal;font-variant:normal;font-weight:normal;font-stretch:normal;font-size:33.33333588px;font-family:FreeSans;-inkscape-font-specification:FreeSans;fill:#ffffff;fill-opacity:1"
       id="path41333" /></g><path
     style="opacity:1;fill:#ffffff;fill-opacity:1;fill-rule:evenodd;stroke:none;stroke-width:1px;stroke-linecap:butt;stroke-linejoin:miter;stroke-opacity:1"
     d="m 253.69166,32.760262 c -7.20006,7.64284 -8.4415,12.48612 -9.72169,18.99975 l 12.18688,0.125 c -2.57083,-4.08998 -3.31842,-10.98968 -2.46519,-19.12475 z"
     id="path7870"
     inkscape:connector-curvature="0"
     sodipodi:nodetypes="cccc" /><path
     transform="rotate(115.85295,229.84861,61.455825)"
     d="m 223.94673,38.425681 c -3.13084,3.863564 -7.10954,7.019918 -11.58403,9.189766"
     sodipodi:t0="0.99130303"
     sodipodi:argument="-17.855951"
     sodipodi:radius="34.011444"
     sodipodi:revolution="8.0200005"
     sodipodi:expansion="0"
     sodipodi:cy="17.012539"
     sodipodi:cx="197.5222"
     id="path7872"
     style="opacity:1;fill:none;fill-opacity:1;fill-rule:evenodd;stroke:#ffffec;stroke-width:2.51338577;stroke-linecap:butt;stroke-linejoin:miter;stroke-miterlimit:4;stroke-dasharray:none;stroke-opacity:1"
     sodipodi:type="spiral" /><path
     sodipodi:nodetypes="cccc"
     inkscape:connector-curvature="0"
     id="path7874"
     d="m 329.87376,70.079622 c 7.20007,-7.64284 8.44151,-12.48613 9.7217,-18.99975 l -12.18689,-0.125 c 2.57083,4.08997 3.31842,10.98968 2.46519,19.12475 z"
     style="opacity:1;fill:#ffffff;fill-opacity:1;fill-rule:evenodd;stroke:none;stroke-width:1px;stroke-linecap:butt;stroke-linejoin:miter;stroke-opacity:1" /><path
     sodipodi:type="spiral"
     style="opacity:1;fill:none;fill-opacity:1;fill-rule:evenodd;stroke:#ffffec;stroke-width:2.51338577;stroke-linecap:butt;stroke-linejoin:miter;stroke-miterlimit:4;stroke-dasharray:none;stroke-opacity:1"
     id="path7876"
     sodipodi:cx="197.5222"
     sodipodi:cy="17.012539"
     sodipodi:expansion="0"
     sodipodi:revolution="8.0200005"
     sodipodi:radius="34.011444"
     sodipodi:argument="-17.855951"
     sodipodi:t0="0.99130303"
     d="m 223.94673,38.425681 c -3.13084,3.863564 -7.10954,7.019918 -11.58403,9.189766"
     transform="rotate(-64.14705,275.76771,-47.412914)" /><g
     aria-label="1"
     style="font-style:normal;font-variant:normal;font-weight:normal;font-stretch:normal;font-size:33.33333588px;line-height:125%;font-family:sans-serif;-inkscape-font-specification:sans-serif;letter-spacing:0px;word-spacing:0px;fill:#ffffff;fill-opacity:1;stroke:none;stroke-width:1px;stroke-linecap:butt;stroke-linejoin:miter;stroke-opacity:1"
     id="text7991"><path
       d="m 293.09674,13.612224 h -5.23333 v -2.1 q 3.4,-0.433334 4.4,-1.2 1,-0.7333337 1.7,-3.1000006 0.0667,-0.2 0.13333,-0.4 h 1.93334 V 30.445559 h -2.93334 z"
       style="font-style:normal;font-variant:normal;font-weight:normal;font-stretch:normal;font-size:33.33333588px;font-family:FreeSans;-inkscape-font-specification:FreeSans;fill:#ffffff;fill-opacity:1"
       id="path41336" /></g><path
     sodipodi:nodetypes="cccc"
     inkscape:connector-curvature="0"
     id="path35761"
     d="m 12.026161,31.930772 c -7.2000597,7.64284 -8.4414997,12.48612 -9.7216897,18.99975 l 12.1868797,0.125 c -2.57083,-4.08998 -3.31842,-10.98968 -2.46519,-19.12475 z"
     style="opacity:1;fill:#ffffff;fill-opacity:1;fill-rule:evenodd;stroke:none;stroke-width:1px;stroke-linecap:butt;stroke-linejoin:miter;stroke-opacity:1" /><path
     sodipodi:type="spiral"
     style="opacity:1;fill:none;fill-opacity:1;fill-rule:evenodd;stroke:#ffffec;stroke-width:2.51338577;stroke-linecap:butt;stroke-linejoin:miter;stroke-miterlimit:4;stroke-dasharray:none;stroke-opacity:1"
     id="path35763"
     sodipodi:cx="197.5222"
     sodipodi:cy="17.012539"
     sodipodi:expansion="0"
     sodipodi:revolution="8.0200005"
     sodipodi:radius="34.011444"
     sodipodi:argument="-17.855951"
     sodipodi:t0="0.99130303"
     d="m 223.94673,38.425681 c -3.13084,3.863564 -7.10954,7.019918 -11.58403,9.189766"
     transform="rotate(115.85295,109.27575,-14.67938)" /><path
     style="opacity:1;fill:#ffffff;fill-opacity:1;fill-rule:evenodd;stroke:none;stroke-width:1px;stroke-linecap:butt;stroke-linejoin:miter;stroke-opacity:1"
     d="m 88.208251,69.250132 c 7.20007,-7.64284 8.44151,-12.48613 9.7217,-18.99975 l -12.18689,-0.125 c 2.57083,4.08997 3.31842,10.98968 2.46519,19.12475 z"
     id="path35765"
     inkscape:connector-curvature="0"
     sodipodi:nodetypes="cccc" /><path
     transform="rotate(-64.14705,154.27311,144.99411)"
     d="m 223.94673,38.425681 c -3.13084,3.863564 -7.10954,7.019918 -11.58403,9.189766"
     sodipodi:t0="0.99130303"
     sodipodi:argument="-17.855951"
     sodipodi:radius="34.011444"
     sodipodi:revolution="8.0200005"
     sodipodi:expansion="0"
     sodipodi:cy="17.012539"
     sodipodi:cx="197.5222"
     id="path35767"
     style="opacity:1;fill:none;fill-opacity:1;fill-rule:evenodd;stroke:#ffffec;stroke-width:2.51338577;stroke-linecap:butt;stroke-linejoin:miter;stroke-miterlimit:4;stroke-dasharray:none;stroke-opacity:1"
     sodipodi:type="spiral" /><g
     aria-label="2"
     style="font-style:normal;font-variant:normal;font-weight:normal;font-stretch:normal;font-size:33.33333588px;line-height:125%;font-family:sans-serif;-inkscape-font-specification:sans-serif;letter-spacing:0px;word-spacing:0px;fill:#ffffff;fill-opacity:1;stroke:none;stroke-width:1px;stroke-linecap:butt;stroke-linejoin:miter;stroke-opacity:1"
     id="text35771"><path
       d="m 43.64701,14.182741 q 0.266666,-8.1666673 7.8,-8.2000006 4.033334,0 6.166667,2.6666668 1.4,1.8333338 1.4,4.2666668 -0.03333,4.400001 -5,7.133334 l -3.333333,1.8 q -3.100001,1.666667 -3.900001,3.533334 -0.266666,0.6 -0.366666,1.333333 h 12.433334 v 2.900001 H 43.113676 q 0.233334,-4.266667 1.9,-6.500001 1.433334,-1.866667 4.733334,-3.733334 l 3.066667,-1.733333 q 3.166667,-1.866667 3.2,-4.666667 0,-2.4 -2,-3.7000004 -1.166667,-0.7333334 -2.666667,-0.7333334 -4.366667,0 -4.766667,5.4333338 0,0.1 0,0.2 z"
       style="font-style:normal;font-variant:normal;font-weight:normal;font-stretch:normal;font-size:33.33333588px;font-family:FreeSans;-inkscape-font-specification:FreeSans;fill:#ffffff;fill-opacity:1"
       id="path41339" /></g></svg>