<?xml version="1.0" encoding="UTF-8" standalone="no"?>
<!-- Created with Inkscape (http://www.inkscape.org/) -->

<svg
   width="210mm"
   height="297mm"
   viewBox="0 0 210 297"
   version="1.1"
   id="svg5"
   inkscape:version="1.1.2 (b8e25be833, 2022-02-05)"
   sodipodi:docname="FollowMeRCAdjustment.svg"
   xmlns:inkscape="http://www.inkscape.org/namespaces/inkscape"
   xmlns:sodipodi="http://sodipodi.sourceforge.net/DTD/sodipodi-0.dtd"
   xmlns="http://www.w3.org/2000/svg"
   xmlns:svg="http://www.w3.org/2000/svg">
  <sodipodi:namedview
     id="namedview7"
     pagecolor="#ffffff"
     bordercolor="#666666"
     borderopacity="1.0"
     inkscape:pageshadow="2"
     inkscape:pageopacity="0.0"
     inkscape:pagecheckerboard="0"
     inkscape:document-units="mm"
     showgrid="false"
     inkscape:zoom="1.6054329"
     inkscape:cx="164.44163"
     inkscape:cy="355.97876"
     inkscape:window-width="1920"
     inkscape:window-height="1052"
     inkscape:window-x="-8"
     inkscape:window-y="-8"
     inkscape:window-maximized="1"
     inkscape:current-layer="layer1" />
  <defs
     id="defs2">
    <marker
       style="overflow:visible"
       id="Arrow2Lend"
       refX="0"
       refY="0"
       orient="auto"
       inkscape:stockid="Arrow2Lend"
       inkscape:isstock="true">
      <path
         transform="matrix(-1.1,0,0,-1.1,-1.1,0)"
         d="M 8.7185878,4.0337352 -2.2072895,0.01601326 8.7185884,-4.0017078 c -1.7454984,2.3720609 -1.7354408,5.6174519 -6e-7,8.035443 z"
         style="fill:context-stroke;fill-rule:evenodd;stroke:context-stroke;stroke-width:0.625;stroke-linejoin:round"
         id="path1080" />
    </marker>
    <marker
       style="overflow:visible"
       id="Arrow1Mstart"
       refX="0"
       refY="0"
       orient="auto"
       inkscape:stockid="Arrow1Mstart"
       inkscape:isstock="true">
      <path
         transform="matrix(0.4,0,0,0.4,4,0)"
         style="fill:context-stroke;fill-rule:evenodd;stroke:context-stroke;stroke-width:1pt"
         d="M 0,0 5,-5 -12.5,0 5,5 Z"
         id="path1065" />
    </marker>
    <marker
       style="overflow:visible"
       id="Arrow1Mend"
       refX="0"
       refY="0"
       orient="auto"
       inkscape:stockid="Arrow1Mend"
       inkscape:isstock="true">
      <path
         transform="matrix(-0.4,0,0,-0.4,-4,0)"
         style="fill:context-stroke;fill-rule:evenodd;stroke:context-stroke;stroke-width:1pt"
         d="M 0,0 5,-5 -12.5,0 5,5 Z"
         id="path1068" />
    </marker>
    <marker
       style="overflow:visible"
       id="marker1505"
       refX="0"
       refY="0"
       orient="auto"
       inkscape:stockid="Arrow1Mstart"
       inkscape:isstock="true">
      <path
         transform="matrix(0.4,0,0,0.4,4,0)"
         style="fill:context-stroke;fill-rule:evenodd;stroke:context-stroke;stroke-width:1pt"
         d="M 0,0 5,-5 -12.5,0 5,5 Z"
         id="path1503" />
    </marker>
    <marker
       style="overflow:visible"
       id="Arrow2Mend"
       refX="0"
       refY="0"
       orient="auto"
       inkscape:stockid="Arrow2Mend"
       inkscape:isstock="true">
      <path
         transform="scale(-0.6)"
         d="M 8.7185878,4.0337352 -2.2072895,0.01601326 8.7185884,-4.0017078 c -1.7454984,2.3720609 -1.7354408,5.6174519 -6e-7,8.035443 z"
         style="fill:context-stroke;fill-rule:evenodd;stroke:context-stroke;stroke-width:0.625;stroke-linejoin:round"
         id="path1086" />
    </marker>
    <marker
       style="overflow:visible"
       id="Arrow1Mstart-7"
       refX="0"
       refY="0"
       orient="auto"
       inkscape:stockid="Arrow1Mstart"
       inkscape:isstock="true">
      <path
         transform="matrix(0.4,0,0,0.4,4,0)"
         style="fill:context-stroke;fill-rule:evenodd;stroke:context-stroke;stroke-width:1pt"
         d="M 0,0 5,-5 -12.5,0 5,5 Z"
         id="path1065-1" />
    </marker>
    <marker
       style="overflow:visible"
       id="Arrow1Mend-5"
       refX="0"
       refY="0"
       orient="auto"
       inkscape:stockid="Arrow1Mend"
       inkscape:isstock="true">
      <path
         transform="matrix(-0.4,0,0,-0.4,-4,0)"
         style="fill:context-stroke;fill-rule:evenodd;stroke:context-stroke;stroke-width:1pt"
         d="M 0,0 5,-5 -12.5,0 5,5 Z"
         id="path1068-7" />
    </marker>
    <marker
       style="overflow:visible"
       id="Arrow1Mstart-7-6"
       refX="0"
       refY="0"
       orient="auto"
       inkscape:stockid="Arrow1Mstart"
       inkscape:isstock="true">
      <path
         transform="matrix(0.4,0,0,0.4,4,0)"
         style="fill:context-stroke;fill-rule:evenodd;stroke:context-stroke;stroke-width:1pt"
         d="M 0,0 5,-5 -12.5,0 5,5 Z"
         id="path1065-1-6" />
    </marker>
    <marker
       style="overflow:visible"
       id="Arrow1Mend-5-1"
       refX="0"
       refY="0"
       orient="auto"
       inkscape:stockid="Arrow1Mend"
       inkscape:isstock="true">
      <path
         transform="matrix(-0.4,0,0,-0.4,-4,0)"
         style="fill:context-stroke;fill-rule:evenodd;stroke:context-stroke;stroke-width:1pt"
         d="M 0,0 5,-5 -12.5,0 5,5 Z"
         id="path1068-7-1" />
    </marker>
    <marker
       style="overflow:visible"
       id="Arrow1Mstart-7-6-1"
       refX="0"
       refY="0"
       orient="auto"
       inkscape:stockid="Arrow1Mstart"
       inkscape:isstock="true">
      <path
         transform="matrix(0.4,0,0,0.4,4,0)"
         style="fill:context-stroke;fill-rule:evenodd;stroke:context-stroke;stroke-width:1pt"
         d="M 0,0 5,-5 -12.5,0 5,5 Z"
         id="path1065-1-6-1" />
    </marker>
    <marker
       style="overflow:visible"
       id="Arrow1Mend-5-1-2"
       refX="0"
       refY="0"
       orient="auto"
       inkscape:stockid="Arrow1Mend"
       inkscape:isstock="true">
      <path
         transform="matrix(-0.4,0,0,-0.4,-4,0)"
         style="fill:context-stroke;fill-rule:evenodd;stroke:context-stroke;stroke-width:1pt"
         d="M 0,0 5,-5 -12.5,0 5,5 Z"
         id="path1068-7-1-6" />
    </marker>
  </defs>
  <g
     inkscape:label="Layer 1"
     inkscape:groupmode="layer"
     id="layer1">
    <rect
       style="fill:#ececec;fill-opacity:1;stroke:#000000;stroke-width:0.257198;stroke-miterlimit:4;stroke-dasharray:none"
       id="rect3331"
       width="102.911"
       height="72.91526"
       x="17.079519"
       y="-148.52713"
       inkscape:export-filename="C:\Users\Junwoo Hwang\Desktop\Temporary\[OLD]XPS_Laptop_drive_sync_Folder\2022_Auterion_Internship\2206xx_\path38900.png"
       inkscape:export-xdpi="500"
       inkscape:export-ydpi="500"
       transform="scale(1,-1)" />
    <ellipse
       style="fill:#ffffff;fill-opacity:1;fill-rule:nonzero;stroke:#008080;stroke-width:0.4;stroke-miterlimit:4;stroke-dasharray:none;stroke-dashoffset:0;stroke-opacity:1"
       id="path38900"
       transform="rotate(-1.3232519)"
       ry="20"
       rx="50"
       cy="128.81474"
       cx="66.161102"
       inkscape:export-filename="C:\Users\Junwoo Hwang\Desktop\Temporary\[OLD]XPS_Laptop_drive_sync_Folder\2022_Auterion_Internship\2206xx_\path38900.png"
       inkscape:export-xdpi="500"
       inkscape:export-ydpi="500" />
    <path
       style="fill:#008000;stroke:#008080;stroke-width:0.461416;stroke-linecap:butt;stroke-linejoin:miter;stroke-miterlimit:4;stroke-dasharray:1.84566, 0.922832;stroke-dashoffset:0;stroke-opacity:1;marker-start:url(#marker1505);marker-end:url(#Arrow2Mend)"
       d="m 69.125166,127.25232 6.26529,-19.92292"
       id="path39498"
       inkscape:export-filename="C:\Users\Junwoo Hwang\Desktop\Temporary\[OLD]XPS_Laptop_drive_sync_Folder\2022_Auterion_Internship\2206xx_\path38900.png"
       inkscape:export-xdpi="500"
       inkscape:export-ydpi="500" />
    <path
       style="fill:#000000;stroke-width:0.0255639"
       d="m 72.351776,84.561432 c -0.0315,-0.04 -0.053,-0.10484 -0.0529,-0.15978 1.1e-4,-0.0871 0.0734,-0.68102 0.38337,-3.10638 0.0717,-0.56099 0.1269,-1.04415 0.12269,-1.07369 -0.008,-0.0533 -0.0157,-0.0538 -1.01746,-0.0665 -1.00412,-0.0127 -1.01037,-0.0131 -1.11541,-0.0733 -0.25688,-0.14721 -0.31403,-0.55535 -0.10736,-0.76674 0.063,-0.0644 0.18875,-0.12668 0.34627,-0.17138 0.0209,-0.006 0.0334,-0.0902 0.0384,-0.25921 l 0.007,-0.25042 0.12782,-0.008 c 0.0703,-0.005 0.13932,-0.0192 0.15339,-0.0331 0.014,-0.0139 0.0314,-0.19198 0.0386,-0.3958 0.0142,-0.40331 0.0204,-0.41874 0.1659,-0.41874 0.14622,0 0.15225,0.0153 0.16617,0.42106 0.0143,0.41704 0.0161,0.42072 0.19722,0.42138 0.14057,3.5e-4 0.16068,0.0403 0.16068,0.31826 v 0.21898 h 3.32332 3.32332 v -0.21898 c 0,-0.27793 0.0201,-0.31775 0.16067,-0.31826 0.1812,-5.1e-4 0.18292,-0.005 0.19722,-0.42138 0.0139,-0.40578 0.02,-0.42106 0.16617,-0.42106 0.14686,0 0.15259,0.0148 0.16215,0.41891 0.006,0.24408 0.019,0.37903 0.039,0.39556 0.0166,0.0138 0.0875,0.0287 0.1574,0.0331 l 0.12718,0.008 0.007,0.25041 c 0.005,0.16901 0.0174,0.25327 0.0384,0.25922 0.15751,0.0447 0.28326,0.10693 0.34626,0.17138 0.20668,0.21139 0.14953,0.61952 -0.10736,0.76673 -0.10505,0.0602 -0.11129,0.0606 -1.11541,0.0733 -1.00137,0.0126 -1.00985,0.0132 -1.01744,0.0664 -0.004,0.0296 0.10311,0.92105 0.23849,1.98121 0.29716,2.32704 0.29125,2.263 0.21755,2.35578 -0.045,0.0567 -0.0767,0.0703 -0.16334,0.0703 -0.15262,0 -0.21242,-0.0516 -0.24476,-0.21112 -0.0149,-0.0737 -0.0909,-0.60565 -0.16875,-1.18212 -0.0779,-0.57647 -0.19918,-1.47376 -0.26958,-1.994 -0.0704,-0.52022 -0.13618,-0.96598 -0.14618,-0.99056 -0.014,-0.0345 -0.0639,0.0249 -0.2177,0.25888 -0.29715,0.45216 -0.24647,0.4233 -0.76114,0.43346 l -0.43258,0.009 v 0.27554 0.27555 l 0.50803,0.0123 c 0.47725,0.0115 0.51298,0.0157 0.58975,0.0704 0.0449,0.0319 0.0947,0.0885 0.11059,0.12549 0.04,0.0933 0.0577,1.60516 0.0212,1.8074 -0.022,0.12161 -0.0451,0.16808 -0.11682,0.23471 l -0.0894,0.0831 h -1.56016 -1.56015 l -0.0894,-0.0831 c -0.13125,-0.122 -0.1452,-0.24347 -0.13545,-1.17922 0.0115,-1.09765 -0.0284,-1.0403 0.73547,-1.05869 l 0.51267,-0.0123 v -0.27554 -0.27555 l -0.43195,-0.009 c -0.38886,-0.008 -0.43767,-0.0136 -0.48918,-0.0596 -0.0315,-0.0281 -0.15278,-0.19385 -0.26956,-0.36829 -0.18306,-0.27342 -0.21423,-0.30868 -0.22608,-0.25564 -0.0185,0.0828 -0.13699,0.93587 -0.30861,2.22169 -0.27263,2.04261 -0.28152,2.09186 -0.38479,2.13149 -0.0228,0.009 -0.0856,0.0159 -0.13969,0.0159 -0.0758,0 -0.11047,-0.0154 -0.15129,-0.0673 z m 3.32147,-1.06496 c 0.1503,-0.0704 0.35709,-0.27912 0.43578,-0.43987 0.0537,-0.10964 0.0626,-0.16418 0.0627,-0.38347 5e-5,-0.22729 -0.007,-0.26986 -0.0677,-0.38396 -0.0882,-0.16703 -0.29271,-0.35649 -0.4763,-0.44119 -0.21175,-0.0977 -0.47094,-0.0969 -0.68302,0.002 -0.18448,0.0861 -0.37569,0.26546 -0.46865,0.4397 -0.0608,0.11403 -0.0682,0.15542 -0.0681,0.38346 4e-5,0.21342 0.01,0.27497 0.0576,0.37262 0.12967,0.26347 0.38803,0.47368 0.62637,0.50963 0.19325,0.0292 0.4485,0.003 0.58133,-0.0589 z m -0.60076,-0.34162 c -0.20818,-0.1094 -0.34294,-0.34645 -0.30742,-0.54075 0.0917,-0.5016 0.72054,-0.62815 0.97382,-0.19596 0.0729,0.12438 0.0887,0.32204 0.0369,0.45951 -0.0384,0.10183 -0.17218,0.24046 -0.27424,0.28425 -0.10915,0.0469 -0.33349,0.0432 -0.42901,-0.007 z m -5.20227,-4.71343 c -0.47124,-0.0303 -1.01315,-0.1638 -1.10257,-0.27153 -0.0754,-0.0908 0.20536,-0.21342 0.70633,-0.30839 0.30332,-0.0575 1.25907,-0.0644 1.38805,-0.01 0.22313,0.0941 0.20563,0.48959 -0.0247,0.56055 -0.12485,0.0384 -0.60101,0.0529 -0.96702,0.0293 z m 2.32632,0.003 c -0.13623,-0.0202 -0.26869,-0.0856 -0.29089,-0.14339 -0.0308,-0.0805 -0.0161,-0.30662 0.0236,-0.36347 0.0229,-0.0327 0.1009,-0.0752 0.18534,-0.10098 0.36167,-0.11042 1.56166,0.0131 1.92422,0.19805 0.13213,0.0674 0.12463,0.12145 -0.0273,0.19676 -0.35313,0.17506 -1.31265,0.28768 -1.81505,0.21303 z m 5.2534,-0.005 c -0.52592,-0.0568 -0.98449,-0.19773 -1.005,-0.30888 -0.0269,-0.14567 0.82297,-0.33156 1.51743,-0.3319 0.59629,-2.8e-4 0.72743,0.0583 0.72743,0.32469 0,0.28237 -0.077,0.32338 -0.62632,0.33372 -0.2109,0.004 -0.48699,-0.004 -0.61354,-0.0176 z m 2.26278,-0.0419 c -0.10669,-0.0535 -0.15298,-0.13665 -0.15298,-0.27477 0,-0.16117 0.0457,-0.22365 0.20417,-0.27929 0.38961,-0.13677 1.75552,0.0203 2.00978,0.23113 l 0.0733,0.0608 -0.0599,0.0509 c -0.0784,0.0666 -0.3906,0.16354 -0.69234,0.215 -0.35627,0.0608 -1.2583,0.0584 -1.38199,-0.004 z"
       id="path38588"
       inkscape:export-filename="C:\Users\Junwoo Hwang\Desktop\Temporary\[OLD]XPS_Laptop_drive_sync_Folder\2022_Auterion_Internship\2206xx_\path38900.png"
       inkscape:export-xdpi="500"
       inkscape:export-ydpi="500" />
    <path
       style="fill:#008000;stroke:#008080;stroke-width:0.5;stroke-linecap:butt;stroke-linejoin:miter;stroke-miterlimit:4;stroke-dasharray:2, 1;stroke-dashoffset:0;stroke-opacity:1"
       d="m 69.118176,127.25252 -26.89699,17.28371"
       id="path39383"
       inkscape:export-filename="C:\Users\Junwoo Hwang\Desktop\Temporary\[OLD]XPS_Laptop_drive_sync_Folder\2022_Auterion_Internship\2206xx_\path38900.png"
       inkscape:export-xdpi="500"
       inkscape:export-ydpi="500" />
    <path
       id="path3643-0"
       style="fill:#ff5555;fill-opacity:1;fill-rule:nonzero;stroke:none;stroke-width:0.0343281;stroke-miterlimit:4;stroke-dasharray:none;stroke-opacity:1"
       d="m 75.742216,126.02986 c 0.0168,0.0811 -0.0463,0.20308 -0.13477,0.26112 -0.0316,0.0208 -2.24971,0.60507 -4.92899,1.29845 -5.03442,1.30289 -4.98118,1.29055 -5.12203,1.18793 -0.1409,-0.10282 -0.16275,-0.0675 2.09854,-3.39412 1.20344,-1.77039 2.2099,-3.23274 2.23659,-3.24968 0.15326,-0.0973 0.44785,-0.10807 0.56776,-0.0204 0.0268,0.0195 0.14248,0.75889 0.25713,1.64293 0.11456,0.88405 0.23033,1.61065 0.25716,1.61468 0.0268,0.004 1.06589,0.11793 2.309,0.25313 1.24311,0.13518 2.30168,0.26542 2.3524,0.28939 0.0508,0.024 0.0988,0.0764 0.10727,0.11675 z m -3.64378,0.0105 c -1.33901,-0.14464 -1.77625,-0.20372 -1.83721,-0.2482 -0.0609,-0.0445 -0.11705,-0.34551 -0.23584,-1.26456 -0.0857,-0.6634 -0.16116,-1.21008 -0.16767,-1.21483 -0.006,-0.005 -0.74709,1.07305 -1.64574,2.39512 -0.89866,1.32206 -1.62824,2.40788 -1.62131,2.41294 0.007,0.004 1.64964,-0.41444 3.65042,-0.93226 2.00081,-0.51772 3.63256,-0.94525 3.62615,-0.94992 -0.006,-0.005 -0.80239,-0.0939 -1.76884,-0.19832 z m 2.9395,0.12867 -4.33225,-0.50402 -0.55063,-3.21556 -4.17348,6.07956 z"
       inkscape:export-filename="C:\Users\Junwoo Hwang\Desktop\Temporary\[OLD]XPS_Laptop_drive_sync_Folder\2022_Auterion_Internship\2206xx_\path38900.png"
       inkscape:export-xdpi="500"
       inkscape:export-ydpi="500" />
    <path
       style="fill:none;stroke:#ff6600;stroke-width:0.437132;stroke-linecap:butt;stroke-linejoin:miter;stroke-miterlimit:4;stroke-dasharray:1.74853, 0.874264;stroke-dashoffset:0;stroke-opacity:1;marker-start:url(#Arrow1Mstart);marker-end:url(#Arrow1Mend)"
       d="M 75.390456,107.3294 V 85.109542"
       id="path39721"
       inkscape:export-filename="C:\Users\Junwoo Hwang\Desktop\Temporary\[OLD]XPS_Laptop_drive_sync_Folder\2022_Auterion_Internship\2206xx_\path38900.png"
       inkscape:export-xdpi="500"
       inkscape:export-ydpi="500" />
    <text
       xml:space="preserve"
       style="font-style:normal;font-weight:normal;font-size:3px;line-height:1.25;font-family:sans-serif;fill:#000000;fill-opacity:1;stroke:none;stroke-width:0.264583"
       x="65.315826"
       y="132.33983"
       id="text41400"
       inkscape:export-filename="C:\Users\Junwoo Hwang\Desktop\Temporary\[OLD]XPS_Laptop_drive_sync_Folder\2022_Auterion_Internship\2206xx_\path38900.png"
       inkscape:export-xdpi="500"
       inkscape:export-ydpi="500"><tspan
         sodipodi:role="line"
         id="tspan41398"
         style="font-size:3px;fill:#ff0000;stroke-width:0.264583"
         x="65.315826"
         y="132.33983">Target</tspan></text>
    <text
       xml:space="preserve"
       style="font-style:normal;font-weight:normal;font-size:4px;line-height:1.25;font-family:sans-serif;fill:#000000;fill-opacity:1;stroke:none;stroke-width:0.264583"
       x="61.080715"
       y="97.213486"
       id="text44290"
       inkscape:export-filename="C:\Users\Junwoo Hwang\Desktop\Temporary\[OLD]XPS_Laptop_drive_sync_Folder\2022_Auterion_Internship\2206xx_\path38900.png"
       inkscape:export-xdpi="500"
       inkscape:export-ydpi="500"><tspan
         sodipodi:role="line"
         id="tspan44288"
         style="font-size:4px;fill:#ff6600;stroke-width:0.264583"
         x="61.080715"
         y="97.213486">Height</tspan></text>
    <text
       xml:space="preserve"
       style="font-style:normal;font-weight:normal;font-size:4px;line-height:1.25;font-family:sans-serif;fill:#008000;fill-opacity:1;stroke:none;stroke-width:0.264583"
       x="73.067696"
       y="120.24278"
       id="text44290-1"
       inkscape:export-filename="C:\Users\Junwoo Hwang\Desktop\Temporary\[OLD]XPS_Laptop_drive_sync_Folder\2022_Auterion_Internship\2206xx_\path38900.png"
       inkscape:export-xdpi="500"
       inkscape:export-ydpi="500"><tspan
         sodipodi:role="line"
         id="tspan44288-4"
         style="font-size:4px;fill:#008000;stroke-width:0.264583"
         x="73.067696"
         y="120.24278">Distance</tspan></text>
    <text
       xml:space="preserve"
       style="font-style:normal;font-weight:normal;font-size:4px;line-height:1.25;font-family:sans-serif;fill:#0000ff;fill-opacity:1;stroke:none;stroke-width:0.264583"
       x="34.708035"
       y="121.93687"
       id="text44290-1-7"
       inkscape:export-filename="C:\Users\Junwoo Hwang\Desktop\Temporary\[OLD]XPS_Laptop_drive_sync_Folder\2022_Auterion_Internship\2206xx_\path38900.png"
       inkscape:export-xdpi="500"
       inkscape:export-ydpi="500"><tspan
         sodipodi:role="line"
         id="tspan44288-4-2"
         style="font-size:4px;fill:#0000ff;stroke-width:0.264583"
         x="34.708035"
         y="121.93687">Angle</tspan></text>
    <path
       style="fill:none;stroke:#0000ff;stroke-width:0.318939px;stroke-linecap:butt;stroke-linejoin:miter;stroke-opacity:1;marker-end:url(#Arrow2Lend)"
       d="M 45.718996,141.08947 C 33.31571,136.11371 20.86158,129.44504 26.91074,122.95264 38.365556,110.65852 73.011306,111.15087 73.011306,111.15087"
       id="path914"
       inkscape:export-filename="C:\Users\Junwoo Hwang\Desktop\Temporary\[OLD]XPS_Laptop_drive_sync_Folder\2022_Auterion_Internship\2206xx_\path38900.png"
       inkscape:export-xdpi="500"
       inkscape:export-ydpi="500"
       sodipodi:nodetypes="csc" />
    <path
       style="fill:#000000;stroke-width:0.0473656"
       d="m 69.472496,126.94288 c 0.31314,-0.24682 0.89145,-1.86997 1.0446,-2.93191 0.0169,-0.11723 0.0813,-0.31972 0.14308,-0.44998 0.0838,-0.17671 0.15205,-0.51533 0.26881,-1.33413 0.0861,-0.60352 0.17116,-1.08824 0.1891,-1.07715 0.018,0.0111 0.10892,0.1566 0.20218,0.32335 0.29306,0.52405 0.56012,0.65749 0.92461,0.462 0.17408,-0.0933 0.33449,-0.34224 0.33449,-0.51897 0,-0.20253 -0.45575,-0.97683 -0.98888,-1.68012 -0.19857,-0.26194 -0.40906,-0.54715 -0.46773,-0.63379 -0.16467,-0.24313 -0.44178,-0.36263 -0.78936,-0.3404 -0.25582,0.0163 -0.34646,0.0536 -0.80912,0.33279 -0.63165,0.38111 -1.14834,0.74867 -1.67215,1.18951 -0.54001,0.45449 -0.62917,0.65125 -0.43753,0.96554 0.11533,0.18915 0.32058,0.29834 0.56084,0.29834 0.19919,0 0.25883,-0.0374 0.93275,-0.58508 0.20822,-0.16921 0.38432,-0.30192 0.39134,-0.29491 0.007,0.007 -0.0621,0.5109 -0.1536,1.11972 -0.0915,0.60884 -0.16636,1.18831 -0.16636,1.28772 0,0.22136 0.10879,0.49293 0.26121,0.65205 0.11333,0.11832 0.11362,0.12126 0.0449,0.44973 -0.10508,0.50221 -0.28563,1.10113 -0.45032,1.49374 -0.26909,0.64151 -0.28934,0.73559 -0.20418,0.94845 0.14485,0.36201 0.58012,0.52938 0.84132,0.3235 z m 2.73919,-0.44831 c 0.0713,-0.0387 0.1619,-0.13269 0.2013,-0.2089 0.20635,-0.39902 -0.0128,-0.78802 -1.03476,-1.83656 -0.28563,-0.29308 -0.5324,-0.53287 -0.54837,-0.53287 -0.0159,0 -0.0552,0.16518 -0.0871,0.36708 -0.0319,0.20191 -0.1035,0.52063 -0.15902,0.70829 l -0.10095,0.3412 0.16019,0.12991 c 0.24536,0.19898 0.6013,0.58642 0.74143,0.80702 0.0693,0.10909 0.17569,0.22099 0.23642,0.24866 0.15517,0.0707 0.43765,0.0593 0.59087,-0.0238 z m -1.45731,-8.1009 c 0.72846,-0.26668 0.88785,-1.26298 0.28195,-1.76242 -0.49502,-0.40803 -1.26942,-0.24932 -1.5722,0.32224 -0.16385,0.30929 -0.13705,0.76486 0.0619,1.05184 0.26918,0.38832 0.78391,0.55105 1.22837,0.38834 z"
       id="path4777"
       inkscape:export-filename="C:\Users\Junwoo Hwang\Desktop\Temporary\[OLD]XPS_Laptop_drive_sync_Folder\2022_Auterion_Internship\2206xx_\path38900.png"
       inkscape:export-xdpi="500"
       inkscape:export-ydpi="500" />
    <g
       inkscape:label="Layer 1"
       id="layer1-7"
       transform="matrix(3.5975755,0,0,3.5975755,16.638499,-962.90505)"
       style="fill:#f9f9f9"
       inkscape:export-filename="C:\Users\Junwoo Hwang\Desktop\Temporary\[OLD]XPS_Laptop_drive_sync_Folder\2022_Auterion_Internship\2206xx_\path38900.png"
       inkscape:export-xdpi="500"
       inkscape:export-ydpi="500">
      <rect
         style="opacity:1;fill:#f9f9f9;fill-opacity:0.996078;stroke:none;stroke-width:1.14114;stroke-miterlimit:4;stroke-dasharray:none;stroke-opacity:1"
         id="rect4485"
         width="6.6145835"
         height="6.6145835"
         x="0.70158255"
         y="290.28516"
         rx="0.66244233"
         ry="0.6883173" />
      <rect
         style="opacity:1;fill:#f9f9f9;fill-opacity:0.996078;stroke:none;stroke-width:0.284052;stroke-miterlimit:4;stroke-dasharray:none;stroke-opacity:1"
         id="rect4485-9"
         width="2.7057667"
         height="1.0019234"
         x="2.6559911"
         y="289.8512"
         rx="0.27097917"
         ry="0.10426073" />
      <ellipse
         style="opacity:1;fill:#f9f9f9;fill-opacity:1;stroke:none;stroke-width:2.61286;stroke-miterlimit:4;stroke-dasharray:none;stroke-opacity:1"
         id="path4510"
         cx="4.0088744"
         cy="289.80038"
         rx="0.33408689"
         ry="0.68487817" />
      <circle
         style="opacity:1;fill:#f9f9f9;fill-opacity:1;stroke:none;stroke-width:1.71015;stroke-miterlimit:4;stroke-dasharray:none;stroke-opacity:1"
         id="path4512"
         cx="2.4875493"
         cy="292.5376"
         r="1.2347223" />
      <circle
         style="opacity:1;fill:#f9f9f9;fill-opacity:1;stroke:none;stroke-width:1.71015;stroke-miterlimit:4;stroke-dasharray:none;stroke-opacity:1"
         id="path4512-4"
         cx="5.5944681"
         cy="292.5376"
         r="1.2347223" />
      <rect
         style="opacity:1;fill:#f9f9f9;fill-opacity:1;stroke:none;stroke-width:0.283709;stroke-miterlimit:4;stroke-dasharray:none;stroke-opacity:1"
         id="rect4535"
         width="0.52916664"
         height="0.52916664"
         x="2.222966"
         y="292.27301"
         rx="0"
         ry="0" />
      <rect
         style="opacity:1;fill:#f9f9f9;fill-opacity:1;stroke:none;stroke-width:0.283709;stroke-miterlimit:4;stroke-dasharray:none;stroke-opacity:1"
         id="rect4535-3"
         width="0.52916664"
         height="0.52916664"
         x="5.329885"
         y="292.27301"
         rx="0"
         ry="0" />
    </g>
  </g>
  <g
     inkscape:groupmode="layer"
     id="layer3"
     inkscape:label="Layer 3">
    <circle
       style="opacity:0.548077;fill:#ffffff;fill-opacity:1;stroke:#000000;stroke-width:0.339032;stroke-opacity:1"
       id="path5245"
       cx="25.598156"
       cy="89.928787"
       r="4.0191517"
       inkscape:export-filename="C:\Users\Junwoo Hwang\Desktop\Temporary\[OLD]XPS_Laptop_drive_sync_Folder\2022_Auterion_Internship\2206xx_\path38900.png"
       inkscape:export-xdpi="240.60001"
       inkscape:export-ydpi="240.60001" />
    <circle
       style="opacity:0.548077;fill:#ffffff;fill-opacity:1;stroke:#170026;stroke-width:0.339032;stroke-opacity:1"
       id="path5245-0"
       cx="36.917198"
       cy="89.794884"
       r="4.0191517"
       inkscape:export-filename="C:\Users\Junwoo Hwang\Desktop\Temporary\[OLD]XPS_Laptop_drive_sync_Folder\2022_Auterion_Internship\2206xx_\path38900.png"
       inkscape:export-xdpi="240.60001"
       inkscape:export-ydpi="240.60001" />
  </g>
  <g
     inkscape:groupmode="layer"
     id="layer2"
     inkscape:label="Layer 2">
    <path
       style="fill:none;stroke:#ff6600;stroke-width:0.290794;stroke-linecap:butt;stroke-linejoin:miter;stroke-miterlimit:4;stroke-dasharray:1.16318, 0.581588;stroke-dashoffset:0;stroke-opacity:1;marker-start:url(#Arrow1Mstart-7);marker-end:url(#Arrow1Mend-5)"
       d="M 25.694121,94.698032 V 84.865011"
       id="path39721-4"
       inkscape:export-filename="C:\Users\Junwoo Hwang\Desktop\Temporary\[OLD]XPS_Laptop_drive_sync_Folder\2022_Auterion_Internship\2206xx_\path38900.png"
       inkscape:export-xdpi="240.60001"
       inkscape:export-ydpi="240.60001" />
    <path
       style="fill:#008080;stroke:#008080;stroke-width:0.290794;stroke-linecap:butt;stroke-linejoin:miter;stroke-miterlimit:4;stroke-dasharray:1.16318, 0.581588;stroke-dashoffset:0;stroke-opacity:1;marker-start:url(#Arrow1Mstart-7-6);marker-end:url(#Arrow1Mend-5-1)"
       d="M 36.871497,94.698032 V 84.865011"
       id="path39721-4-3"
       inkscape:export-filename="C:\Users\Junwoo Hwang\Desktop\Temporary\[OLD]XPS_Laptop_drive_sync_Folder\2022_Auterion_Internship\2206xx_\path38900.png"
       inkscape:export-xdpi="240.60001"
       inkscape:export-ydpi="240.60001" />
    <path
       style="fill:#0000ff;stroke:#0000ff;stroke-width:0.290794;stroke-linecap:butt;stroke-linejoin:miter;stroke-miterlimit:4;stroke-dasharray:1.16318, 0.581588;stroke-dashoffset:0;stroke-opacity:1;marker-start:url(#Arrow1Mstart-7-6-1);marker-end:url(#Arrow1Mend-5-1-2)"
       d="m 32.000686,89.841825 h 9.833021"
       id="path39721-4-3-9"
       inkscape:export-filename="C:\Users\Junwoo Hwang\Desktop\Temporary\[OLD]XPS_Laptop_drive_sync_Folder\2022_Auterion_Internship\2206xx_\path38900.png"
       inkscape:export-xdpi="240.60001"
       inkscape:export-ydpi="240.60001" />
    <text
       xml:space="preserve"
       style="font-style:normal;font-weight:normal;font-size:2px;line-height:1.25;font-family:sans-serif;fill:#000000;fill-opacity:1;stroke:none;stroke-width:0.264583"
       x="21.53981"
       y="97.123375"
       id="text44290-5"
       inkscape:export-filename="C:\Users\Junwoo Hwang\Desktop\Temporary\[OLD]XPS_Laptop_drive_sync_Folder\2022_Auterion_Internship\2206xx_\path38900.png"
       inkscape:export-xdpi="240.60001"
       inkscape:export-ydpi="240.60001"><tspan
         sodipodi:role="line"
         id="tspan44288-5"
         style="font-size:2px;fill:#ff6600;stroke-width:0.264583"
         x="21.53981"
         y="97.123375">Throttle</tspan></text>
    <text
       xml:space="preserve"
       style="font-style:normal;font-weight:normal;font-size:1.5px;line-height:1.25;font-family:sans-serif;fill:#000000;fill-opacity:1;stroke:none;stroke-width:0.264583"
       x="24.105375"
       y="85.057495"
       id="text44290-5-9"
       inkscape:export-filename="C:\Users\Junwoo Hwang\Desktop\Temporary\[OLD]XPS_Laptop_drive_sync_Folder\2022_Auterion_Internship\2206xx_\path38900.png"
       inkscape:export-xdpi="240.60001"
       inkscape:export-ydpi="240.60001"><tspan
         sodipodi:role="line"
         id="tspan44288-5-5"
         style="font-weight:bold;font-size:1.5px;fill:#ff6600;stroke-width:0.264583"
         x="24.105375"
         y="85.057495">+</tspan></text>
    <text
       xml:space="preserve"
       style="font-style:normal;font-weight:normal;font-size:1.5px;line-height:1.25;font-family:sans-serif;fill:#000000;fill-opacity:1;stroke:none;stroke-width:0.264583"
       x="24.375441"
       y="95.402397"
       id="text44290-5-9-2"
       inkscape:export-filename="C:\Users\Junwoo Hwang\Desktop\Temporary\[OLD]XPS_Laptop_drive_sync_Folder\2022_Auterion_Internship\2206xx_\path38900.png"
       inkscape:export-xdpi="240.60001"
       inkscape:export-ydpi="240.60001"><tspan
         sodipodi:role="line"
         id="tspan44288-5-5-5"
         style="font-weight:bold;font-size:1.5px;fill:#ff6600;stroke-width:0.264583"
         x="24.375441"
         y="95.402397">-</tspan></text>
    <text
       xml:space="preserve"
       style="font-style:normal;font-weight:normal;font-size:2px;line-height:1.25;font-family:sans-serif;fill:#000000;fill-opacity:1;stroke:none;stroke-width:0.264583"
       x="34.500927"
       y="96.733162"
       id="text44290-5-8"
       inkscape:export-filename="C:\Users\Junwoo Hwang\Desktop\Temporary\[OLD]XPS_Laptop_drive_sync_Folder\2022_Auterion_Internship\2206xx_\path38900.png"
       inkscape:export-xdpi="240.60001"
       inkscape:export-ydpi="240.60001"><tspan
         sodipodi:role="line"
         id="tspan44288-5-4"
         style="font-size:2px;fill:#008080;stroke-width:0.264583"
         x="34.500927"
         y="96.733162">Pitch</tspan></text>
    <text
       xml:space="preserve"
       style="font-style:normal;font-weight:normal;font-size:1.5px;line-height:1.25;font-family:sans-serif;fill:#000000;fill-opacity:1;stroke:none;stroke-width:0.264583"
       x="35.367794"
       y="84.808342"
       id="text44290-5-8-3"
       inkscape:export-filename="C:\Users\Junwoo Hwang\Desktop\Temporary\[OLD]XPS_Laptop_drive_sync_Folder\2022_Auterion_Internship\2206xx_\path38900.png"
       inkscape:export-xdpi="240.60001"
       inkscape:export-ydpi="240.60001"><tspan
         sodipodi:role="line"
         id="tspan44288-5-4-7"
         style="font-weight:bold;font-size:1.5px;fill:#008080;stroke-width:0.264583"
         x="35.367794"
         y="84.808342">+</tspan></text>
    <text
       xml:space="preserve"
       style="font-style:normal;font-weight:normal;font-size:1.5px;line-height:1.25;font-family:sans-serif;fill:#000000;fill-opacity:1;stroke:none;stroke-width:0.264583"
       x="35.766708"
       y="95.198448"
       id="text44290-5-8-3-3"
       inkscape:export-filename="C:\Users\Junwoo Hwang\Desktop\Temporary\[OLD]XPS_Laptop_drive_sync_Folder\2022_Auterion_Internship\2206xx_\path38900.png"
       inkscape:export-xdpi="240.60001"
       inkscape:export-ydpi="240.60001"><tspan
         sodipodi:role="line"
         id="tspan44288-5-4-7-4"
         style="font-weight:bold;font-size:1.5px;fill:#008080;stroke-width:0.264583"
         x="35.766708"
         y="95.198448">-</tspan></text>
    <text
       xml:space="preserve"
       style="font-style:normal;font-weight:normal;font-size:2px;line-height:1.25;font-family:sans-serif;fill:#0000ff;fill-opacity:1;stroke:none;stroke-width:0.264583"
       x="41.341736"
       y="89.121666"
       id="text44290-5-8-7"
       inkscape:export-filename="C:\Users\Junwoo Hwang\Desktop\Temporary\[OLD]XPS_Laptop_drive_sync_Folder\2022_Auterion_Internship\2206xx_\path38900.png"
       inkscape:export-xdpi="240.60001"
       inkscape:export-ydpi="240.60001"><tspan
         sodipodi:role="line"
         id="tspan44288-5-4-9"
         style="font-size:2px;fill:#0000ff;stroke-width:0.264583"
         x="41.341736"
         y="89.121666">Roll</tspan></text>
    <text
       xml:space="preserve"
       style="font-style:normal;font-weight:normal;font-size:1.5px;line-height:1.25;font-family:sans-serif;fill:#0000ff;fill-opacity:1;stroke:none;stroke-width:0.264583"
       x="41.080902"
       y="91.175575"
       id="text44290-5-8-7-7"
       inkscape:export-filename="C:\Users\Junwoo Hwang\Desktop\Temporary\[OLD]XPS_Laptop_drive_sync_Folder\2022_Auterion_Internship\2206xx_\path38900.png"
       inkscape:export-xdpi="240.60001"
       inkscape:export-ydpi="240.60001"><tspan
         sodipodi:role="line"
         id="tspan44288-5-4-9-0"
         style="font-weight:bold;font-size:1.5px;fill:#0000ff;stroke-width:0.264583"
         x="41.080902"
         y="91.175575">+</tspan></text>
    <text
       xml:space="preserve"
       style="font-style:normal;font-weight:normal;font-size:1.5px;line-height:1.25;font-family:sans-serif;fill:#0000ff;fill-opacity:1;stroke:none;stroke-width:0.264583"
       x="31.746262"
       y="91.090614"
       id="text44290-5-8-7-7-4"
       inkscape:export-filename="C:\Users\Junwoo Hwang\Desktop\Temporary\[OLD]XPS_Laptop_drive_sync_Folder\2022_Auterion_Internship\2206xx_\path38900.png"
       inkscape:export-xdpi="240.60001"
       inkscape:export-ydpi="240.60001"><tspan
         sodipodi:role="line"
         id="tspan44288-5-4-9-0-7"
         style="font-weight:bold;font-size:1.5px;fill:#0000ff;stroke-width:0.264583"
         x="31.746262"
         y="91.090614">-</tspan></text>
  </g>
</svg>
